<svg width="21" height="16" viewBox="0 0 21 16" fill="none" xmlns="http://www.w3.org/2000/svg">
<path d="M16.3385 5.60827C16.0681 6.41952 17.3043 6.84446 17.5747 5.99458C18.1542 4.17892 16.5317 2.32464 14.6001 2.74958C13.7503 2.9041 14.0207 4.17892 14.8706 3.98577C15.7977 3.79261 16.6089 4.68113 16.3385 5.60827ZM8.88275 16C16.8021 16 20.7038 9.31684 15.45 7.69434C15.1796 7.61708 14.9864 7.53982 15.141 7.19214C16.1454 4.56523 13.7889 3.90851 10.737 5.18333C10.737 5.18333 10.0803 5.49238 10.2348 4.95154C11.3938 1.2816 7.41477 1.32023 3.55168 5.18333C1.69739 7.03762 0.615723 9.04643 0.615723 10.7462C0.615723 14.0298 4.78787 16 8.88275 16ZM14.4456 10.3599C14.6388 12.5232 12.1664 14.4934 8.92138 14.8411C5.63775 15.1501 2.81769 13.6821 2.5859 11.5188C2.39275 9.35547 4.86513 7.38529 8.14876 7.03762C11.4324 6.72857 14.2525 8.19654 14.4456 10.3599ZM14.0207 0.122672C13.0549 0.315827 13.4026 1.7838 14.3683 1.59065C17.1498 1.01118 19.5835 3.63809 18.6564 6.38089C18.386 7.30803 19.8153 7.81024 20.1244 6.84446C21.3606 2.98136 17.9997 -0.727209 14.0207 0.122672ZM11.0075 12.1369C11.6642 10.6303 10.8529 9.12369 9.23043 8.69875C7.68519 8.31244 5.90817 9.08506 5.25144 10.4371C4.55608 11.8279 5.21281 13.4117 6.79668 13.9139C8.41918 14.4548 10.3507 13.6049 11.0075 12.1369ZM7.68519 10.978C8.18739 11.1711 8.34192 11.7506 8.03287 12.2914C7.72382 12.7936 7.02846 12.9868 6.52626 12.755C6.02406 12.5232 5.86953 11.9437 6.21721 11.4415C6.52626 10.978 7.18299 10.7462 7.68519 10.978ZM8.92138 10.4371C9.11454 10.5144 9.1918 10.7462 9.0759 10.9393C8.96001 11.1325 8.72823 11.2098 8.53507 11.1325C8.34192 11.0552 8.26465 10.8621 8.38055 10.6689C8.49644 10.4758 8.72823 10.3599 8.92138 10.4371Z" fill="white" fill-opacity="0.3"/>
</svg>
