<svg width="18" height="18" viewBox="0 0 18 18" fill="none" xmlns="http://www.w3.org/2000/svg">
<path d="M9.02009 4.35938C6.44866 4.35938 4.39955 6.44866 4.39955 8.97991C4.39955 11.5513 6.44866 13.6004 9.02009 13.6004C11.5513 13.6004 13.6406 11.5513 13.6406 8.97991C13.6406 6.44866 11.5513 4.35938 9.02009 4.35938ZM9.02009 11.9933C7.37277 11.9933 6.0067 10.6674 6.0067 8.97991C6.0067 7.33259 7.33259 6.0067 9.02009 6.0067C10.6674 6.0067 11.9933 7.33259 11.9933 8.97991C11.9933 10.6674 10.6674 11.9933 9.02009 11.9933ZM14.8862 4.19866C14.8862 3.59598 14.404 3.11384 13.8013 3.11384C13.1987 3.11384 12.7165 3.59598 12.7165 4.19866C12.7165 4.80134 13.1987 5.28348 13.8013 5.28348C14.404 5.28348 14.8862 4.80134 14.8862 4.19866ZM17.9397 5.28348C17.8594 3.83705 17.5379 2.55134 16.4933 1.5067C15.4487 0.462054 14.1629 0.140625 12.7165 0.0602679C11.2299 -0.0200893 6.77009 -0.0200893 5.28348 0.0602679C3.83705 0.140625 2.59152 0.462054 1.5067 1.5067C0.462054 2.55134 0.140625 3.83705 0.0602679 5.28348C-0.0200893 6.77009 -0.0200893 11.2299 0.0602679 12.7165C0.140625 14.1629 0.462054 15.4085 1.5067 16.4933C2.59152 17.5379 3.83705 17.8594 5.28348 17.9397C6.77009 18.0201 11.2299 18.0201 12.7165 17.9397C14.1629 17.8594 15.4487 17.5379 16.4933 16.4933C17.5379 15.4085 17.8594 14.1629 17.9397 12.7165C18.0201 11.2299 18.0201 6.77009 17.9397 5.28348ZM16.0112 14.2835C15.7299 15.0871 15.0871 15.6897 14.3237 16.0112C13.1183 16.4933 10.3058 16.3728 9.02009 16.3728C7.6942 16.3728 4.8817 16.4933 3.71652 16.0112C2.91295 15.6897 2.31027 15.0871 1.98884 14.2835C1.5067 13.1183 1.62723 10.3058 1.62723 8.97991C1.62723 7.6942 1.5067 4.8817 1.98884 3.67634C2.31027 2.91295 2.91295 2.31027 3.71652 1.98884C4.8817 1.5067 7.6942 1.62723 9.02009 1.62723C10.3058 1.62723 13.1183 1.5067 14.3237 1.98884C15.0871 2.27009 15.6897 2.91295 16.0112 3.67634C16.4933 4.8817 16.3728 7.6942 16.3728 8.97991C16.3728 10.3058 16.4933 13.1183 16.0112 14.2835Z" fill="white" fill-opacity="0.3"/>
</svg>
