<svg width="43" height="15" viewBox="0 0 43 15" fill="none" xmlns="http://www.w3.org/2000/svg">
<path d="M30.5769 0.769231C30.5769 0.384615 30.1923 0 29.8077 0.192308H27.6923C27.3077 0.192308 27.1154 0.384615 27.1154 0.769231V8.84615L20.7692 0.384615C20.7692 0.192308 20.5769 0.192308 20.3846 0.192308H18.0769C17.6923 0.192308 17.5 0.384615 17.5 0.769231V14.4231C17.5 14.8077 17.6923 15 18.0769 15H20.3846C20.5769 15 20.9615 14.8077 20.9615 14.4231V6.34615L27.1154 14.8077C27.3077 14.8077 27.5 15 27.6923 15H29.8077C30.1923 15 30.5769 14.8077 30.5769 14.4231V0.769231ZM14.8077 0H12.5C12.1154 0 11.9231 0.384615 11.9231 0.769231V14.4231C11.9231 14.8077 12.1154 15 12.5 15H14.8077C15 15 15.3846 14.8077 15.3846 14.4231V0.769231C15.3846 0.384615 15 0 14.8077 0ZM9.42308 11.5385H3.46154V0.769231C3.46154 0.384615 3.26923 0 2.88462 0H0.576923C0.384615 0 0 0.384615 0 0.769231V14.4231C0 14.6154 0.192308 14.6154 0.192308 14.8077C0.384615 14.8077 0.384615 15 0.576923 15H9.42308C9.80769 15 10 14.6154 10 14.4231V12.1154C10 11.9231 9.80769 11.5385 9.42308 11.5385ZM42.1154 0H33.2692C32.8846 0 32.6923 0.384615 32.6923 0.769231V14.4231C32.6923 14.6154 32.8846 15 33.2692 15H42.1154C42.3077 15 42.6923 14.8077 42.6923 14.4231V12.1154C42.6923 11.9231 42.3077 11.5385 42.1154 11.5385H36.1539V9.23077H42.1154C42.3077 9.23077 42.6923 9.03846 42.6923 8.65385V6.34615C42.6923 6.15385 42.3077 5.76923 42.1154 5.76923H36.1539V3.46154H42.1154C42.3077 3.46154 42.6923 3.26923 42.6923 2.88462V0.769231C42.6923 0.384615 42.3077 0 42.1154 0Z" fill="white" fill-opacity="0.3"/>
</svg>
