<svg width="24" height="16" viewBox="0 0 24 16" fill="none" xmlns="http://www.w3.org/2000/svg"><path d="M8.29687 4H7.04223C6.83987 4 6.67798 4.15459 6.67798 4.30918V11.6522C6.67798 11.8454 6.83987 11.9614 7.04223 11.9614H8.29687C8.49923 11.9614 8.66112 11.8068 8.66112 11.6522V4.30918C8.62064 4.15459 8.49923 4 8.29687 4Z" fill="#fff"/><path d="M16.8363 4H15.5817C15.3793 4 15.2174 4.15459 15.2174 4.30918V8.67633L11.6964 4.15459C11.6964 4.15459 11.6964 4.11594 11.6559 4.11594C11.6559 4.11594 11.6559 4.11594 11.6154 4.07729C11.6154 4.07729 11.6154 4.07729 11.5749 4.07729H10.3203C10.1179 4.07729 9.95605 4.23188 9.95605 4.38647V11.7295C9.95605 11.9227 10.1179 12.0386 10.3203 12.0386H11.5749C11.7773 12.0386 11.9392 11.8841 11.9392 11.7295V7.32367L15.4603 11.8841C15.5007 11.9227 15.5007 11.9614 15.5412 11.9614C15.5412 11.9614 15.5412 11.9614 15.5817 11.9614C15.5817 11.9614 15.5817 11.9614 15.6222 11.9614C15.6626 11.9614 15.6626 11.9614 15.7031 11.9614H16.9577C17.1601 11.9614 17.322 11.8068 17.322 11.6522V4.30918C17.1601 4.15459 16.9982 4 16.8363 4Z" fill="#fff"/><path d="M5.30185 10.1836H1.94266V4.34783C1.94266 4.15459 1.78078 4 1.57841 4H0.36425C0.161889 4 0 4.15459 0 4.34783V11.6908C0 11.7681 0.0404722 11.8454 0.0809443 11.9227C0.161889 11.9614 0.242833 12 0.323777 12H5.26138C5.46374 12 5.58516 11.8454 5.58516 11.6522V10.4541C5.62563 10.3382 5.50422 10.1836 5.30185 10.1836Z" fill="#fff"/><path d="M23.6762 5.85507C23.8785 5.85507 24 5.70048 24 5.50725V4.34783C24 4.15459 23.8785 4 23.6762 4H18.7386C18.6576 4 18.5767 4.03865 18.4957 4.07729C18.4553 4.15459 18.4148 4.23188 18.4148 4.30918V11.6522C18.4148 11.7295 18.4553 11.8068 18.4957 11.8841C18.5767 11.9227 18.6576 11.9614 18.7386 11.9614H23.6762C23.8785 11.9614 24 11.8068 24 11.6135V10.4155C24 10.2222 23.8381 10.0676 23.6762 10.0676H20.317V8.83092H23.6762C23.8785 8.83092 24 8.67633 24 8.48309V7.40097C24 7.24638 23.8785 7.09179 23.6762 7.09179H20.317V5.85507H23.6762Z" fill="#fff"/></svg>
