<svg id="圖層_1" data-name="圖層 1" xmlns="http://www.w3.org/2000/svg" xmlns:xlink="http://www.w3.org/1999/xlink" viewBox="0 0 50 50"><defs><style>.cls-1{fill:none;}.cls-2{clip-path:url(#clip-path);}.cls-3{fill:url(#未命名漸層_2);}.cls-4{opacity:0.7;}.cls-5{fill:#1b274f;}.cls-6{fill:#fff;}.cls-7{fill:#1eb5ea;stroke:#036;}</style><clipPath id="clip-path"><rect class="cls-1" x="11" y="11" width="28" height="28"/></clipPath><radialGradient id="未命名漸層_2" cx="14.67" cy="31.35" r="1" gradientTransform="matrix(20.66, 0, 0, -20.66, -281.83, 665.17)" gradientUnits="userSpaceOnUse"><stop offset="0.12" stop-color="#1eb5ea"/><stop offset="0.52" stop-color="#121e7c"/><stop offset="0.84" stop-color="#036"/><stop offset="1" stop-color="#004dbc"/></radialGradient></defs><g class="cls-2"><path class="cls-3" d="M25,38.51A13.51,13.51,0,1,0,11.49,25,13.51,13.51,0,0,0,25,38.51Z"/><g class="cls-4"><g class="cls-4"><path class="cls-5" d="M25,38.51A13.51,13.51,0,1,0,11.49,25,13.51,13.51,0,0,0,25,38.51Z"/></g></g><path class="cls-6" d="M25,11.49a13.5,13.5,0,1,1-5.17,1A13.51,13.51,0,0,1,25,11.49ZM25,11a13.93,13.93,0,1,0,5.36,1.06A13.7,13.7,0,0,0,25,11Z"/><rect class="cls-1" x="17.4" y="17.13" width="18.18" height="19.33"/><path class="cls-6" d="M19.38,31.43a1.78,1.78,0,0,0,.46-1.11V28l-.46.46-.83.83a1.78,1.78,0,0,0-.46,1.11v2.32l.46-.46Z"/><path class="cls-6" d="M23.44,30.92a1.17,1.17,0,1,0-1.17-1.17A1.17,1.17,0,0,0,23.44,30.92Z"/><path class="cls-6" d="M24.52,34a2.46,2.46,0,0,0,.23-.71H22.27v-5.9H24.7V26.36a.62.62,0,0,0-.71-.69H22.28V23.92h2.47V22.09a1.85,1.85,0,0,0-.46-1.1L21.9,18.6a.64.64,0,0,0-.91,0L18.59,21a1.9,1.9,0,0,0-.46,1.11v1.81a6.36,6.36,0,0,0,.46-.45L21,21.07a.67.67,0,0,1,.46-.18.65.65,0,0,1,.46.18L23,22.17H21.05a1.24,1.24,0,0,0-.53.12,1.34,1.34,0,0,0-.43.32l-1.51,1.51h1.94v1.55H18.09v1.09a.61.61,0,0,0,.69.66h1.74v5.9H18.09s.56,1.75,1.59,1.75h3.39a1.33,1.33,0,0,0,.28,0,2.12,2.12,0,0,0,1-.8l0,0,.06-.11Z"/><path class="cls-6" d="M32,33.32v-2.4h1.75V24.5H25.28V30a.83.83,0,0,0,.84.88H27v2.4h-1.7a2.79,2.79,0,0,1-.86,1.76h2.65a1.59,1.59,0,0,0,1.67-1.69V30.92h1.46v4.15h1.67c1.08,0,2.33-1.75,2.33-1.75ZM29.5,29.73a2,2,0,0,1-1.41-.57H27V26.25h1.05a2,2,0,0,1,2.81,0H32v2.91H30.9a2,2,0,0,1-1.4.57Z"/><path class="cls-6" d="M26,23.92h7.73V22.84c0-.73-.78-.67-.78-.67h-.54V20.42h1.32v-1a.76.76,0,0,0-.85-.79H30.39v-.8H28.64v.8H25.29v1.17s0,.58.74.58h.57v1.75H25.29v1.11A.64.64,0,0,0,26,23.92Zm2.33-3.5h2.33v1.75H28.35Z"/><path class="cls-6" d="M29.82,29.21A1.52,1.52,0,0,0,31,27.37a1.53,1.53,0,1,0-1.14,1.84Z"/><path class="cls-7" d="M29.71,28.74a1,1,0,0,0-.48-2,1,1,0,1,0,.48,2Z"/></g></svg>