<svg id="圖層_1" data-name="圖層 1" xmlns="http://www.w3.org/2000/svg" viewBox="0 0 50 50"><defs><style>.cls-1{fill:#fff;fill-rule:evenodd;}</style></defs><path class="cls-1" d="M37.38,17.24a4.62,4.62,0,1,0-4.62-4.62A4.62,4.62,0,0,0,37.38,17.24Zm0,3a7.62,7.62,0,1,0-7.62-7.62A7.7,7.7,0,0,0,30.15,15L19,20.84a7.62,7.62,0,1,0,.19,8l10.9,6.3a7.74,7.74,0,0,0-.33,2.22,7.64,7.64,0,1,0,1.67-4.75L20.16,26.12A8.32,8.32,0,0,0,20.24,25a7.41,7.41,0,0,0-.15-1.5l11.46-6A7.61,7.61,0,0,0,37.38,20.24Zm0,21.76a4.62,4.62,0,1,0-4.62-4.62A4.62,4.62,0,0,0,37.38,42ZM17.24,25a4.62,4.62,0,1,1-4.62-4.62A4.62,4.62,0,0,1,17.24,25Z"/></svg>