<svg viewBox="0 0 116.99 137.97" xmlns="http://www.w3.org/2000/svg"><g fill="#fff"><path d="m109.52 66.11h-102.05a7.48 7.48 0 0 1 -7.47-7.48v-16.88a7.48 7.48 0 0 1 7.47-7.48h102a7.49 7.49 0 0 1 7.53 7.48v16.88a7.48 7.48 0 0 1 -7.47 7.47m-102.06-25.42a1.06 1.06 0 0 0 -1.06 1.07v16.88a1.07 1.07 0 0 0 1.06 1.07h102a1.07 1.07 0 0 0 1.06-1.07v-16.88a1.06 1.06 0 0 0 -1.06-1.07z"/><path d="m100.31 138h-83.62a7.49 7.49 0 0 1 -7.48-7.47v-66.69a3.2 3.2 0 1 1 6.41 0v66.66a1.07 1.07 0 0 0 1.07 1.07h83.62a1.07 1.07 0 0 0 1.07-1.07v-66.66a3.2 3.2 0 1 1 6.4 0v66.66a7.48 7.48 0 0 1 -7.47 7.47"/><path d="m83.88 39.73a23.28 23.28 0 0 0 18.79-6.79c8.05-8.35 8.3-13.32 5.13-16.71s-4.88-6.79-4.64-9.67.73-6-8.3-6.53-20.74 4.19-32.21 21.68h-8.3c-11.47-17.49-23.18-22.19-32.22-21.71s-8.53 3.65-8.3 6.53-1.46 6.27-4.64 9.67-2.92 8.35 5.13 16.71a23.29 23.29 0 0 0 18.79 6.79c-14.89 5.3-22.21 25.18-22.21 25.18l18.31 13.24c8.29-25.34 21.72-37 21.72-37h15.13s13.43 11.62 21.72 37l18.31-13.25s-7.32-19.87-22.21-25.14m-37.01-7.73s-17.35-10.6-32.79-11.66a18.33 18.33 0 0 0 5-12.51s12.54-6.4 30.31 15.8a9.89 9.89 0 0 0 -2.52 8.37m17.73 2h-12.2a6.38 6.38 0 0 1 .73-7.58h10.74a6.38 6.38 0 0 1 .73 7.58m3-10.36c17.75-22.21 30.29-15.81 30.29-15.81a18.3 18.3 0 0 0 5 12.51c-15.42 1.06-32.77 11.66-32.77 11.66a9.87 9.87 0 0 0 -2.55-8.34"/><path d="m49.89 63.71h17.23v70.07h-17.23z"/><path d="m49.89 39.06h17.23v23.49h-17.23z"/></g></svg>