<svg id="圖層_1" data-name="圖層 1" xmlns="http://www.w3.org/2000/svg" viewBox="0 0 128 37"><defs><style>.cls-1{fill:#c6c8cc;}</style></defs><title>question-arrow</title><path class="cls-1" d="M32.5,36.08a2.31,2.31,0,0,1-1.63-.67L15.48,20.2a2.26,2.26,0,0,1,0-3.23L30.87,1.75a2.32,2.32,0,0,1,3.26,0,2.26,2.26,0,0,1,0,3.23L20.38,18.58l13.75,13.6a2.26,2.26,0,0,1,0,3.23A2.31,2.31,0,0,1,32.5,36.08Z"/><path class="cls-1" d="M95.73,36.08a2.31,2.31,0,0,0,1.63-.67L112.75,20.2a2.26,2.26,0,0,0,0-3.23L97.37,1.75a2.32,2.32,0,0,0-3.26,0A2.26,2.26,0,0,0,94.1,5l13.75,13.6L94.1,32.19a2.26,2.26,0,0,0,0,3.23A2.31,2.31,0,0,0,95.73,36.08Z"/></svg>