<svg width="50" height="50" viewBox="0 0 50 50" fill="none" xmlns="http://www.w3.org/2000/svg">
<path d="M15.4847 43.5628C15.4847 44.4058 14.8014 45.0891 13.9584 45.0891C13.1154 45.0891 12.4321 44.4058 12.4321 43.5628C12.4321 42.7197 13.1154 42.0364 13.9584 42.0364C14.801 42.0364 15.4847 42.7197 15.4847 43.5628ZM49.9989 26.3883V45.692C49.9989 48.0675 48.0664 50 45.691 50H4.30789C1.93244 50 0 48.0675 0 45.692V4.30799C0 1.93249 1.93244 0 4.30789 0H23.6112C25.9866 0 27.9191 1.93249 27.9191 4.30799V22.0819H45.6926C48.0676 22.0819 50 24.0139 50 26.3894L49.9989 26.3883ZM23.6105 47.9483C24.8548 47.9483 25.8672 46.9364 25.8672 45.6916V4.30643C25.8672 3.06208 24.8553 2.0497 23.6105 2.0497L4.30722 2.04927C3.0629 2.04927 2.05055 3.06119 2.05055 4.30599V22.7228C2.68381 22.3311 3.42233 22.0978 4.21018 22.0799C4.77727 22.063 5.24602 22.5161 5.2582 23.0827C5.27082 23.6494 4.8221 24.1186 4.25543 24.1308C3.12988 24.1556 2.18761 25.0174 2.06405 26.135C2.06144 26.1581 2.05404 26.1794 2.05012 26.2016V45.6903C2.05012 46.9346 3.06203 47.947 4.3068 47.947L23.6105 47.9483ZM47.9477 26.3883C47.9477 25.144 46.9358 24.1316 45.691 24.1316H27.9175V45.6916C27.9175 46.5194 27.6786 47.2907 27.2725 47.9483H45.69C46.9343 47.9483 47.9467 46.9364 47.9467 45.6916L47.9477 26.3883ZM32.4583 5.54365C38.5419 5.54365 43.5784 10.0562 44.4302 15.9076L41.8793 14.601C41.3757 14.3424 40.7568 14.5418 40.4982 15.0466C40.2397 15.5506 40.4395 16.1691 40.9439 16.4277L45.1287 18.5708C45.1382 18.5756 45.1478 18.5769 45.1574 18.5812C45.2074 18.6047 45.2592 18.623 45.3132 18.6387C45.3337 18.6443 45.3532 18.653 45.3737 18.6574C45.4394 18.6718 45.5073 18.68 45.5769 18.6809C45.583 18.6809 45.5896 18.6826 45.5957 18.6826C45.597 18.6826 45.5983 18.6822 45.6 18.6822C45.6849 18.6822 45.7658 18.6683 45.8446 18.6491C45.8664 18.6435 45.8868 18.6361 45.9082 18.6291C45.9704 18.6091 46.03 18.5834 46.0862 18.5529C46.1049 18.5429 46.1232 18.5342 46.141 18.5229C46.2111 18.4794 46.275 18.428 46.3325 18.3693C46.3438 18.3579 46.3525 18.3445 46.363 18.3323C46.4109 18.2774 46.4526 18.2182 46.4883 18.1538C46.4944 18.1425 46.504 18.1351 46.5096 18.1238C46.5153 18.1133 46.517 18.102 46.5223 18.0911C46.5379 18.0576 46.551 18.0232 46.5627 17.9876C46.5732 17.9571 46.5841 17.9271 46.5915 17.8957C46.5989 17.8644 46.6032 17.8326 46.6084 17.8008C46.6132 17.7638 46.6185 17.7273 46.6198 17.6903C46.6202 17.6785 46.6237 17.6677 46.6237 17.6555C46.6237 9.84463 40.2694 3.4905 32.4579 3.4905C31.8913 3.4905 31.4321 3.94968 31.4321 4.51636C31.4321 5.08391 31.8908 5.54396 32.4575 5.54396L32.4583 5.54365ZM14.6948 23.1058C14.6948 22.5392 14.2356 22.08 13.6689 22.08L8.95059 22.0804C8.38393 22.0804 7.92476 22.5396 7.92476 23.1063C7.92476 23.673 8.38393 24.1321 8.95059 24.1321H13.6689C14.2352 24.1317 14.6948 23.6725 14.6948 23.1058V23.1058ZM24.1309 23.1058C24.1309 22.5392 23.6718 22.08 23.1051 22.08H18.3867C17.8201 22.08 17.3609 22.5392 17.3609 23.1058C17.3609 23.6725 17.8201 24.1317 18.3867 24.1317H23.1051C23.6718 24.1317 24.1309 23.6725 24.1309 23.1058Z" fill="white"/>
</svg>
