<svg viewBox="0 0 50 50" xmlns="http://www.w3.org/2000/svg"><circle cx="25.31" cy="25.18" fill="#2bac38" r="24"/><g fill="#fff"><path d="m20.68 19.94h-1.55a.43.43 0 0 0 -.43.43v9.63a.43.43 0 0 0 .43.43h1.55a.43.43 0 0 0 .43-.43v-9.6a.43.43 0 0 0 -.43-.43"/><path d="m31.32 19.94h-1.55a.43.43 0 0 0 -.43.43v5.71l-4.4-5.94h-1.94a.43.43 0 0 0 -.43.43v9.43a.43.43 0 0 0 .43.43h1.55a.43.43 0 0 0 .45-.43v-5.7l4.41 6a.42.42 0 0 0 .11.11h1.76a.43.43 0 0 0 .43-.43v-9.6a.43.43 0 0 0 -.43-.43"/><path d="m16.95 28h-4.2v-7.63a.43.43 0 0 0 -.43-.43h-1.55a.43.43 0 0 0 -.43.43v9.63a.43.43 0 0 0 .12.3.43.43 0 0 0 .3.12h6.18a.43.43 0 0 0 .43-.43v-1.56a.43.43 0 0 0 -.43-.43"/><path d="m39.85 22.35a.43.43 0 0 0 .43-.43v-1.55a.43.43 0 0 0 -.43-.43h-6.17a.43.43 0 0 0 -.3.12.43.43 0 0 0 -.12.3v9.64a.43.43 0 0 0 .12.3.43.43 0 0 0 .3.12h6.18a.43.43 0 0 0 .43-.43v-1.56a.43.43 0 0 0 -.43-.43h-4.2v-1.62h4.2a.43.43 0 0 0 .43-.43v-1.55a.43.43 0 0 0 -.43-.43h-4.2v-1.62z"/></g></svg>