<svg height="80" viewBox="0 0 80 80" width="80" xmlns="http://www.w3.org/2000/svg"><g fill="#135268"><path d="m40.046281 0c-16.063803-.00134264-30.54660379 9.71437743-36.69488155 24.6165918-6.14827775 14.9022144-2.75118685 32.056072 8.60716445 43.4625028 11.3583512 11.4064308 28.4410423 14.8190454 43.282189 8.6464966 14.8411468-6.1725488 24.5179248-20.7146355 24.5179248-36.8450933-.0236821-22.0142374-17.7891293-39.85488511-39.7123967-39.8804979zm0 78.4298755c-15.5292777.0013426-29.5301239-9.3912284-35.47353886-23.7976852-5.94341494-14.4064567-2.65884968-30.989464 8.32200786-42.0158853 10.9808576-11.02642128 27.49534-14.32461544 41.842266-8.35653904 14.346926 5.96807644 23.7006847 20.02701744 23.6993476 35.62073194-.0255014 21.2796175-17.1983975 38.5237703-38.3900826 38.5493776z"/><path d="m23.8016529 58.5394191c.7922378-.8886844 1.2587187-2.0222524 1.322314-3.213278v-4.8531121c0-1.0356846 0-1.8821576 0-1.8821576l-1.322314 1.3278008-2.4 2.4099585c-.7922378.8886844-1.2587187 2.0222524-1.3223141 3.213278v4.853112 1.8821577l1.3223141-1.3278008z"/><circle cx="35.53548" cy="53.668124" r="3.385529" transform="matrix(.70710678 -.70710678 .70710678 .70710678 -27.540993 40.846408)"/><path d="m38.6479339 66.0946058c.3408713-.6444837.5647504-1.3447606.661157-2.0680498h-7.153719v-17.1286307h7.0280992v-3.0804979c0-2.2904564-2.0561984-1.9917013-2.0561984-1.9917013h-4.9586777v-5.0887966h7.1504133s0-.8464731 0-1.8821577v-3.4190872c-.0633331-1.1910852-.5298486-2.3247372-1.3223141-3.213278l-6.922314-6.9211618c-.7327656-.7273076-1.9118626-.7273076-2.6446281 0l-6.9090909 6.9410789c-.7924655.8885407-1.258981 2.0221927-1.3223141 3.213278v3.3726141 1.8954357c0 .006639.6082645-.5875519 1.3223141-1.3278009l6.9090909-6.9112033c.7327655-.7273076 1.9118625-.7273076 2.6446281 0l3.1570248 3.1701245h-5.6198348c-1.0601121.0323768-2.0619349.4946485-2.7768595 1.2813278l-4.3471074 4.3751037h5.6198347v4.5145228h-7.0380165v3.173444s-.2016529 1.9087137 1.9834711 1.9087137h5.0545454v17.1253112h-7.0380165s1.6198347 5.0821577 4.5983471 5.0821577h9.7950413c.2769341-.0007575.5529551-.0319248.8231405-.0929461 1.2177287-.4406482 2.2674191-1.2532388 3.0016529-2.3236514l.0661157-.1029046c.0694215-.106224.1322314-.2157676.1950413-.3319502z"/><path d="m60.2479339 57.0522822h5.0677686v-18.6224067h-24.4628099v16.0497925s-.0727273 2.5659752 2.4198347 2.5659752h2.6247934v6.9709543h-4.9057852c-.1988135 1.9374654-1.0804555 3.7398521-2.4859504 5.0821577h7.646281c5.0512397 0 4.8330579-4.8863071 4.8330579-4.8863071v-7.1601659h4.2115702v12.0564315h4.8429752c3.1173554 0 6.7140496-5.0821577 6.7140496-5.0821577h-6.5057851zm-3.1438017-5.0821577c-2.2624838 2.1947276-5.8499129 2.1947276-8.1123967 0h-3.0413223l-.0198347-8.4580913h3.0644628c2.2624838-2.1947276 5.8499129-2.1947276 8.1123967 0h3.1603306v8.4580913z"/><path d="m42.9752066 36.7369295h22.3438017c0-.9427386 0-2.1178424 0-3.140249 0-2.1045643-2.2545455-1.9419087-2.2545455-1.9419087h-1.5404959v-5.0821577h3.7950414v-2.7817427s.1157024-2.300415-2.4363637-2.300415h-7.2727272v-2.3037344h-5.031405v2.3037344h-9.7090909v3.4058092s-.0760331 1.679668 2.1421487 1.679668h1.6528926v5.0788382h-3.7950413v3.239834s-.0363636 1.8423237 2.1057851 1.8423237zm6.7404959-10.1643154h6.7471074v5.0821577h-6.7371901z"/><path d="m52.9652893 43.3427386c-2.4428331 0-4.4231405 1.9885245-4.4231405 4.4414938 0 2.4529692 1.9803074 4.4414937 4.4231405 4.4414937 2.442833 0 4.4231405-1.9885245 4.4231405-4.4414937 0-2.4529693-1.9803075-4.4414938-4.4231405-4.4414938zm0 7.4788382c-1.6705473 0-3.0247934-1.3598654-3.0247934-3.0373444s1.3542461-3.0373444 3.0247934-3.0373444c1.6705472 0 3.0247933 1.3598654 3.0247933 3.0373444-.0018243 1.6761825-1.3555362 3.0340259-3.0247933 3.0340249z"/><ellipse cx="52.965289" cy="47.780913" rx="2.809917" ry="2.821577"/></g></svg>