<svg enable-background="new 0 0 24 24" height="512" viewBox="0 0 24 24" width="512" xmlns="http://www.w3.org/2000/svg"><path d="m24 19.075v-.613-3.924-.613c0-.744-.244-1.349-.544-1.349h-3.661c-.3 0-.544.605-.544 1.349v5.15c0 .744.244 1.349.544 1.349h3.661c.3 0 .544-.605.544-1.349z" fill="#607d8b"/><path d="m3.067 23.25c-.589 0-1.067-.504-1.067-1.125v-11.25c0-.621.478-1.125 1.067-1.125h19.201c.589 0 1.067.504 1.067 1.125v1.675c0 .621-.478 1.125-1.067 1.125s-1.067.504-1.067 1.125v2.874c0 .621.478 1.125 1.067 1.125s1.067 2.142 1.067 2.764v.563c0 .621-.478 1.125-1.067 1.125h-19.201z" fill="#eceff1"/><path d="m10.242.75h-.653-4.178-.653c-.792 0-1.436.687-1.436 1.532v10.307c0 .845.644 1.532 1.436 1.532h5.484c.792 0 1.436-.687 1.436-1.532v-10.307c.001-.845-.644-1.532-1.436-1.532z" fill="#607d8b"/><path d="m13.826 22.125c0 .621-.472 1.125-1.054 1.125h-10.543c-.582 0-1.054-.504-1.054-1.125v-20.25c0-.621.472-1.125 1.054-1.125h.527c.582 0 1.054.504 1.054 1.125s.472 1.125 1.054 1.125h5.271c.582 0 1.054-.504 1.054-1.125s.472-1.125 1.054-1.125h.527c.582 0 1.054.504 1.054 1.125v20.25z" fill="#eceff1"/><path d="m9.5 3.5h-4c-.965 0-1.75-.785-1.75-1.75 0-.138-.112-.25-.25-.25h-1c-.414 0-.75-.336-.75-.75s.336-.75.75-.75h1c.965 0 1.75.785 1.75 1.75 0 .138.112.25.25.25h4c.138 0 .25-.112.25-.25 0-.965.785-1.75 1.75-1.75h1c.414 0 .75.336.75.75s-.336.75-.75.75h-1c-.138 0-.25.112-.25.25 0 .965-.785 1.75-1.75 1.75z"/><path d="m23.25 22.25c-.414 0-.75-.336-.75-.75v-1c0-.138-.112-.25-.25-.25-.965 0-1.75-.785-1.75-1.75v-4c0-.965.785-1.75 1.75-1.75.138 0 .25-.112.25-.25v-1c0-.414.336-.75.75-.75s.75.336.75.75v1c0 .965-.785 1.75-1.75 1.75-.138 0-.25.112-.25.25v4c0 .138.112.25.25.25.965 0 1.75.785 1.75 1.75v1c0 .414-.336.75-.75.75z"/><path d="m12.25 24h-9.5c-1.517 0-2.75-1.233-2.75-2.75v-18.5c0-1.517 1.233-2.75 2.75-2.75h9.5c1.517 0 2.75 1.233 2.75 2.75v18.5c0 1.517-1.233 2.75-2.75 2.75zm-9.5-22.5c-.689 0-1.25.561-1.25 1.25v18.5c0 .689.561 1.25 1.25 1.25h9.5c.689 0 1.25-.561 1.25-1.25v-18.5c0-.689-.561-1.25-1.25-1.25z"/><path d="m21.25 24h-4.5c-.414 0-.75-.336-.75-.75s.336-.75.75-.75h4.5c.689 0 1.25-.561 1.25-1.25v-9.5c0-.689-.561-1.25-1.25-1.25h-4.5c-.414 0-.75-.336-.75-.75s.336-.75.75-.75h4.5c1.517 0 2.75 1.233 2.75 2.75v9.5c0 1.517-1.233 2.75-2.75 2.75z"/><path d="m21 7c-.219 0-.427-.096-.569-.262l-1.5-1.75c-.27-.314-.233-.788.081-1.058.316-.27.789-.233 1.058.081l.93 1.087.931-1.086c.269-.314.742-.352 1.058-.081.314.27.351.743.081 1.058l-1.5 1.75c-.143.165-.351.261-.57.261z"/><path d="m21 7c-.414 0-.75-.336-.75-.75v-1.25c0-1.593-1.051-2.75-2.5-2.75-.414 0-.75-.336-.75-.75s.336-.75.75-.75c2.28 0 4 1.827 4 4.25v1.25c0 .414-.336.75-.75.75z"/></svg>