<svg height="70" viewBox="0 0 70 70" width="70" xmlns="http://www.w3.org/2000/svg"><path d="m57.5 0c6.9035594 0 12.5 5.59644063 12.5 12.5 0 6.9035594-5.5964406 12.5-12.5 12.5-5.1001965 0-9.4869771-3.0544962-11.4308038-7.4339503l-22.2181065 12.1920013c.7374356 1.5942022 1.1489103 3.3700231 1.1489103 5.241949s-.4114747 3.6477468-1.1489103 5.241949l22.2181065 12.1920013c1.9438267-4.3794541 6.3306073-7.4339503 11.4308038-7.4339503 6.9035594 0 12.5 5.5964406 12.5 12.5s-5.5964406 12.5-12.5 12.5-12.5-5.5964406-12.5-12.5c0-1.0887463.1391936-2.1449822.4007559-3.1518829l-22.5311292-12.3658106c-2.2457668 3.3287072-6.0520642 5.5176935-10.3696267 5.5176935-6.90355937 0-12.5-5.5964406-12.5-12.5s5.59644063-12.5 12.5-12.5c4.3175625 0 8.1238599 2.1889863 10.3696267 5.5176935l22.5313889-12.3648111c-.2617299-1.0072012-.4010156-2.0637758-.4010156-3.1528824 0-6.90355937 5.5964406-12.5 12.5-12.5zm0 47.5c-5.5228475 0-10 4.4771525-10 10s4.4771525 10 10 10 10-4.4771525 10-10-4.4771525-10-10-10zm-45-22.5c-5.5228475 0-10 4.4771525-10 10s4.4771525 10 10 10 10-4.4771525 10-10-4.4771525-10-10-10zm45-22.5c-5.5228475 0-10 4.4771525-10 10s4.4771525 10 10 10 10-4.4771525 10-10-4.4771525-10-10-10z" fill="#135268"/></svg>