<svg width="20" height="20" viewBox="0 0 20 20" fill="none" xmlns="http://www.w3.org/2000/svg">
<path d="M18.2365 0H1.76353C0.791186 0 0 0.791186 0 1.76353V18.2365C0 19.2091 0.791186 20 1.76353 20H18.2365C19.2091 20 20 19.209 20 18.2365V1.76353C20 0.791186 19.2091 0 18.2365 0ZM1.76353 0.837634H18.2365C18.747 0.837634 19.1624 1.25294 19.1624 1.76353V6.47152H15.5853C14.4124 4.6215 12.3481 3.39003 10 3.39003C7.65187 3.39003 5.58744 4.62168 4.41465 6.47167L0.837634 6.47182V1.76382C0.837634 1.25297 1.25294 0.837634 1.76353 0.837634ZM10 4.22766C13.1829 4.22766 15.7723 6.81715 15.7723 10C15.7723 13.1828 13.1828 15.7723 10 15.7723C6.81697 15.7723 4.22766 13.1828 4.22766 10C4.22766 6.81697 6.81701 4.22766 10 4.22766ZM18.2365 19.1624H1.76353C1.25297 19.1624 0.837634 18.7471 0.837634 18.2365V7.30893H3.96457C3.59643 8.13153 3.38988 9.0418 3.38988 9.99981C3.38988 13.6446 6.35511 16.6099 9.99992 16.6099C13.6447 16.6099 16.61 13.6445 16.61 9.99981C16.61 9.04165 16.4034 8.13153 16.0353 7.30893H19.1622V18.2365C19.1622 18.7471 18.7469 19.1624 18.2363 19.1624H18.2365Z" fill="white"/>
<path d="M10 13.529C11.9455 13.529 13.5287 11.9459 13.5287 10.0003C13.5287 8.0545 11.9455 6.47168 10 6.47168C8.05416 6.47168 6.47134 8.0545 6.47134 10.0003C6.47134 11.9459 8.05416 13.529 10 13.529ZM10 7.30939C11.4838 7.30939 12.6909 8.51647 12.6909 10.0003C12.6909 11.4841 11.4838 12.6911 10 12.6911C8.51621 12.6911 7.30912 11.4841 7.30912 10.0003C7.30912 8.51647 8.51621 7.30939 10 7.30939Z" fill="white"/>
</svg>
