<svg width="107" height="46" viewBox="0 0 107 46" fill="none" xmlns="http://www.w3.org/2000/svg">
<g clip-path="url(#clip0_5877_21056)">
<path d="M22.6208 1.20502C25.4844 1.20245 28.3206 1.76415 30.9672 2.85805C33.6137 3.95195 36.0187 5.5566 38.0448 7.58032C40.071 9.60404 41.6785 12.0072 42.7756 14.6524C43.8727 17.2976 44.4378 20.133 44.4386 22.9967C44.4386 28.7768 42.1429 34.3203 38.0564 38.4081C33.9698 42.4959 28.427 44.7932 22.6469 44.7949C19.7846 44.7949 16.9504 44.2311 14.3061 43.1355C11.6618 42.04 9.25917 40.4342 7.23554 38.41C5.21191 36.3858 3.60687 33.9827 2.51212 31.3381C1.41736 28.6934 0.854341 25.859 0.855199 22.9967C0.855199 17.2172 3.15112 11.6744 7.23785 7.58765C11.3246 3.50092 16.8674 1.20502 22.6469 1.20502H22.6208ZM22.6469 0.382438C19.6749 0.372978 16.7307 0.953841 13.985 2.09133C11.2393 3.22883 8.74694 4.90029 6.6524 7.00873C4.54591 9.10337 2.87565 11.5949 1.73827 14.3392C0.600881 17.0835 0.0189311 20.0261 0.0260827 22.9967C0.0180673 25.9684 0.599621 28.9123 1.73703 31.6578C2.87444 34.4032 4.54513 36.8958 6.6524 38.9912C8.74694 41.0997 11.2393 42.7711 13.985 43.9086C16.7307 45.0461 19.6749 45.627 22.6469 45.6175C25.6186 45.6255 28.5624 45.044 31.3079 43.9066C34.0534 42.7692 36.546 41.0985 38.6414 38.9912C40.7478 36.8955 42.4175 34.4027 43.5538 31.6572C44.6901 28.9117 45.2704 25.968 45.2612 22.9967C45.2696 20.0265 44.6888 17.0841 43.5525 14.3397C42.4162 11.5954 40.747 9.10369 38.6414 7.00873C36.546 4.90146 34.0534 3.23078 31.3079 2.09337C28.5624 0.955956 25.6186 0.374423 22.6469 0.382438Z" fill="white"/>
<path d="M24.3312 21.1819H37.3227V19.3605C37.3227 18.1462 36.017 18.2376 36.017 18.2376H35.1226V15.2737H37.3292V13.6677C37.3298 13.4865 37.2928 13.3071 37.2203 13.141C37.1479 12.9749 37.0417 12.8257 36.9084 12.7029C36.7752 12.5801 36.6178 12.4864 36.4464 12.4277C36.2749 12.369 36.0931 12.3467 35.9125 12.3621H31.6887V11.0564H28.7705V12.3621H23.13V14.3206C23.13 14.3206 23.0908 15.2933 24.3769 15.2933H25.3366V18.2376H23.13V20.1112C23.1319 20.2626 23.1654 20.4119 23.2282 20.5496C23.291 20.6874 23.3817 20.8105 23.4947 20.9112C23.6077 21.0119 23.7405 21.088 23.8845 21.1346C24.0285 21.1812 24.1806 21.1973 24.3312 21.1819ZM28.2482 15.3064H32.1652V18.2507H28.2482V15.3064Z" fill="white"/>
<path d="M34.3653 36.9805V32.9459H37.3227V22.1676H23.0974V31.4575C23.0858 31.6494 23.1137 31.8416 23.1794 32.0223C23.2451 32.2029 23.3472 32.3681 23.4794 32.5077C23.6117 32.6472 23.7711 32.7582 23.948 32.8335C24.1248 32.9089 24.3152 32.9472 24.5075 32.9459H26.0352V36.987H23.1627C23.0496 38.1095 22.5376 39.1541 21.7198 39.9313H26.1592C26.5356 39.9524 26.9123 39.8934 27.2642 39.7581C27.6161 39.6229 27.9353 39.4144 28.2006 39.1466C28.466 38.8788 28.6714 38.5577 28.8034 38.2045C28.9354 37.8514 28.991 37.4742 28.9664 37.098V32.9525H31.4145V39.9313H34.2348C36.0431 39.9313 38.1518 36.987 38.1518 36.987L34.3653 36.9805ZM30.1807 30.9548C29.3012 30.955 28.456 30.6132 27.8239 30.0016H26.0547V25.1054H27.8369C28.4675 24.4915 29.3137 24.1493 30.1937 24.1522C31.0738 24.1493 31.9199 24.4915 32.5505 25.1054H34.3914V30.0016H32.5505C31.9131 30.6116 31.0629 30.9488 30.1807 30.9417V30.9548Z" fill="white"/>
<path d="M30.1349 25.001C29.7975 25.001 29.4633 25.0676 29.1516 25.1969C28.8399 25.3263 28.5568 25.5158 28.3184 25.7548C28.0801 25.9937 27.8913 26.2773 27.7628 26.5893C27.6342 26.9014 27.5685 27.2357 27.5693 27.5732C27.5693 28.2542 27.8394 28.9075 28.3204 29.3897C28.8013 29.8719 29.4539 30.1436 30.1349 30.1453C30.8171 30.1453 31.4714 29.8744 31.9538 29.392C32.4361 28.9096 32.7072 28.2554 32.7072 27.5732C32.708 27.2351 32.6421 26.9003 32.5131 26.5878C32.3842 26.2754 32.1947 25.9915 31.9557 25.7524C31.7167 25.5134 31.4328 25.324 31.1203 25.195C30.8079 25.0661 30.473 25.0001 30.1349 25.001ZM30.1349 29.3293C29.6692 29.3293 29.2225 29.1443 28.8932 28.8149C28.5638 28.4856 28.3789 28.0389 28.3789 27.5732C28.3789 27.1074 28.5638 26.6607 28.8932 26.3314C29.2225 26.0021 29.6692 25.817 30.1349 25.817C30.3661 25.8162 30.5952 25.861 30.809 25.9488C31.0228 26.0367 31.2172 26.1659 31.3809 26.3291C31.5447 26.4922 31.6746 26.6861 31.7633 26.8996C31.852 27.1131 31.8977 27.342 31.8977 27.5732C31.8977 27.8043 31.852 28.0332 31.7633 28.2467C31.6746 28.4602 31.5447 28.6541 31.3809 28.8173C31.2172 28.9804 31.0228 29.1096 30.809 29.1975C30.5952 29.2854 30.3661 29.3302 30.1349 29.3293Z" fill="white"/>
<path d="M21.8047 38.1817C22.0038 37.8075 22.1343 37.4007 22.19 36.9805H18.0314V27.0639H22.1182V25.2816C22.1382 25.1214 22.1208 24.9586 22.0673 24.8062C22.0139 24.6538 21.9257 24.5159 21.8099 24.4033C21.6942 24.2907 21.5539 24.2065 21.4001 24.1572C21.2462 24.108 21.0831 24.0951 20.9234 24.1196H18.0314V21.1818H22.19V18.12C22.1529 17.4301 21.881 16.7736 21.4196 16.2594L17.4112 12.251C17.2068 12.0469 16.9297 11.9323 16.6409 11.9323C16.352 11.9323 16.0749 12.0469 15.8705 12.251L11.849 16.2725C11.3875 16.7841 11.1157 17.4386 11.0787 18.1265V20.085C11.0787 20.6791 11.0787 21.1753 11.0787 21.1818C11.0787 21.1883 11.4312 20.8423 11.8555 20.418L15.8639 16.4096C16.0684 16.2055 16.3455 16.0908 16.6343 16.0908C16.9232 16.0908 17.2002 16.2055 17.4046 16.4096L19.2391 18.244H15.975C15.6691 18.2537 15.3682 18.3245 15.0901 18.4523C14.8121 18.5802 14.5624 18.7624 14.3559 18.9883L11.8229 21.5213H15.0871V24.1326H11.0003V25.9736C10.9839 26.126 11.0024 26.2801 11.0546 26.4242C11.1068 26.5683 11.1913 26.6985 11.3015 26.805C11.4117 26.9114 11.5448 26.9913 11.6906 27.0384C11.8364 27.0856 11.9911 27.0987 12.1428 27.0769H15.0871V36.9935H11.0003C11.0003 36.9935 11.9404 39.9378 13.6704 39.9378H19.3697C19.5299 39.9373 19.6897 39.9198 19.8462 39.8856C20.5549 39.6296 21.1648 39.1567 21.5893 38.5342L21.6285 38.4755L21.746 38.2927C21.7688 38.2575 21.7885 38.2203 21.8047 38.1817Z" fill="white"/>
<path d="M19.9964 32.9525C21.0817 32.9525 21.9615 32.0728 21.9615 30.9875C21.9615 29.9022 21.0817 29.0225 19.9964 29.0225C18.9111 29.0225 18.0314 29.9022 18.0314 30.9875C18.0314 32.0728 18.9111 32.9525 19.9964 32.9525Z" fill="white"/>
<path d="M13.1742 33.8078C13.6348 33.293 13.9065 32.6368 13.9446 31.9472V28.0302L13.1677 28.8005L11.7772 30.1976C11.3157 30.7118 11.044 31.3682 11.0069 32.0581V35.9752L11.7837 35.2048L13.1742 33.8078Z" fill="white"/>
<path d="M60.8575 22.4548H63.9585V30.0539H60.8575V22.4548Z" fill="white"/>
<path d="M65.9366 22.4548H71.1593C73.7706 22.4548 74.7042 23.3884 74.7042 24.4133C74.7042 25.4383 73.9338 26.065 72.491 26.2674C74.4495 26.4241 74.5801 27.1422 74.6127 28.1606C74.6715 29.6622 74.7629 29.8123 75.2068 29.9168V30.0147H71.8578C71.6162 29.7601 71.5248 29.3292 71.5248 28.4675C71.5248 27.1618 71.2115 26.8745 70.2192 26.8745H69.0376V30.0147H65.9301L65.9366 22.4548ZM69.044 25.6537H70.0038C71.2572 25.6537 71.5901 25.1119 71.5901 24.668C71.5901 24.0935 71.218 23.7083 69.9841 23.7083H69.044V25.6537Z" fill="white"/>
<path d="M76.5386 22.4548H81.7613C84.3727 22.4548 85.3127 23.3884 85.3127 24.4133C85.3127 25.4383 84.5358 26.065 83.0931 26.2674C85.0516 26.4241 85.1821 27.1422 85.2148 28.1606C85.2735 29.6622 85.365 29.8123 85.8089 29.9168V30.0147H82.4664C82.2248 29.7601 82.1334 29.3292 82.1334 28.4675C82.1334 27.1618 81.82 26.8745 80.8277 26.8745H79.6461V30.0147H76.5386V22.4548ZM79.6461 25.6537H80.6058C81.8592 25.6537 82.1921 25.1119 82.1921 24.668C82.1921 24.0935 81.8266 23.7083 80.5862 23.7083H79.6461V25.6537Z" fill="white"/>
<path d="M91.4821 30.1975C87.4019 30.1975 86.8469 28.6699 86.8469 26.2805C86.8469 23.8911 87.4019 22.3308 91.4821 22.3308C95.8822 22.3308 96.1238 24.1718 96.1238 26.2805C96.1238 28.3891 95.8822 30.1975 91.4821 30.1975ZM91.4821 29.0093C92.7356 29.0093 92.9183 28.3565 92.9183 26.2544C92.9183 24.1522 92.7356 23.4994 91.4821 23.4994C90.2287 23.4994 90.0785 24.1522 90.0785 26.2544C90.0785 28.3565 90.2482 28.9832 91.4429 28.9832L91.4821 29.0093Z" fill="white"/>
<path d="M97.7493 22.4548H102.972C105.583 22.4548 106.523 23.3884 106.523 24.4133C106.523 25.4383 105.747 26.065 104.304 26.2674C106.262 26.4241 106.393 27.1422 106.432 28.1606C106.484 29.6622 106.576 29.8123 107.02 29.9168V30.0147H103.677C103.436 29.7601 103.344 29.3292 103.344 28.4675C103.344 27.1618 103.031 26.8745 102.038 26.8745H100.857V30.0147H97.7559L97.7493 22.4548ZM100.85 25.6537H101.81C103.063 25.6537 103.396 25.1119 103.396 24.668C103.396 24.0935 103.031 23.7083 101.79 23.7083H100.85V25.6537Z" fill="white"/>
<path d="M49.485 31.2747L48.7213 26.3327H48.6821V31.2747H45.914V22.4548H50.4839L51.7243 31.2877L49.485 31.2747ZM55.2953 31.2747V26.3327H55.2626L54.538 31.2747H52.4881L53.6893 22.4418H58.1809V31.2747H55.2953Z" fill="white"/>
<path d="M60.6943 32.4563H68.3194V33.9056H63.7953V35.4267H68.0452V36.8695H63.7953V38.606H68.5218V40.0814H60.6877L60.6943 32.4563Z" fill="white"/>
<path d="M69.8993 32.4563H74.4691C77.5375 32.4563 78.8431 33.3703 78.8431 36.0077C78.8431 38.7627 78.236 40.0553 74.1558 40.0553H69.8993V32.4563ZM73.0068 38.7366H73.8359C75.2787 38.7366 75.7944 38.4036 75.7944 36.1252C75.7944 34.2777 75.5398 33.775 73.8946 33.775H73.0264L73.0068 38.7366Z" fill="white"/>
<path d="M80.5862 32.4563H83.6872V40.0814H80.5862V32.4563Z" fill="white"/>
<path d="M88.1069 32.4563H91.9847L95.2489 40.0553H92.037L91.5605 38.606H88.4007L87.9372 40.0553H84.7252L88.1069 32.4563ZM89.9871 33.8403L88.8968 37.222H91.1492L89.9871 33.8403Z" fill="white"/>
<path d="M45.914 31.2747H48.6821V40.0814H45.914V31.2747ZM50.843 40.0488L49.485 31.2747H51.6982L52.0833 34.0035H52.1225L52.4946 31.2747H54.538L53.2323 40.0488H50.843ZM55.2953 31.2747H58.1809V40.0814H55.2953V31.2747Z" fill="white"/>
</g>
<defs>
<clipPath id="clip0_5877_21056">
<rect width="107" height="45.2351" fill="white" transform="translate(0 0.382446)"/>
</clipPath>
</defs>
</svg>
