<svg width="34" height="32" viewBox="0 0 34 32" fill="none" xmlns="http://www.w3.org/2000/svg">
<path fill-rule="evenodd" clip-rule="evenodd" d="M29.5937 0C30.8103 0 31.9119 0.485083 32.7094 1.26942C33.5068 2.05375 34 3.13721 34 4.33384C34 5.53047 33.5068 6.6139 32.7094 7.39826C31.9119 8.18263 30.8103 8.66768 29.5937 8.66768C28.377 8.66768 27.2755 8.1826 26.478 7.39826C26.3661 7.28821 26.2599 7.17177 26.1602 7.0502L8.72275 15.1267C8.78157 15.4088 8.81247 15.701 8.81247 16C8.81247 16.299 8.78156 16.5912 8.72275 16.8733L26.1602 24.9498C26.2597 24.8282 26.3661 24.7123 26.478 24.6017C27.2755 23.8174 28.377 23.3323 29.5937 23.3323C30.8103 23.3323 31.9119 23.8174 32.7094 24.6017C33.5068 25.3861 34 26.4695 34 27.6662C34 28.8628 33.5068 29.9462 32.7094 30.7306C31.9119 31.5149 30.8103 32 29.5937 32C28.377 32 27.2755 31.5149 26.478 30.7306C25.6805 29.9462 25.1873 28.8633 25.1873 27.6664C25.1873 27.3674 25.2182 27.0752 25.2771 26.7931L7.83957 18.7166C7.74013 18.8382 7.63371 18.9541 7.52182 19.0647C6.72433 19.849 5.62278 20.3341 4.40614 20.3341C3.18949 20.3341 2.08794 19.849 1.29046 19.0647C0.493228 18.2803 0 17.1969 0 16.0003C0 14.8036 0.493196 13.7202 1.29065 12.9358C2.0881 12.1515 3.18969 11.6664 4.40633 11.6664C5.62297 11.6664 6.72452 12.1515 7.52201 12.9358C7.6339 13.0459 7.74007 13.1623 7.83976 13.2839L25.2772 5.20743C25.2182 4.92506 25.1873 4.63313 25.1873 4.33384C25.1873 3.13721 25.6805 2.05378 26.4779 1.26942C27.2754 0.485052 28.3772 0 29.5936 0H29.5937Z" fill="white"/>
</svg>
