<svg width="18" height="16" viewBox="0 0 18 16" fill="none" xmlns="http://www.w3.org/2000/svg">
<path fill-rule="evenodd" clip-rule="evenodd" d="M15.6672 0C16.3113 0 16.8945 0.242542 17.3167 0.634709C17.7389 1.02688 18 1.56861 18 2.16692C18 2.76523 17.7389 3.30695 17.3167 3.69913C16.8945 4.09131 16.3113 4.33384 15.6672 4.33384C15.0231 4.33384 14.44 4.0913 14.0178 3.69913C13.9585 3.6441 13.9023 3.58589 13.8495 3.5251L4.61793 7.56333C4.64907 7.70439 4.66542 7.85048 4.66542 8C4.66542 8.14952 4.64906 8.29561 4.61793 8.43667L13.8495 12.4749C13.9022 12.4141 13.9585 12.3561 14.0178 12.3009C14.44 11.9087 15.0231 11.6662 15.6672 11.6662C16.3113 11.6662 16.8945 11.9087 17.3167 12.3009C17.7389 12.693 18 13.2348 18 13.8331C18 14.4314 17.7389 14.9731 17.3167 15.3653C16.8945 15.7575 16.3113 16 15.6672 16C15.0231 16 14.44 15.7575 14.0178 15.3653C13.5956 14.9731 13.3345 14.4316 13.3345 13.8332C13.3345 13.6837 13.3508 13.5376 13.382 13.3965L4.15036 9.3583C4.09771 9.41909 4.04138 9.47706 3.98214 9.53234C3.55994 9.92452 2.97677 10.167 2.33266 10.167C1.68856 10.167 1.10538 9.9245 0.683184 9.53234C0.261121 9.14015 0 8.59844 0 8.00013C0 7.40181 0.261104 6.8601 0.683285 6.46791C1.10547 6.07573 1.68866 5.83321 2.33276 5.83321C2.97687 5.83321 3.56004 6.07575 3.98224 6.46791C4.04148 6.52294 4.09768 6.58116 4.15046 6.64195L13.3821 2.60372C13.3508 2.46253 13.3344 2.31657 13.3344 2.16692C13.3344 1.56861 13.5955 1.02689 14.0177 0.634709C14.4399 0.242526 15.0232 0 15.6672 0H15.6672Z" fill="white"/>
</svg>
