<svg width="27" height="40" viewBox="0 0 27 40" fill="none" xmlns="http://www.w3.org/2000/svg">
<path d="M10.7117 0C10.2381 0 9.85447 0.381121 9.85447 0.850979V5.95723C9.85447 6.4274 10.2384 6.80821 10.7117 6.80821C11.1853 6.80821 11.5689 6.42709 11.5689 5.95723V0.850979C11.5689 0.380809 11.185 0 10.7117 0ZM20.6242 5.53193C20.4705 5.52778 20.3094 5.56933 20.1419 5.65155L15.6814 8.20487C15.2715 8.43996 15.1367 8.95465 15.3735 9.36192C15.6103 9.76887 16.1288 9.90274 16.539 9.66765L20.9995 7.11433C21.4097 6.87924 21.5443 6.36455 21.3075 5.95728C21.1137 5.67025 20.8805 5.53787 20.6243 5.53163L20.6242 5.53193ZM0.759355 5.54499C0.494143 5.5723 0.275569 5.72843 0.116502 5.95728C-0.120312 6.36423 0.0145445 6.87924 0.424472 7.11434L4.88496 9.66766C5.29489 9.90275 5.81368 9.76887 6.0505 9.36193C6.28732 8.95498 6.15246 8.43998 5.74253 8.20488L1.28205 5.65156C1.09726 5.55539 0.918759 5.52897 0.759691 5.5453L0.759355 5.54499ZM10.7117 8.51054C8.82678 8.51054 7.28241 10.0437 7.28241 11.9148V22.7795C6.75139 21.6403 5.79875 20.4087 4.60335 20.1065C2.97708 19.6681 0.984856 20.9599 0.531252 22.4604C0.300125 23.2969 0.450818 24.2484 0.906198 25.4126C3.13319 30.7288 5.87533 35.832 9.21129 39.7073C9.37066 39.8893 9.61136 39.9988 9.85415 40H21.4277C21.6101 40 21.7913 39.9365 21.9366 39.8273C23.1706 38.9199 24.165 37.374 24.9906 35.5322C25.8161 33.6905 26.4482 31.5536 26.772 29.4684C27.0961 27.3832 27.0946 25.4307 26.6381 23.6973C26.1973 22.0243 25.0085 20.6319 23.2357 20.4259C22.818 20.4259 22.3767 20.4604 22.0032 20.5456C21.7834 20.0237 21.4752 19.5785 21.0925 19.309C20.4514 18.8575 19.799 18.7154 19.2706 18.724C18.7632 18.7326 18.3006 18.9157 17.8911 19.2028C17.7066 18.9234 17.517 18.6326 17.2748 18.458C16.6394 17.9997 15.9631 17.873 15.4264 17.873C14.9824 17.873 14.5524 17.9953 14.1404 18.1657V11.9157C14.1039 9.63786 12.2944 8.50702 10.7111 8.51142L10.7117 8.51054ZM10.7117 10.2125C11.6763 10.2125 12.4261 10.9569 12.4261 11.9145V19.9995C12.4205 20.3854 12.7171 20.751 13.0959 20.8371C13.4747 20.9235 13.896 20.7213 14.0605 20.3717C14.2498 19.9807 14.9632 19.5738 15.427 19.5738C15.6351 19.5738 16.0211 19.6596 16.2707 19.8398C16.5207 20.0199 16.7127 20.2307 16.7127 20.8505C16.7127 21.2289 16.9985 21.5869 17.369 21.6751C17.7397 21.7632 18.1598 21.5733 18.3336 21.2364C18.6822 20.5442 18.8688 20.4323 19.2982 20.4251C19.4169 20.421 19.8331 20.5017 20.1019 20.6911C20.3707 20.8805 20.5708 21.0983 20.5708 21.7018C20.5666 22.0333 20.7738 22.3542 21.0797 22.4863C21.3858 22.6187 21.7748 22.5545 22.0173 22.3266C22.3424 22.1675 22.6614 22.1191 23.0755 22.1271C24.0975 22.2562 24.6282 22.892 24.9909 24.1615C25.3571 25.4429 25.3706 27.2743 25.0713 29.2013C24.772 31.1282 24.1799 33.152 23.4238 34.8394C22.7146 36.4221 21.8457 37.6578 21.0797 38.2969H10.2692C7.26012 34.773 4.38641 29.3615 2.51374 24.8C2.12384 23.8036 2.08856 23.2316 2.17886 22.9119C2.4964 22.0888 3.38536 21.624 4.14812 21.7419C5.05946 22.0826 5.2855 22.6864 5.67511 23.3773L7.37647 26.7683C7.54989 27.1052 7.97029 27.2954 8.34109 27.207C8.71185 27.1188 8.9968 26.7608 8.9974 26.3823V11.9144C8.9974 10.9568 9.7473 10.2125 10.7118 10.2125L10.7117 10.2125Z" fill="white"/>
</svg>
