<?xml version="1.0" standalone="no"?>
<!DOCTYPE svg PUBLIC "-//W3C//DTD SVG 20010904//EN"
 "http://www.w3.org/TR/2001/REC-SVG-20010904/DTD/svg10.dtd">
<svg version="1.0" xmlns="http://www.w3.org/2000/svg"
 width="192.000000pt" height="192.000000pt" viewBox="0 0 192.000000 192.000000"
 preserveAspectRatio="xMidYMid meet">
<metadata>
Created by potrace 1.11, written by Peter Selinger 2001-2013
</metadata>
<g transform="translate(0.000000,192.000000) scale(0.100000,-0.100000)"
fill="#000000" stroke="none">
<path d="M870 1914 c-260 -39 -426 -118 -586 -278 -509 -509 -296 -1372 392
-1589 573 -181 1173 215 1235 815 45 446 -221 860 -648 1007 -119 40 -291 60
-393 45z m490 -484 l0 -30 104 0 c97 0 106 -2 120 -22 9 -12 16 -39 16 -60 l0
-38 -45 0 -45 0 0 -60 c0 -56 2 -60 23 -60 45 0 67 -27 67 -81 l0 -49 -280 0
c-269 0 -281 1 -301 21 -15 15 -19 30 -17 62 l3 42 48 3 47 3 0 60 0 59 -34 0
c-47 0 -66 22 -66 76 l0 44 120 0 120 0 0 30 0 30 60 0 60 0 0 -30z m-509
-107 c107 -108 123 -139 117 -236 l-3 -52 -87 -3 -88 -3 0 -59 0 -60 73 0 c43
0 78 -5 85 -12 7 -7 12 -33 12 -60 l0 -47 -82 -3 -83 -3 -3 -62 c-3 -65 4 -77
25 -44 27 43 101 33 128 -18 19 -38 11 -75 -22 -101 -35 -27 -65 -25 -102 6
l-31 26 0 -111 0 -111 89 0 90 0 -10 -30 c-6 -16 -26 -43 -45 -60 l-35 -30
-147 0 c-124 0 -150 3 -169 18 -20 16 -63 80 -63 94 0 4 37 8 83 10 l82 3 3
207 2 207 -82 3 -83 3 -3 58 -3 57 86 0 85 0 0 55 0 55 -67 0 -67 0 54 56 c67
68 101 84 182 84 l63 0 -47 46 c-46 43 -48 44 -75 30 -16 -8 -68 -55 -117
-105 -49 -50 -90 -91 -92 -91 -11 0 -2 135 10 163 17 41 197 217 222 217 10 0
62 -44 115 -97z m749 -558 l0 -224 -62 -3 -63 -3 0 -80 0 -80 88 -5 89 -5 -58
-58 -58 -57 -93 0 -93 0 0 145 0 145 -49 0 -49 0 -4 -115 c-3 -110 -4 -116
-31 -142 -26 -27 -32 -28 -148 -31 l-122 -4 22 30 c12 17 24 44 27 61 6 30 8
31 64 31 l58 0 6 38 c3 20 6 58 5 85 l-2 47 -43 0 c-31 0 -50 6 -64 20 -19 19
-20 33 -20 225 l0 205 300 0 300 0 0 -225z m-990 -225 c-6 -15 -34 -49 -61
-76 l-51 -49 4 107 3 107 55 56 55 56 3 -88 c2 -48 -2 -99 -8 -113z"/>
<path d="M1222 1218 c2 -35 6 -62 11 -60 4 1 39 2 77 2 l70 0 0 60 0 60 -80 0
-81 0 3 -62z"/>
<path d="M1235 890 c-22 -11 -54 -20 -72 -20 l-33 0 0 -106 0 -106 29 7 c20 4
39 0 62 -14 44 -27 113 -27 157 -1 18 11 46 20 62 20 l30 0 2 80 c1 44 2 88 2
98 1 13 -9 18 -39 22 -22 3 -57 13 -77 23 -48 22 -75 21 -123 -3z m143 -56
c25 -28 30 -85 9 -102 -10 -9 -12 -4 -9 21 5 41 -27 83 -68 92 -17 4 -27 11
-24 17 11 17 67 0 92 -28z m-44 -25 c45 -35 25 -109 -30 -109 -31 0 -77 56
-68 84 14 47 56 58 98 25z m-88 -100 c16 -15 37 -23 59 -23 27 0 32 -3 23 -13
-21 -26 -87 -11 -115 26 -14 18 -17 73 -5 85 4 4 8 -5 10 -22 2 -16 14 -40 28
-53z"/>
</g>
</svg>
