<svg width="21" height="16" viewBox="0 0 21 16" fill="none" xmlns="http://www.w3.org/2000/svg">
<path d="M10.5001 7.01754L18.5001 2.0117H2.50007L10.5001 7.01754ZM18.5001 13.9883V4.02339L10.5001 8.98246L2.50007 4.02339V13.9883H18.5001ZM18.5001 0C19.0303 0 19.4825 0.202729 19.8568 0.608187C20.2623 1.01365 20.465 1.48148 20.465 2.0117V13.9883C20.465 14.5185 20.2623 14.9864 19.8568 15.3918C19.4825 15.7973 19.0303 16 18.5001 16H2.50007C1.96985 16 1.50202 15.7973 1.09656 15.3918C0.722291 14.9864 0.535156 14.5185 0.535156 13.9883V2.0117C0.535156 1.48148 0.722291 1.01365 1.09656 0.608187C1.50202 0.202729 1.96985 0 2.50007 0H18.5001Z" fill="white" fill-opacity="0.3"/>
</svg>
