<svg width="16" height="16" viewBox="0 0 16 16" fill="none" xmlns="http://www.w3.org/2000/svg">
<path d="M0 5.78313C2.82731 5.78313 5.23695 6.77912 7.22892 8.77108C9.22088 10.7631 10.2169 13.1727 10.2169 16H7.27711C7.27711 14.008 6.55422 12.3052 5.10843 10.8916C3.69478 9.44578 1.99197 8.72289 0 8.72289V5.78313ZM0 0C4.40161 0 8.16064 1.5743 11.2771 4.72289C14.4257 7.83936 16 11.5984 16 16H13.1084C13.1084 12.3695 11.8233 9.28514 9.25301 6.74699C6.71486 4.17671 3.63052 2.89157 0 2.89157V0ZM0 13.7349C0 13.1245 0.208835 12.6104 0.626506 12.1928C1.07631 11.743 1.62249 11.5181 2.26506 11.5181C2.90763 11.5181 3.43775 11.7269 3.85542 12.1446C4.27309 12.5622 4.48193 13.0924 4.48193 13.7349C4.48193 14.3775 4.25703 14.9237 3.80723 15.3735C3.38956 15.7912 2.8755 16 2.26506 16C1.62249 16 1.07631 15.7912 0.626506 15.3735C0.208835 14.9237 0 14.3775 0 13.7349Z" fill="white" fill-opacity="0.3"/>
</svg>
