<svg width="20" height="21" viewBox="0 0 20 21" fill="none" xmlns="http://www.w3.org/2000/svg">
<path d="M10 20.5C11.3709 20.5 12.6583 20.239 13.8622 19.7171C15.0661 19.1952 16.1273 18.4749 17.0459 17.5564C17.9715 16.6378 18.6952 15.5765 19.2171 14.3727C19.739 13.1618 20 11.8709 20 10.5C20 9.13605 19.7356 7.85212 19.2067 6.64823C18.6848 5.43737 17.961 4.37265 17.0355 3.45407C16.1169 2.52853 15.0557 1.8048 13.8518 1.28288C12.6479 0.76096 11.3605 0.5 9.98956 0.5C8.62561 0.5 7.34168 0.76096 6.13779 1.28288C4.93389 1.8048 3.86917 2.52853 2.94363 3.45407C2.02505 4.37265 1.3048 5.43737 0.782881 6.64823C0.26096 7.85212 0 9.13605 0 10.5C0 11.8709 0.26096 13.1618 0.782881 14.3727C1.31176 15.5765 2.03549 16.6378 2.95407 17.5564C3.87265 18.4749 4.93389 19.1952 6.13779 19.7171C7.34168 20.239 8.62909 20.5 10 20.5ZM5.93946 11.2933C5.67502 11.2933 5.45929 11.2272 5.29228 11.095C5.13222 10.9558 5.05219 10.7644 5.05219 10.5209C5.05219 10.2704 5.13222 10.079 5.29228 9.94676C5.45233 9.80759 5.66806 9.738 5.93946 9.738H14.0919C14.3633 9.738 14.5755 9.80759 14.7286 9.94676C14.8817 10.079 14.9582 10.2704 14.9582 10.5209C14.9582 10.7644 14.8782 10.9558 14.7182 11.095C14.5581 11.2272 14.3493 11.2933 14.0919 11.2933H5.93946Z" fill="#9B9B9B"/>
</svg>
