<svg width="808" height="515" viewBox="0 0 808 515" fill="none" xmlns="http://www.w3.org/2000/svg">
<rect x="-17.7861" y="16.4567" width="112.803" height="112.803" transform="rotate(-45 -17.7861 16.4567)" stroke="#F5AB1C"/>
<rect x="-17.7861" y="177.203" width="112.803" height="112.803" transform="rotate(-45 -17.7861 177.203)" stroke="#F5AB1C"/>
<rect x="-17.7861" y="337.95" width="112.803" height="112.803" transform="rotate(-45 -17.7861 337.95)" stroke="#F5AB1C"/>
<rect x="96.0172" y="16.4567" width="112.803" height="112.803" transform="rotate(-45 96.0172 16.4567)" stroke="#F5AB1C"/>
<rect x="96.0172" y="177.203" width="112.803" height="112.803" transform="rotate(-45 96.0172 177.203)" stroke="#F5AB1C"/>
<rect x="96.0172" y="337.95" width="112.803" height="112.803" transform="rotate(-45 96.0172 337.95)" stroke="#F5AB1C"/>
<rect x="209.82" y="16.4567" width="112.803" height="112.803" transform="rotate(-45 209.82 16.4567)" stroke="#F5AB1C"/>
<rect x="209.82" y="177.203" width="112.803" height="112.803" transform="rotate(-45 209.82 177.203)" stroke="#F5AB1C"/>
<rect x="209.82" y="337.95" width="112.803" height="112.803" transform="rotate(-45 209.82 337.95)" stroke="#F5AB1C"/>
<rect x="323.623" y="16.4567" width="112.803" height="112.803" transform="rotate(-45 323.623 16.4567)" stroke="#F5AB1C"/>
<rect x="323.623" y="177.203" width="112.803" height="112.803" transform="rotate(-45 323.623 177.203)" stroke="#F5AB1C"/>
<rect x="323.623" y="337.95" width="112.803" height="112.803" transform="rotate(-45 323.623 337.95)" stroke="#F5AB1C"/>
<rect x="437.425" y="16.4567" width="112.803" height="112.803" transform="rotate(-45 437.425 16.4567)" stroke="#F5AB1C"/>
<rect x="437.425" y="177.203" width="112.803" height="112.803" transform="rotate(-45 437.425 177.203)" stroke="#F5AB1C"/>
<rect x="437.425" y="337.95" width="112.803" height="112.803" transform="rotate(-45 437.425 337.95)" stroke="#F5AB1C"/>
<rect x="551.228" y="16.4567" width="112.803" height="112.803" transform="rotate(-45 551.228 16.4567)" stroke="#F5AB1C"/>
<rect x="551.228" y="177.203" width="112.803" height="112.803" transform="rotate(-45 551.228 177.203)" stroke="#F5AB1C"/>
<rect x="551.228" y="337.95" width="112.803" height="112.803" transform="rotate(-45 551.228 337.95)" stroke="#F5AB1C"/>
<rect x="665.031" y="16.4567" width="112.803" height="112.803" transform="rotate(-45 665.031 16.4567)" stroke="#F5AB1C"/>
<rect x="665.031" y="177.203" width="112.803" height="112.803" transform="rotate(-45 665.031 177.203)" stroke="#F5AB1C"/>
<rect x="665.031" y="337.95" width="112.803" height="112.803" transform="rotate(-45 665.031 337.95)" stroke="#F5AB1C"/>
<rect x="-17.7861" y="498.696" width="112.803" height="112.803" transform="rotate(-45 -17.7861 498.696)" stroke="#F5AB1C"/>
<rect x="96.0172" y="498.696" width="112.803" height="112.803" transform="rotate(-45 96.0172 498.696)" stroke="#F5AB1C"/>
<rect x="209.82" y="498.696" width="112.803" height="112.803" transform="rotate(-45 209.82 498.696)" stroke="#F5AB1C"/>
<rect x="323.623" y="498.696" width="112.803" height="112.803" transform="rotate(-45 323.623 498.696)" stroke="#F5AB1C"/>
<rect x="437.425" y="498.696" width="112.803" height="112.803" transform="rotate(-45 437.425 498.696)" stroke="#F5AB1C"/>
<rect x="551.228" y="498.696" width="112.803" height="112.803" transform="rotate(-45 551.228 498.696)" stroke="#F5AB1C"/>
<rect x="665.031" y="498.696" width="112.803" height="112.803" transform="rotate(-45 665.031 498.696)" stroke="#F5AB1C"/>
</svg>
