<svg width="20" height="21" viewBox="0 0 20 21" fill="none" xmlns="http://www.w3.org/2000/svg">
<path d="M10 20.5C11.3709 20.5 12.6583 20.239 13.8622 19.7171C15.0661 19.1952 16.1273 18.4749 17.0459 17.5564C17.9715 16.6378 18.6952 15.5765 19.2171 14.3727C19.739 13.1618 20 11.8709 20 10.5C20 9.13605 19.7356 7.85212 19.2067 6.64823C18.6848 5.43737 17.961 4.37265 17.0355 3.45407C16.1169 2.52853 15.0557 1.8048 13.8518 1.28288C12.6479 0.76096 11.3605 0.5 9.98956 0.5C8.62561 0.5 7.34168 0.76096 6.13779 1.28288C4.93389 1.8048 3.86917 2.52853 2.94363 3.45407C2.02505 4.37265 1.3048 5.43737 0.782881 6.64823C0.26096 7.85212 0 9.13605 0 10.5C0 11.8709 0.26096 13.1618 0.782881 14.3727C1.31176 15.5765 2.03549 16.6378 2.95407 17.5564C3.87265 18.4749 4.93389 19.1952 6.13779 19.7171C7.34168 20.239 8.62909 20.5 10 20.5ZM6.68058 14.5814C6.47878 14.5814 6.3048 14.5084 6.15866 14.3622C6.01253 14.2161 5.93946 14.0386 5.93946 13.8299C5.93946 13.628 6.01253 13.4541 6.15866 13.3079L8.95616 10.5104L6.15866 7.73382C6.01253 7.58072 5.93946 7.40327 5.93946 7.20146C5.93946 6.99269 6.01253 6.81872 6.15866 6.67954C6.3048 6.5334 6.47878 6.46033 6.68058 6.46033C6.87543 6.46033 7.04941 6.53688 7.20251 6.68998L10 9.47704L12.8184 6.67954C12.9715 6.52644 13.1454 6.4499 13.3403 6.4499C13.5421 6.4499 13.7161 6.52296 13.8622 6.6691C14.0084 6.80828 14.0814 6.97878 14.0814 7.18058C14.0814 7.39631 14.0084 7.57724 13.8622 7.72338L11.0543 10.5104L13.8518 13.2975C13.9979 13.4367 14.071 13.6141 14.071 13.8299C14.071 14.0386 13.9979 14.2161 13.8518 14.3622C13.7056 14.5084 13.5282 14.5814 13.3194 14.5814C13.1037 14.5814 12.9262 14.5084 12.7871 14.3622L10 11.5752L7.22338 14.3622C7.07724 14.5084 6.89631 14.5814 6.68058 14.5814Z" fill="#F5431C"/>
</svg>
