<svg width="115" height="48" viewBox="0 0 115 48" fill="none" xmlns="http://www.w3.org/2000/svg">
<path d="M24.2247 0.874952C37.1152 0.874952 47.5643 11.2275 47.5643 23.999C47.5643 36.7704 37.1152 47.123 24.2247 47.123C11.3342 47.123 0.883107 36.7704 0.883107 23.999C0.883107 11.2275 11.3342 0.874952 24.2247 0.874952ZM24.2247 0C17.7548 0 11.6718 2.49637 7.09573 7.03021C2.51963 11.562 0 17.5888 0 23.999C0 30.4092 2.51963 36.4359 7.09573 40.9698C11.6718 45.5036 17.7527 48 24.2247 48C30.6967 48 36.7776 45.5036 41.3537 40.9698C45.9298 36.4359 48.4494 30.4112 48.4494 23.999C48.4494 17.5867 45.9298 11.562 41.3537 7.02817C36.7776 2.49637 30.6947 0 24.2247 0Z" fill="#5D2E7A"/>
<path d="M26.0547 22.0696H39.9683C39.9683 21.4904 39.9683 20.7684 39.9683 20.1402C39.9683 18.8472 38.5644 18.9471 38.5644 18.9471H37.6051V15.8246H39.9683V14.1155C39.9683 14.1155 40.0403 12.7021 38.4512 12.7021H33.9286V11.2867H30.777V12.7021H24.7373V14.7926C24.7373 14.7926 24.6899 15.8246 26.0712 15.8246H27.1004V18.9471H24.7373V20.9377C24.7373 20.9377 24.7146 22.0696 26.0547 22.0696ZM30.252 15.8246H34.4535V18.9471H30.252V15.8246Z" fill="#5D2E7A"/>
<path d="M36.8044 38.8364V34.5514H39.9601L39.9663 34.5453V23.1097H24.7373V32.9708C24.7373 32.9708 24.692 34.5473 26.2441 34.5473C27.7963 34.5473 27.8786 34.5473 27.8786 34.5473V38.8364H24.8073C24.6817 40.0602 24.1115 41.1533 23.2593 41.9589H24.7455C24.7455 41.9589 26.0012 41.9589 28.0227 41.9589C31.1681 41.9589 31.0323 38.9568 31.0323 38.9568V34.5535H33.6548V41.961H36.6706C38.6118 41.961 40.8514 38.8385 40.8514 38.8385H36.8064L36.8044 38.8364ZM32.3209 32.4405C31.339 32.4405 30.4497 32.055 29.7951 31.4289H27.9013L27.8889 26.2322H29.7972C30.4518 25.6061 31.341 25.2206 32.323 25.2206C33.3049 25.2206 34.1942 25.6061 34.8488 26.2322H36.8167V31.4289H34.8488C34.1942 32.055 33.3049 32.4405 32.323 32.4405H32.3209Z" fill="#5D2E7A"/>
<path d="M32.2755 26.1221C30.7543 26.1221 29.5212 27.3438 29.5212 28.851C29.5212 30.3582 30.7543 31.5799 32.2755 31.5799C33.7968 31.5799 35.0299 30.3582 35.0299 28.851C35.0299 27.3438 33.7968 26.1221 32.2755 26.1221ZM32.2755 30.7172C31.236 30.7172 30.392 29.881 30.392 28.851C30.392 27.8211 31.236 26.9848 32.2755 26.9848C33.3151 26.9848 34.1591 27.8211 34.1591 28.851C34.1591 29.881 33.3151 30.7172 32.2755 30.7172Z" fill="#5D2E7A"/>
<path d="M23.354 40.1071C23.5619 39.7196 23.7019 39.2893 23.7657 38.8365H19.311V28.3146H23.6874V26.422C23.6874 25.0147 22.407 25.1942 22.407 25.1942H19.311V22.0717H23.7636V22.0676C23.7636 22.0676 23.7636 21.5475 23.7636 20.9112V18.8146C23.7636 18.1782 23.3931 17.291 22.9381 16.8403L18.6441 12.5859C18.1912 12.1372 17.4481 12.1372 16.9931 12.5859L12.6867 16.8526C12.2338 17.3012 11.8612 18.1905 11.8612 18.8268V20.899C11.8612 21.5353 11.8653 22.0594 11.8695 22.0635C11.8736 22.0676 12.2482 21.7025 12.7032 21.2538L16.9931 17.0014C17.446 16.5507 18.1891 16.5507 18.6441 17.0014L20.61 18.9492C20.61 18.9492 18.2982 18.9492 17.1043 18.9492C16.0441 18.9492 15.3751 19.7364 15.3751 19.7364L12.662 22.4245H16.1594V25.1942H11.7851V27.1439C11.7851 27.1439 11.6595 28.3167 13.0119 28.3167H16.1594V38.8385H11.7851C11.7851 38.8385 12.7937 41.961 14.6485 41.961H14.8193C15.1322 41.961 15.2434 41.961 15.2393 41.961H20.7479C20.927 41.961 21.0978 41.9406 21.2604 41.9039C22.0242 41.6306 22.6788 41.1269 23.1296 40.4742C23.144 40.4538 23.1584 40.4334 23.1708 40.411C23.214 40.3457 23.2531 40.2784 23.2922 40.2111C23.3128 40.1765 23.3334 40.1418 23.3519 40.1071H23.354Z" fill="#5D2E7A"/>
<path d="M19.9266 30.9987C19.1052 31.8124 19.1052 33.132 19.9266 33.9457C20.7479 34.7595 22.0798 34.7595 22.9011 33.9457C23.7225 33.132 23.7225 31.8124 22.9011 30.9987C22.0798 30.1849 20.7479 30.1849 19.9266 30.9987Z" fill="#5D2E7A"/>
<path d="M14.111 35.4652C14.5639 35.0165 14.9365 34.1273 14.9365 33.491V30.5092C14.9365 29.8728 14.9365 29.3528 14.9324 29.3528C14.9283 29.3528 14.5577 29.7199 14.1049 30.1706L12.6104 31.6513C12.1575 32.1 11.7849 32.9892 11.7849 33.6256V36.6073C11.7849 37.2437 11.7849 37.7637 11.789 37.7637C11.7931 37.7637 12.1637 37.3966 12.6186 36.9459L14.111 35.4672V35.4652Z" fill="#5D2E7A"/>
<path d="M64.998 34.0334H73.1683V35.5692H68.3226V37.1844H72.8719V38.7202H68.3226V40.5598H73.3865V42.0956H64.998V34.0334Z" fill="#5D2E7A"/>
<path d="M74.8893 34.0334H79.8153C83.0987 34.0334 84.5026 35.0042 84.5026 37.8045C84.5026 40.6047 83.85 42.0956 79.4777 42.0956H74.8872V34.0334H74.8893ZM78.2138 40.6965H79.1031C80.647 40.6965 81.1801 40.3457 81.1801 37.9309C81.1801 35.9669 80.9022 35.4345 79.1422 35.4345H78.2117V40.6965H78.2138Z" fill="#5D2E7A"/>
<path d="M86.3037 34.0334H89.6262V42.0956H86.3037V34.0334Z" fill="#5D2E7A"/>
<path d="M94.3569 34.0334H98.511L102.031 42.0956H98.5893L98.0746 40.5598H94.6925L94.1984 42.0956H90.7566L94.3569 34.0334ZM96.3743 35.5019H96.3352L95.168 39.0914H97.5826L96.3764 35.5019H96.3743Z" fill="#5D2E7A"/>
<path d="M65.177 23.4197H68.4994V31.4819H65.177V23.4197Z" fill="#5D2E7A"/>
<path d="M70.6177 23.4198H76.1963C79.0247 23.4198 79.9943 24.413 79.9943 25.5205C79.9943 26.6952 79.1626 27.2704 77.6208 27.4845V27.5069C79.7369 27.6762 79.8563 28.4329 79.8954 29.5159C79.9551 31.1087 80.054 31.2658 80.5295 31.38V31.482H76.9497C76.6924 31.2107 76.5936 30.76 76.5936 29.8442C76.5936 28.4431 76.258 28.1494 75.2082 28.1494H73.9422V31.4799H70.6197V23.4177L70.6177 23.4198ZM73.9401 26.8176H74.9694C76.3136 26.8176 76.6697 26.2424 76.6697 25.7672C76.6697 25.1574 76.2745 24.7516 74.9488 24.7516H73.9401V26.8176Z" fill="#5D2E7A"/>
<path d="M81.9724 23.4198H87.551C90.3794 23.4198 91.349 24.413 91.349 25.5205C91.349 26.6952 90.5173 27.2704 88.9755 27.4845V27.5069C91.0917 27.6762 91.2111 28.4329 91.2502 29.5159C91.3099 31.1087 91.4087 31.2658 91.8842 31.38V31.482H88.3044C88.0471 31.2107 87.9483 30.76 87.9483 29.8442C87.9483 28.4431 87.6128 28.1494 86.5629 28.1494H85.2969V31.4799H81.9745V23.4177L81.9724 23.4198ZM85.2949 26.8176H86.3241C87.6683 26.8176 88.0245 26.2424 88.0245 25.7672C88.0245 25.1574 87.6292 24.7516 86.3035 24.7516H85.2949V26.8176Z" fill="#5D2E7A"/>
<path d="M97.9754 31.641C93.6031 31.641 93.0103 30.0155 93.0103 27.4519C93.0103 24.8882 93.6031 23.2627 97.9754 23.2627C102.683 23.2627 102.941 25.2166 102.941 27.4519C102.941 29.6872 102.683 31.641 97.9754 31.641ZM97.9569 30.3765C99.3011 30.3765 99.4987 29.6647 99.4987 27.4519C99.4987 25.239 99.3011 24.5272 97.9569 24.5272C96.6127 24.5272 96.4542 25.239 96.4542 27.4519C96.4542 29.6647 96.6518 30.3765 97.9569 30.3765Z" fill="#5D2E7A"/>
<path d="M104.682 23.4198H110.261C113.089 23.4198 114.059 24.413 114.059 25.5205C114.059 26.6952 113.229 27.2704 111.685 27.4845V27.5069C113.804 27.6762 113.921 28.4329 113.96 29.5159C114.02 31.1087 114.119 31.2658 114.592 31.38V31.482H111.012C110.755 31.2107 110.656 30.76 110.656 29.8442C110.656 28.4431 110.321 28.1494 109.271 28.1494H108.005V31.4799H104.68V23.4177L104.682 23.4198ZM108.007 26.8176H109.036C110.38 26.8176 110.736 26.2424 110.736 25.7672C110.736 25.1574 110.341 24.7516 109.015 24.7516H108.007V26.8176Z" fill="#5D2E7A"/>
<path d="M52.9967 32.7771L52.1774 27.5396H52.1383V32.7771H49.1699V23.4055H54.0363L55.3661 32.7771H52.9967ZM59.2196 32.7771V27.5396H59.1805L58.4045 32.7771H56.2142L57.4987 23.4055H62.3054V32.7771H59.2196Z" fill="#5D2E7A"/>
<path d="M49.1699 32.7771H52.1383V42.0895H49.1699V32.7771ZM54.4521 42.0895L52.9967 32.7771H55.3661L55.7778 35.6793H55.8169L56.2142 32.7771H58.4045L57.0232 42.0895H54.4521ZM59.2196 32.7771H62.3054V42.0895H59.2196V32.7771Z" fill="#5D2E7A"/>
</svg>
