<svg width="952" height="501" viewBox="0 0 952 501" fill="none" xmlns="http://www.w3.org/2000/svg">
<g opacity="0.5">
<mask id="mask0_52_6165" style="mask-type:alpha" maskUnits="userSpaceOnUse" x="0" y="0" width="953" height="547">
<rect width="952.37" height="547" fill="#F0EAE3"/>
</mask>
<g mask="url(#mask0_52_6165)">
<rect x="0.707107" y="43.281" width="60.2087" height="60.2087" transform="rotate(-45 0.707107 43.281)" stroke="white"/>
<rect x="87.2694" y="43.281" width="60.2087" height="60.2087" transform="rotate(-45 87.2694 43.281)" stroke="white"/>
<rect x="173.831" y="43.281" width="60.2087" height="60.2087" transform="rotate(-45 173.831 43.281)" stroke="white"/>
<rect x="260.393" y="43.281" width="60.2087" height="60.2087" transform="rotate(-45 260.393 43.281)" stroke="white"/>
<rect x="346.955" y="43.281" width="60.2087" height="60.2087" transform="rotate(-45 346.955 43.281)" stroke="white"/>
<rect x="433.517" y="43.281" width="60.2087" height="60.2087" transform="rotate(-45 433.517 43.281)" stroke="white"/>
<rect x="519.961" y="43.281" width="60.2087" height="60.2087" transform="rotate(-45 519.961 43.281)" stroke="white"/>
<rect x="606.523" y="43.281" width="60.2087" height="60.2087" transform="rotate(-45 606.523 43.281)" stroke="white"/>
<rect x="693.085" y="43.281" width="60.2087" height="60.2087" transform="rotate(-45 693.085 43.281)" stroke="white"/>
<rect x="779.647" y="43.281" width="60.2087" height="60.2087" transform="rotate(-45 779.647 43.281)" stroke="white"/>
<rect x="866.209" y="43.281" width="60.2087" height="60.2087" transform="rotate(-45 866.209 43.281)" stroke="white"/>
<rect x="0.707107" y="129.993" width="60.2087" height="60.2087" transform="rotate(-45 0.707107 129.993)" stroke="white"/>
<rect x="87.2694" y="129.993" width="60.2087" height="60.2087" transform="rotate(-45 87.2694 129.993)" stroke="white"/>
<rect x="173.831" y="129.993" width="60.2087" height="60.2087" transform="rotate(-45 173.831 129.993)" stroke="white"/>
<rect x="260.393" y="129.993" width="60.2087" height="60.2087" transform="rotate(-45 260.393 129.993)" stroke="white"/>
<rect x="346.955" y="129.993" width="60.2087" height="60.2087" transform="rotate(-45 346.955 129.993)" stroke="white"/>
<rect x="433.517" y="129.993" width="60.2087" height="60.2087" transform="rotate(-45 433.517 129.993)" stroke="white"/>
<rect x="519.961" y="129.993" width="60.2087" height="60.2087" transform="rotate(-45 519.961 129.993)" stroke="white"/>
<rect x="606.523" y="129.993" width="60.2087" height="60.2087" transform="rotate(-45 606.523 129.993)" stroke="white"/>
<rect x="693.085" y="129.993" width="60.2087" height="60.2087" transform="rotate(-45 693.085 129.993)" stroke="white"/>
<rect x="779.647" y="129.993" width="60.2087" height="60.2087" transform="rotate(-45 779.647 129.993)" stroke="white"/>
<rect x="866.209" y="129.993" width="60.2087" height="60.2087" transform="rotate(-45 866.209 129.993)" stroke="white"/>
<rect x="0.707107" y="216.706" width="60.2087" height="60.2087" transform="rotate(-45 0.707107 216.706)" stroke="white"/>
<rect x="87.2694" y="216.706" width="60.2087" height="60.2087" transform="rotate(-45 87.2694 216.706)" stroke="white"/>
<rect x="173.831" y="216.706" width="60.2087" height="60.2087" transform="rotate(-45 173.831 216.706)" stroke="white"/>
<rect x="260.393" y="216.706" width="60.2087" height="60.2087" transform="rotate(-45 260.393 216.706)" stroke="white"/>
<rect x="346.955" y="216.706" width="60.2087" height="60.2087" transform="rotate(-45 346.955 216.706)" stroke="white"/>
<rect x="433.517" y="216.706" width="60.2087" height="60.2087" transform="rotate(-45 433.517 216.706)" stroke="white"/>
<rect x="519.961" y="216.706" width="60.2087" height="60.2087" transform="rotate(-45 519.961 216.706)" stroke="white"/>
<rect x="606.523" y="216.706" width="60.2087" height="60.2087" transform="rotate(-45 606.523 216.706)" stroke="white"/>
<rect x="693.085" y="216.706" width="60.2087" height="60.2087" transform="rotate(-45 693.085 216.706)" stroke="white"/>
<rect x="779.647" y="216.706" width="60.2087" height="60.2087" transform="rotate(-45 779.647 216.706)" stroke="white"/>
<rect x="866.209" y="216.706" width="60.2087" height="60.2087" transform="rotate(-45 866.209 216.706)" stroke="white"/>
<rect x="0.707107" y="303.418" width="60.2087" height="60.2087" transform="rotate(-45 0.707107 303.418)" stroke="white"/>
<rect x="87.2694" y="303.418" width="60.2087" height="60.2087" transform="rotate(-45 87.2694 303.418)" stroke="white"/>
<rect x="173.831" y="303.418" width="60.2087" height="60.2087" transform="rotate(-45 173.831 303.418)" stroke="white"/>
<rect x="260.393" y="303.418" width="60.2087" height="60.2087" transform="rotate(-45 260.393 303.418)" stroke="white"/>
<rect x="346.955" y="303.418" width="60.2087" height="60.2087" transform="rotate(-45 346.955 303.418)" stroke="white"/>
<rect x="433.517" y="303.418" width="60.2087" height="60.2087" transform="rotate(-45 433.517 303.418)" stroke="white"/>
<rect x="519.961" y="303.418" width="60.2087" height="60.2087" transform="rotate(-45 519.961 303.418)" stroke="white"/>
<rect x="606.523" y="303.418" width="60.2087" height="60.2087" transform="rotate(-45 606.523 303.418)" stroke="white"/>
<rect x="693.085" y="303.418" width="60.2087" height="60.2087" transform="rotate(-45 693.085 303.418)" stroke="white"/>
<rect x="779.647" y="303.418" width="60.2087" height="60.2087" transform="rotate(-45 779.647 303.418)" stroke="white"/>
<rect x="866.209" y="303.418" width="60.2087" height="60.2087" transform="rotate(-45 866.209 303.418)" stroke="white"/>
<rect x="0.707107" y="390.13" width="60.2087" height="60.2087" transform="rotate(-45 0.707107 390.13)" stroke="white"/>
<rect x="87.2694" y="390.13" width="60.2087" height="60.2087" transform="rotate(-45 87.2694 390.13)" stroke="white"/>
<rect x="173.831" y="390.13" width="60.2087" height="60.2087" transform="rotate(-45 173.831 390.13)" stroke="white"/>
<rect x="260.393" y="390.13" width="60.2087" height="60.2087" transform="rotate(-45 260.393 390.13)" stroke="white"/>
<rect x="346.955" y="390.13" width="60.2087" height="60.2087" transform="rotate(-45 346.955 390.13)" stroke="white"/>
<rect x="433.517" y="390.13" width="60.2087" height="60.2087" transform="rotate(-45 433.517 390.13)" stroke="white"/>
<rect x="519.961" y="390.13" width="60.2087" height="60.2087" transform="rotate(-45 519.961 390.13)" stroke="white"/>
<rect x="606.523" y="390.13" width="60.2087" height="60.2087" transform="rotate(-45 606.523 390.13)" stroke="white"/>
<rect x="693.085" y="390.13" width="60.2087" height="60.2087" transform="rotate(-45 693.085 390.13)" stroke="white"/>
<rect x="779.647" y="390.13" width="60.2087" height="60.2087" transform="rotate(-45 779.647 390.13)" stroke="white"/>
<rect x="866.209" y="390.13" width="60.2087" height="60.2087" transform="rotate(-45 866.209 390.13)" stroke="white"/>
<rect x="0.707107" y="476.842" width="60.2087" height="60.2087" transform="rotate(-45 0.707107 476.842)" stroke="white"/>
<rect x="87.2694" y="476.842" width="60.2087" height="60.2087" transform="rotate(-45 87.2694 476.842)" stroke="white"/>
<rect x="173.831" y="476.842" width="60.2087" height="60.2087" transform="rotate(-45 173.831 476.842)" stroke="white"/>
<rect x="260.393" y="476.842" width="60.2087" height="60.2087" transform="rotate(-45 260.393 476.842)" stroke="white"/>
<rect x="346.955" y="476.842" width="60.2087" height="60.2087" transform="rotate(-45 346.955 476.842)" stroke="white"/>
<rect x="433.517" y="476.842" width="60.2087" height="60.2087" transform="rotate(-45 433.517 476.842)" stroke="white"/>
<rect x="519.961" y="476.842" width="60.2087" height="60.2087" transform="rotate(-45 519.961 476.842)" stroke="white"/>
<rect x="606.523" y="476.842" width="60.2087" height="60.2087" transform="rotate(-45 606.523 476.842)" stroke="white"/>
<rect x="693.085" y="476.842" width="60.2087" height="60.2087" transform="rotate(-45 693.085 476.842)" stroke="white"/>
<rect x="779.647" y="476.842" width="60.2087" height="60.2087" transform="rotate(-45 779.647 476.842)" stroke="white"/>
<rect x="866.209" y="476.842" width="60.2087" height="60.2087" transform="rotate(-45 866.209 476.842)" stroke="white"/>
</g>
</g>
</svg>
