<svg width="40" height="40" viewBox="0 0 40 40" fill="none" xmlns="http://www.w3.org/2000/svg">
<path fill-rule="evenodd" clip-rule="evenodd" d="M32.381 12.2381C34.932 12.2381 37 10.1701 37 7.61905C37 5.06802 34.932 3 32.381 3C29.8299 3 27.7619 5.06802 27.7619 7.61905C27.7619 10.1701 29.8299 12.2381 32.381 12.2381ZM32.381 15.2381C36.5888 15.2381 40 11.8269 40 7.61905C40 3.41116 36.5888 0 32.381 0C28.1731 0 24.7619 3.41116 24.7619 7.61905C24.7619 8.46146 24.8986 9.27194 25.1511 10.0295L14.0038 15.8409C12.6441 13.7577 10.2923 12.381 7.61905 12.381C3.41116 12.381 0 15.7921 0 20C0 24.2079 3.41116 27.619 7.61905 27.619C10.4179 27.619 12.8642 26.1099 14.1888 23.861L25.0919 30.156C24.8773 30.8598 24.7619 31.6069 24.7619 32.381C24.7619 36.5888 28.1731 40 32.381 40C36.5888 40 40 36.5888 40 32.381C40 28.1731 36.5888 24.7619 32.381 24.7619C29.9711 24.7619 27.8225 25.8807 26.4264 27.6273L15.1563 21.1205C15.2102 20.7548 15.2381 20.3807 15.2381 20C15.2381 19.4854 15.1871 18.9828 15.0899 18.4968L26.5494 12.5226C27.947 14.183 30.0408 15.2381 32.381 15.2381ZM32.381 37C34.932 37 37 34.932 37 32.381C37 29.8299 34.932 27.7619 32.381 27.7619C29.8299 27.7619 27.7619 29.8299 27.7619 32.381C27.7619 34.932 29.8299 37 32.381 37ZM12.2381 20C12.2381 22.551 10.1701 24.619 7.61905 24.619C5.06802 24.619 3 22.551 3 20C3 17.449 5.06802 15.381 7.61905 15.381C10.1701 15.381 12.2381 17.449 12.2381 20Z" fill="#5D2E7A"/>
</svg>
