<svg width="20" height="21" viewBox="0 0 20 21" fill="none" xmlns="http://www.w3.org/2000/svg">
<path d="M10 20.5C11.3709 20.5 12.6583 20.239 13.8622 19.7171C15.0661 19.1952 16.1273 18.4749 17.0459 17.5564C17.9715 16.6378 18.6952 15.5765 19.2171 14.3727C19.739 13.1618 20 11.8709 20 10.5C20 9.13605 19.7356 7.85212 19.2067 6.64823C18.6848 5.43737 17.961 4.37265 17.0355 3.45407C16.1169 2.52853 15.0557 1.8048 13.8518 1.28288C12.6479 0.76096 11.3605 0.5 9.98956 0.5C8.62561 0.5 7.34168 0.76096 6.13779 1.28288C4.93389 1.8048 3.86917 2.52853 2.94363 3.45407C2.02505 4.37265 1.3048 5.43737 0.782881 6.64823C0.26096 7.85212 0 9.13605 0 10.5C0 11.8709 0.26096 13.1618 0.782881 14.3727C1.31176 15.5765 2.03549 16.6378 2.95407 17.5564C3.87265 18.4749 4.93389 19.1952 6.13779 19.7171C7.34168 20.239 8.62909 20.5 10 20.5ZM8.9144 15.3017C8.75435 15.3017 8.61169 15.2669 8.48643 15.1973C8.36117 15.1277 8.23939 15.0198 8.12109 14.8737L5.56367 11.7526C5.41754 11.5717 5.34447 11.3803 5.34447 11.1785C5.34447 10.9697 5.41406 10.7958 5.55324 10.6566C5.69241 10.5104 5.86291 10.4374 6.06472 10.4374C6.18998 10.4374 6.3048 10.4652 6.40919 10.5209C6.52053 10.5696 6.62839 10.667 6.73278 10.8132L8.87265 13.5063L13.215 6.56472C13.382 6.29332 13.5943 6.15762 13.8518 6.15762C14.0466 6.15762 14.2206 6.22025 14.3737 6.34551C14.5268 6.47077 14.6033 6.63779 14.6033 6.84656C14.6033 6.94398 14.579 7.04489 14.5303 7.14927C14.4885 7.24669 14.4398 7.34064 14.3841 7.43111L9.65553 14.8737C9.46764 15.159 9.2206 15.3017 8.9144 15.3017Z" fill="#18B958"/>
</svg>
