<svg height="82" viewBox="0 0 99 82" width="99" xmlns="http://www.w3.org/2000/svg"><path d="m1361.20527 797.220518h-40.01883v4.036625c0 1.104569-.89543 2-2 2h-4.23917c-1.10457 0-2-.895431-2-2v-4.036625h-8.59322c-1.10457 0-2 .895431-2 2v59.257143c0 1.10457.89543 2 2 2h73.68361c1.10457 0 2-.89543 2-2v-14.220518h2.35405v16.742857c0 1.104569-.89543 2-2 2h-78.39171c-1.10457 0-2-.895431-2-2v-63.942857c0-1.10457.89543-2 2-2h10.94727v-12.057143c0-1.104569.89543-2 2-2h4.23917c1.10457 0 2 .895431 2 2v12.057143h40.01883v-12.057143c0-1.104569.89543-2 2-2h4.23917c1.10457 0 2 .895431 2 2v12.057143h10.94727c1.10457 0 2 .89543 2 2v16.742857h-2.35405v-14.579482c0-1.104569-.89543-2-2-2h-8.59322v4.036625c0 1.104569-.89543 2-2 2h-4.23917c-1.10457 0-2-.895431-2-2zm-58.85122 10.722339h77.68361v2.342857h-77.68361zm14.7128-24.6c-.97507 0-1.76553.790458-1.76553 1.765537v14.040355c0 .975079.79046 1.765537 1.76553 1.765537.97508 0 1.76554-.790458 1.76554-1.765537v-14.040355c0-.975079-.79046-1.765537-1.76554-1.765537zm48.25801 0c-.97508 0-1.76554.790458-1.76554 1.765537v14.040355c0 .975079.79046 1.765537 1.76554 1.765537s1.76553-.790458 1.76553-1.765537v-14.040355c0-.975079-.79045-1.765537-1.76553-1.765537zm28.99753 30.457143 4.67761 5.910999-28.04619 28.528146-4.67761-5.910999zm-33.11712 39.063375 3.16996-8.606232 4.71485 5.93413zm-51.96892-28.655375h2.46516v-.88h-2.67326v-5.936h6.65913v5.936h-2.65725v.88h2.43315v1.2h-2.43315v.928h2.80132v1.344h-6.96328v-1.344h2.83334v-.928h-2.46516zm-.08004 4.112 1.16855.144c-.06403 1.184-.24011 2.24-.49623 3.168l-1.23258-.368c.30414-.864.49623-1.84.56026-2.944zm2.7693.096c.11205.704.19209 1.68.24011 2.912l-1.23258.144c-.03201-1.248-.06403-2.224-.11205-2.912zm3.37759-.288c.28814.896.51224 1.728.67232 2.496l-1.10452.4c-.17608-.896-.38418-1.76-.6403-2.592zm-1.6968.208c.2081.816.40019 1.712.56027 2.672l-1.21658.272c-.12806-1.024-.27212-1.936-.4322-2.72zm.88042-6.16v-3.632h-1.60076v3.632zm-2.68927 0v-3.632h-1.55273v3.632zm1.66479-3.184.83239.224c-.09605.864-.24012 1.696-.46422 2.496l-.80038-.272c.19209-.768.33616-1.584.43221-2.448zm-2.36912.16c.22411.672.4162 1.44.57627 2.336l-.78437.208c-.16007-.8-.35216-1.568-.57627-2.304zm7.52354-2.192h1.47269v2.832h3.28155v1.392h-3.28155v2.56h2.64125v7.904h-1.42467v-.784h-3.44162v.784h-1.44068v-7.904h2.19303zm-.75235 12.528h3.44162v-4.368h-3.44162zm14.32674-5.296v1.552c-.86441.288-1.77684.544-2.73729.8v3.344c0 1.024-.54426 1.552-1.61676 1.552h-1.79284l-.33616-1.456c.56026.064 1.08851.096 1.60075.096.40019 0 .60829-.192.60829-.576v-2.608c-.96045.208-1.93691.4-2.9614.56l-.20809-1.52c1.10452-.176 2.16101-.368 3.16949-.576v-2.864h-3.16949v-1.456h3.16949v-1.696c-.80038.16-1.61676.288-2.46516.416l-.32015-1.44c2.24105-.24 4.22599-.704 5.9548-1.408l.52825 1.424c-.68833.24-1.40867.464-2.16102.672v2.032h3.45763c-.09605-1.248-.14407-2.624-.14407-4.128h1.53672c0 1.568.04803 2.944.14407 4.128h4.83428v1.456h-4.70622c.09605 1.056.24011 1.936.4322 2.64.06403.304.14407.576.22411.832.68832-.832 1.29661-1.776 1.80885-2.832l1.31262.688c-.72034 1.472-1.56874 2.736-2.56121 3.792.19209.432.36818.8.56027 1.088.48022.72.8484 1.088 1.10452 1.088.20809 0 .41619-.832.62429-2.496l1.34463.704c-.40018 2.272-.99246 3.424-1.76083 3.424-.68832 0-1.40866-.48-2.16101-1.424-.30415-.384-.57627-.816-.81639-1.328-1.10452.928-2.3371 1.664-3.71374 2.192l-.8484-1.312c1.5047-.544 2.81732-1.328 3.93785-2.352-.19209-.528-.35217-1.072-.49623-1.648-.22411-.864-.40019-1.888-.52825-3.056h-3.58569v2.512c.96045-.256 1.87288-.528 2.73729-.816zm3.87382-7.136c1.13654.72 2.09699 1.44 2.89736 2.16l-1.10451 1.088c-.67232-.704-1.60076-1.456-2.81733-2.272zm-23.22693 24.752c-1.02448.448-2.129.848-3.31356 1.184l-.76836-1.184c2.91337-.768 5.15443-1.76 6.73917-2.96h1.20057c1.29661 1.12 3.50565 2.096 6.64312 2.96l-.76836 1.184c-1.29661-.368-2.43314-.768-3.42561-1.216v.448h-6.30697zm5.0904-.64c-.72034-.4-1.32863-.816-1.84087-1.264-.60829.464-1.26459.88-1.96893 1.264zm-6.81921 1.712h9.76459v2.896h-9.76459zm8.32391 1.856v-.8h-6.88323v.8zm1.6808 1.312.59227 1.04c-1.37664.192-2.96139.352-4.77024.448v.816h4.96233v1.088h-4.96233v.752h6.08286v1.216h-6.08286v.768c0 .96-.54426 1.44-1.61676 1.44h-1.92091l-.30414-1.296c.6243.064 1.21657.096 1.76083.096.38418 0 .59228-.192.59228-.56v-.448h-6.43503v-1.216h6.43503v-.752h-5.15443v-1.088h5.15443v-.752c-1.47269.064-3.07345.096-4.80226.096l-.38418-1.136c4.29002 0 7.90772-.176 10.85311-.512zm6.13088-7.312 1.4887.128c-.17608 1.056-.35216 2.032-.52825 2.944h2.67326v.832c-.11205 2.496-.60829 4.672-1.47269 6.528.89642.688 1.61676 1.312 2.16101 1.856l-1.04048 1.2c-.51225-.528-1.13654-1.104-1.84087-1.712-.78437 1.248-1.76083 2.336-2.92938 3.232l-1.04049-1.28c1.13654-.816 2.06497-1.792 2.78531-2.928-.73635-.592-1.53672-1.2-2.40113-1.84.48023-1.376.89642-2.848 1.2806-4.432h-1.53672v-1.456h1.85687c.1921-.992.38419-2.016.54426-3.072zm.94445 9.52c.67231-1.472 1.0725-3.136 1.20056-4.992h-1.4887c-.36817 1.568-.75235 2.896-1.13654 3.968.51225.352.99247.704 1.42468 1.024zm3.07344-2.784h3.47364v-1.84c.80037-.72 1.58474-1.584 2.32109-2.576h-5.34652v-1.472h7.09134v1.472c-.75235 1.072-1.60075 2.08-2.5452 3.04v1.376h3.12147v1.472h-3.12147v4.752c0 1.184-.46422 1.776-1.36064 1.776h-2.36911l-.40019-1.44c.65631 0 1.37665.016 2.14501.016.30414 0 .46422-.272.46422-.816v-4.288h-3.47364zm15.03107-5.52h2.20904v-1.024h1.37665v1.024h1.24859v-1.024h1.37665v1.024h2.19303v5.12h-8.40396zm7.07533 3.92v-.88h-1.08851v.88zm-2.32109 0v-.88h-1.08851v.88zm-2.35311 0v-.88h-1.10451v.88zm-1.10451-1.888h1.10451v-.816h-1.10451zm2.36911-.816v.816h1.08851v-.816zm2.32109 0v.816h1.08851v-.816zm-6.33898 4.512h9.02825v1.232h-8.93221l.01601.016-.83239 1.28c-.38418-.448-.75235-.848-1.10452-1.184v6.528h-1.50471v-6.176c-.48022.56-.99246 1.12-1.53672 1.664l-.46422-1.6c1.68079-1.712 2.81733-3.376 3.3936-5.008h-3.08946v-1.456h1.76083c-.2241-.624-.48022-1.232-.76836-1.824l1.45669-.416c.32015.816.57627 1.568.76836 2.24h1.36064v1.28c-.30414 1.024-.76836 2.048-1.37665 3.04v.064c.65631.432 1.2646.912 1.82486 1.456zm.67232 1.872h7.68361v3.312h-.99247l-.49623 1.072h2.48117v1.312h-9.74859v-1.312h2.60923l-.44821-1.072h-1.08851zm3.00941 4.384h1.71281l.48022-1.072h-2.64124zm3.31356-2.256v-.96h-4.94633v.96z" fill="#d8d8d8" fill-opacity=".7" transform="translate(-1300 -781)"/></svg>