<svg height="62" viewBox="0 0 62 62" width="62" xmlns="http://www.w3.org/2000/svg"><g fill="none" fill-rule="evenodd" opacity=".7" transform="translate(1 1)"><g fill="#fff"><path d="m30.1346939.26938776c-16.4941531 0-29.86530614 13.37115304-29.86530614 29.86530614s13.37115304 29.8653061 29.86530614 29.8653061 29.8653061-13.371153 29.8653061-29.8653061c-.0202404-16.485762-13.3795441-29.84506578-29.8653061-29.86530614zm0 58.73877554c-15.9463768 0-28.87346941-12.9270926-28.87346941-28.8734694s12.92709261-28.87346941 28.87346941-28.87346941 28.8734694 12.92709261 28.8734694 28.87346941c-.0168725 15.9393828-12.9340866 28.8565969-28.8734694 28.8734694z" fill-rule="nonzero"/><path d="m17.9204082 44.0816327c.5968905-.6650312.9489469-1.5138543.9979591-2.4061225v-3.6061224c0-.7775511 0-1.4081633 0-1.4081633l-.9979591.9979592-1.8061225 1.8061224c-.5968905.6650311-.948947 1.5138543-.9979592 2.4061225v3.6306122 1.4081633l1.0040817-.9918368z"/><circle cx="26.744893" cy="40.460977" r="2.540816" transform="matrix(.70710678 -.70710678 .70710678 .70710678 -20.776833 30.762241)"/><path d="m29.0877551 49.7693878c.2559172-.4828062.423843-1.007315.4959184-1.5489796h-5.3816327v-12.8571429h5.2836735v-2.3020408c.0562469-.4215157-.090797-.8447229-.3962866-1.1405527s-.7332015-.4292044-1.152693-.3594473h-3.7346939v-3.777551h5.3755102s0-.6122449 0-1.4081633v-2.5653061c-.0527662-.8829674-.4022732-1.7222158-.9918367-2.3816327l-5.1857143-5.1857143c-.551831-.5495296-1.4440874-.5495296-1.9959184 0l-5.1979592 5.1857143c-.5968905.6650311-.9489469 1.5138543-.9979591 2.4061225v2.4918367 1.4204082c0 .0061224.4591836-.4408164 1.0040816-.9857143l5.2163265-5.1612245c.551831-.5495296 1.4440874-.5495296 1.9959184 0l2.3755102 2.3755102h-4.2612245c-.7972235.0250965-1.5503367.3718378-2.0877551.9612245l-3.2755102 3.2755102h4.2244898v3.3734694h-5.2897959v2.3755102c-.0417801.3996754.1030384.7962923.3925235 1.0750115.2894851.2787191.6913033.4084093 1.0891091.3515191h3.8020409v12.8571429h-5.2836735s1.2244898 3.8081632 3.4591837 3.8081632h7.3469387c.2059114-.0003373.4111838-.0229172.6122449-.0673469.931176-.3361734 1.7310654-.9602158 2.2836735-1.7816327l.0489796-.0734694c.055102-.0795918.0979592-.1591836.1469388-.2448979z"/><path d="m45.3061224 42.9979592h3.8204082v-13.9469388h-18.3673469v12.0183674s-.0551021 1.9224489 1.8367347 1.9224489h1.977551v5.2285715h-3.7346939c-.1460086 1.4556721-.8084411 2.8109438-1.8673469 3.8204081h5.7489796c3.7959183 0 3.6306122-3.6734694 3.6306122-3.6734694v-5.3693877h3.1653061v9.0428571h3.6428572c2.3510204 0 5.0448979-3.8204081 5.0448979-3.8204081h-4.8979592zm-2.3387755-3.8142857c-1.7040712 1.6579926-4.4183777 1.6579926-6.1224489 0h-2.2653062v-6.3367347h2.3020409c1.7040712-1.6579926 4.4183777-1.6579926 6.1224489 0h2.3755102v6.3367347z" fill-rule="nonzero"/><path d="m32.344898 27.7836735h16.8061224c0-.7040817 0-1.5857143 0-2.3510204 0-1.5734694-1.6959184-1.4571429-1.6959184-1.4571429h-1.1632653v-3.8020408h2.8530613v-2.0816327c.0227897-.4837619-.167708-.9531848-.5211686-1.2842596-.3534607-.3310749-.8343268-.490496-1.3155661-.4361485h-5.4551021v-1.7326531h-3.8020408v1.7265306h-7.2979592v2.5469388s-.055102 1.2612245 1.6102041 1.2612245h1.2244898v3.8081633h-2.8346939v2.4489795c.0121527.3979259.1921756.7721133.4955123 1.0299495s.7016387.3752249 1.0963245.3231118zm5.0693877-7.6102041h5.0755102v3.8081633h-5.0755102z" fill-rule="nonzero"/><path d="m39.8510204 32.7306122c-1.836065 0-3.3244898 1.4884248-3.3244898 3.3244898 0 1.8360651 1.4884248 3.3244898 3.3244898 3.3244898s3.3244898-1.4884247 3.3244898-3.3244898c0-1.836065-1.4884248-3.3244898-3.3244898-3.3244898zm0 5.6020409c-1.2544754 0-2.2714286-1.0169532-2.2714286-2.2714286s1.0169532-2.2714286 2.2714286-2.2714286 2.2714286 1.0169532 2.2714286 2.2714286c-.0033749 1.2520837-1.0193403 2.2653107-2.2714286 2.2653061z" fill-rule="nonzero"/><circle cx="39.85102" cy="36.055102" r="2.112245"/></g><circle cx="30" cy="30" r="29.387755" stroke="#fff" stroke-width="3"/></g></svg>