<svg height="61" viewBox="0 0 25 61" width="25" xmlns="http://www.w3.org/2000/svg"><g fill="#fff"><circle cx="13" cy="13" r="5"/><path d="m12.3881209 57.4770424 10.1025457-8.4770424 1.2855753 1.5320889-10.7975837 9.0602485-.4879916.5815656-.1025457-.086046-.1025457.086046-.4879915-.5815656-10.7975837-9.0602485 1.28557522-1.5320889zm.1118791-55.4770424c-5.79898987 0-10.5 4.70101013-10.5 10.5v19c0 5.7989899 4.70101013 10.5 10.5 10.5 5.7989899 0 10.5-4.7010101 10.5-10.5v-19c0-5.79898987-4.7010101-10.5-10.5-10.5zm0-2c6.9035594 0 12.5 5.59644063 12.5 12.5v19c0 6.9035594-5.5964406 12.5-12.5 12.5-6.90355937 0-12.5-5.5964406-12.5-12.5v-19c0-6.90355937 5.59644063-12.5 12.5-12.5z"/></g></svg>