<svg height="47" viewBox="0 0 51 47" width="51" xmlns="http://www.w3.org/2000/svg"><path d="m306.847656 2071.46484v20.41016h-18.847656v-16.11328c0-8.724 1.041656-15.03904 3.125-18.94531 2.734389-5.20836 7.063772-9.14713 12.988281-11.81641l4.296875 6.83594c-3.580747 1.4974-6.217439 3.7272-7.910156 6.68945-1.692717 2.96226-2.636718 7.27536-2.832031 12.93945zm30.273438 0v20.41016h-18.847656v-16.11328c0-8.724 1.041656-15.03904 3.125-18.94531 2.734388-5.20836 7.063772-9.14713 12.988281-11.81641l4.296875 6.83594c-3.580747 1.4974-6.21744 3.7272-7.910156 6.68945-1.692717 2.96226-2.636718 7.27536-2.832032 12.93945z" fill="#002e54" fill-rule="evenodd" transform="translate(-288 -2045)"/></svg>