<svg height="60" viewBox="0 0 60 60" width="60" xmlns="http://www.w3.org/2000/svg"><path d="m130.038669 78.4366464c-2.005698 2.7951403-5.283227 4.6159852-8.986037 4.6159852-6.1042 0-11.052632-4.9484317-11.052632-11.0526316s4.948432-11.0526316 11.052632-11.0526316c3.25522 0 6.181759 1.4072485 8.204444 3.6465717l18.981048-8.7969423c-.224199-.8774993-.343387-1.7970138-.343387-2.7443662 0-6.1041999 4.948432-11.0526316 11.052631-11.0526316 6.1042 0 11.052632 4.9484317 11.052632 11.0526316 0 6.1041998-4.948432 11.0526316-11.052632 11.0526316-4.034836 0-7.564703-2.162031-9.494293-5.3907861l-18.417572 8.5357942c.685855 1.4389399 1.06976 3.0495014 1.06976 4.7497287 0 1.2719664-.214863 2.4937488-.610273 3.6310323l18.64304 8.6402895c2.018414-2.6592588 5.213325-4.376585 8.809338-4.376585 6.1042 0 11.052632 4.9484318 11.052632 11.0526316 0 6.1041999-4.948432 11.0526316-11.052632 11.0526316-6.104199 0-11.052631-4.9484317-11.052631-11.0526316 0-1.3751384.251132-2.6916216.710037-3.9060889zm28.908699-17.489278c4.360143 0 7.894737-3.5345941 7.894737-7.8947368 0-4.3601428-3.534594-7.8947369-7.894737-7.8947369-4.360142 0-7.894736 3.5345941-7.894736 7.8947369 0 4.3601427 3.534594 7.8947368 7.894736 7.8947368zm0 37.8947369c4.360143 0 7.894737-3.5345941 7.894737-7.8947369 0-4.3601427-3.534594-7.8947368-7.894737-7.8947368-4.360142 0-7.894736 3.5345941-7.894736 7.8947368 0 4.3601428 3.534594 7.8947369 7.894736 7.8947369zm-37.894736-18.9473685c4.360142 0 7.894736-3.534594 7.894736-7.8947368s-3.534594-7.8947368-7.894736-7.8947368c-4.360143 0-7.894737 3.534594-7.894737 7.8947368s3.534594 7.8947368 7.894737 7.8947368z" fill="#fff" opacity=".7" transform="translate(-110 -42)"/></svg>