<svg width="21" height="20" viewBox="0 0 21 20" fill="none" xmlns="http://www.w3.org/2000/svg">
<path fill-rule="evenodd" clip-rule="evenodd" d="M18.2784 0C19.0299 0 19.7103 0.303177 20.2028 0.793386C20.6954 1.28359 21 1.96076 21 2.70865C21 3.45654 20.6954 4.13369 20.2028 4.62391C19.7103 5.11414 19.0299 5.4173 18.2784 5.4173C17.527 5.4173 16.8466 5.11412 16.3541 4.62391C16.2849 4.55513 16.2194 4.48236 16.1578 4.40637L5.38758 9.45416C5.42391 9.63049 5.44299 9.8131 5.44299 10C5.44299 10.1869 5.42391 10.3695 5.38758 10.5458L16.1578 15.5936C16.2192 15.5176 16.2849 15.4452 16.3541 15.3761C16.8466 14.8859 17.527 14.5827 18.2784 14.5827C19.0299 14.5827 19.7103 14.8859 20.2028 15.3761C20.6954 15.8663 21 16.5435 21 17.2913C21 18.0392 20.6954 18.7164 20.2028 19.2066C19.7103 19.6968 19.0299 20 18.2784 20C17.527 20 16.8466 19.6968 16.3541 19.2066C15.8615 18.7164 15.5569 18.0396 15.5569 17.2915C15.5569 17.1046 15.576 16.922 15.6123 16.7457L4.84208 11.6979C4.78067 11.7739 4.71494 11.8463 4.64583 11.9154C4.15326 12.4057 3.47289 12.7088 2.72144 12.7088C1.96998 12.7088 1.28961 12.4056 0.797048 11.9154C0.304641 11.4252 0 10.7481 0 10.0002C0 9.25226 0.304621 8.57512 0.797166 8.08489C1.28971 7.59466 1.9701 7.29151 2.72156 7.29151C3.47301 7.29151 4.15338 7.59468 4.64595 8.08489C4.71506 8.15368 4.78063 8.22645 4.8422 8.30243L15.6124 3.25465C15.5759 3.07816 15.5568 2.89571 15.5568 2.70865C15.5568 1.96076 15.8615 1.28361 16.354 0.793386C16.8466 0.303157 17.5271 0 18.2784 0H18.2784Z" fill="black"/>
</svg>
