<svg width="15" height="14" viewBox="0 0 15 14" fill="none" xmlns="http://www.w3.org/2000/svg">
<path fill-rule="evenodd" clip-rule="evenodd" d="M13.056 0C13.5928 0 14.0788 0.212224 14.4306 0.55537C14.7824 0.898516 15 1.37253 15 1.89605C15 2.41958 14.7824 2.89358 14.4306 3.23674C14.0788 3.5799 13.5928 3.79211 13.056 3.79211C12.5193 3.79211 12.0333 3.57989 11.6815 3.23674C11.6321 3.18859 11.5853 3.13765 11.5413 3.08446L3.84827 6.61791C3.87422 6.74134 3.88785 6.86917 3.88785 7C3.88785 7.13083 3.87422 7.25866 3.84827 7.38209L11.5413 10.9155C11.5852 10.8623 11.6321 10.8116 11.6815 10.7633C12.0333 10.4201 12.5193 10.2079 13.056 10.2079C13.5928 10.2079 14.0788 10.4201 14.4306 10.7633C14.7824 11.1064 15 11.5804 15 12.1039C15 12.6275 14.7824 13.1015 14.4306 13.4446C14.0788 13.7878 13.5928 14 13.056 14C12.5193 14 12.0333 13.7878 11.6815 13.4446C11.3296 13.1015 11.1121 12.6277 11.1121 12.1041C11.1121 11.9732 11.1257 11.8454 11.1516 11.722L3.45863 8.18852C3.41476 8.24171 3.36781 8.29243 3.31845 8.34079C2.96662 8.68396 2.48064 8.89616 1.94388 8.89616C1.40713 8.89616 0.921152 8.68394 0.56932 8.34079C0.217601 7.99763 0 7.52363 0 7.00011C0 6.47659 0.217587 6.00258 0.569404 5.65942C0.921222 5.31626 1.40721 5.10405 1.94397 5.10405C2.48072 5.10405 2.9667 5.31628 3.31853 5.65942C3.3679 5.70757 3.41474 5.75851 3.45872 5.8117L11.1517 2.27825C11.1257 2.15472 11.112 2.027 11.112 1.89605C11.112 1.37253 11.3296 0.89853 11.6814 0.55537C12.0333 0.21221 12.5194 0 13.056 0H13.056Z" fill="black"/>
</svg>
