<svg enable-background="new 0 0 682.7 1215.7" opacity=".25" viewBox="0 0 682.7 1215.7" xmlns="http://www.w3.org/2000/svg"><g fill="#fff"><path d="m332.9 310.7h16.5v2h-16.5z" transform="matrix(.1024 -.9947 .9947 .1024 -3.8468 619.2139)"/><path d="m359 315.1h16.5v2h-16.5z" transform="matrix(.2168 -.9762 .9762 .2168 -20.9723 606.0989)"/><path d="m384 322.5h16.5v2h-16.5z" transform="matrix(.3238 -.9461 .9461 .3238 -40.7853 589.8584)"/><path d="m408.9 331.4h16.5v2h-16.5z" transform="matrix(.4125 -.911 .911 .4125 -57.6853 575.3719)"/><path d="m454.3 357.1h16.5v2h-16.5z" transform="matrix(.5816 -.8135 .8135 .5816 -97.755 526.1274)"/><path d="m475 374.1h16.5v2h-16.5z" transform="matrix(.648 -.7617 .7617 .648 -115.618 500.106)"/><path d="m493.6 393.1h16.5v2h-16.5z" transform="matrix(.7071 -.7071 .7071 .7071 -131.6647 470.3141)"/><path d="m510 413.5h16.5v2h-16.5z" transform="matrix(.7461 -.6659 .6659 .7461 -144.3961 450.3325)"/><path d="m536.9 458.1h16.5v2h-16.5z" transform="matrix(.8661 -.4998 .4998 .8661 -156.5054 333.997)"/><path d="m546.5 483.5h16.5v2h-16.5z" transform="matrix(.9271 -.3749 .3749 .9271 -141.1893 243.327)"/><path d="m552.2 509.2h16.5v2h-16.5z" transform="matrix(.9619 -.2735 .2735 .9619 -118.1666 172.7162)"/><path d="m554.1 536.3h16.5v2h-16.5z" transform="matrix(.9915 -.1302 .1302 .9915 -65.1731 77.7935)"/><path d="m287.1 303.5h2v16.5h-2z" transform="matrix(.9947 -.1024 .1024 .9947 -30.4195 31.1497)"/><path d="m261 307.8h2v16.5h-2z" transform="matrix(.9762 -.2168 .2168 .9762 -62.2877 64.3218)"/><path d="m236 315.2h2v16.5h-2z" transform="matrix(.9461 -.3238 .3238 .9461 -91.944 94.1593)"/><path d="m211 324.1h2v16.5h-2z" transform="matrix(.9109 -.4126 .4126 .9109 -118.2626 117.1125)"/><path d="m165.7 349.8h2v16.5h-2z" transform="matrix(.8135 -.5816 .5816 .8135 -177.1586 163.7282)"/><path d="m145 366.8h2v16.5h-2z" transform="matrix(.7619 -.6477 .6477 .7619 -208.1796 183.9065)"/><path d="m126.4 385.8h2v16.5h-2z" transform="matrix(.7071 -.7071 .7071 .7071 -241.3596 205.4924)"/><path d="m110 406.2h2v16.5h-2z" transform="matrix(.6658 -.7462 .7462 .6658 -272.1477 221.3726)"/><path d="m83 450.8h2v16.5h-2z" transform="matrix(.5 -.866 .866 .5 -355.5718 302.3223)"/><path d="m73.5 476.2h2v16.5h-2z" transform="matrix(.3744 -.9272 .9272 .3744 -402.6014 372.1761)"/><path d="m67.8 502h2v16.6h-2z" transform="matrix(.2738 -.9618 .9618 .2738 -440.816 436.7073)"/><path d="m63.3 527.4h2v16.5h-2z" transform="matrix(.1333 -.9911 .9911 .1333 -475.2224 528.0174)"/><path d="m279.4 813.3h16.5v2h-16.5z" transform="matrix(.1024 -.9947 .9947 .1024 -551.7594 1017.0178)"/><path d="m253.4 809h16.6v2h-16.6z" transform="matrix(.2168 -.9762 .9762 .2168 -585.7909 889.9014)"/><path d="m228.4 801.6h16.6v2h-16.6z" transform="matrix(.3241 -.946 .946 .3241 -599.2914 766.4149)"/><path d="m203.4 792.7h16.6v2h-16.6z" transform="matrix(.4122 -.9111 .9111 .4122 -598.6898 659.4354)"/><path d="m158.1 767h16.6v2h-16.6z" transform="matrix(.5813 -.8137 .8137 .5813 -555.267 456.9492)"/><path d="m137.5 749.9h16.6v2h-16.6z" transform="matrix(.6476 -.762 .762 .6476 -520.8369 375.6802)"/><path d="m118.8 731h16.5v2h-16.5z" transform="matrix(.7071 -.7071 .7071 .7071 -480.3649 304.2097)"/><path d="m101.1 713.1h16.6v2h-16.6z" transform="matrix(.829 -.5593 .5593 .829 -380.6829 183.3097)"/><path d="m75.4 665h16.5v2h-16.5z" transform="matrix(.9235 -.3837 .3837 .9235 -249.0892 83.0739)"/><path d="m65.9 640.5h16.5v2h-16.5z" transform="matrix(.9735 -.2285 .2285 .9735 -144.6428 33.9365)"/><path d="m60.2 614.8h16.6v2h-16.6z" transform="matrix(.9948 -.1016 .1016 .9948 -62.1963 10.1403)"/><path d="m55.7 588.3h16.6v2h-16.6z"/><path d="m339.9 806h2v16.5h-2z" transform="matrix(.9947 -.1024 .1024 .9947 -81.6269 39.2045)"/><path d="m365.9 801.7h2v16.5h-2z" transform="matrix(.9762 -.2168 .2168 .9762 -166.861 98.7889)"/><path d="m390.8 794.4h2v16.5h-2z" transform="matrix(.9461 -.3238 .3238 .9461 -238.7639 170.083)"/><path d="m415.8 785.4h2v16.5h-2z" transform="matrix(.911 -.4125 .4125 .911 -290.2627 242.5845)"/><path d="m461.2 759.7h2v16.5h-2z" transform="matrix(.8135 -.5816 .5816 .8135 -360.4002 412.0088)"/><path d="m481.9 742.7h2v16.5h-2z" transform="matrix(.7619 -.6477 .6477 .7619 -371.4498 491.5823)"/><path d="m500.5 723.7h2v16.5h-2z" transform="matrix(.7071 -.7071 .7071 .7071 -370.687 569.021)"/><path d="m516.9 703.3h2v16.5h-2z" transform="matrix(.5621 -.8271 .8271 .5621 -361.7845 739.9405)"/><path d="m543.8 657.6h2v16.5h-2z" transform="matrix(.3833 -.9236 .9236 .3833 -279.0443 913.8528)"/><path d="m553.4 633.3h2v16.5h-2z" transform="matrix(.2287 -.9735 .9735 .2287 -196.9497 1034.475)"/><path d="m559.1 607.5h2v16.5h-2z" transform="matrix(.1018 -.9948 .9948 .1018 -109.4777 1110.3027)"/><path d="m556.3 588.3h16.5v2h-16.5z"/><path d="m306.5 303.6c-1.2 0-2.3.6-3 1.6-.3.4-.6.9-.8 1.4-.2.6-.4 1.2-.5 1.8.5-.5 1.1-1 1.8-1.2.8-.2 1.6-.4 2.5-.3 1.6-.1 3.2.5 4.4 1.6.5.5 1 1.1 1.3 1.8s.4 1.5.4 2.2c0 1.6-.6 3.2-1.8 4.3-1.3 1.1-2.9 1.7-4.7 1.7-1.9.1-3.7-.7-4.9-2.1-1.3-1.6-1.9-3.6-1.8-5.6-.1-2.4.6-4.8 1.9-6.8 1.2-1.7 3.2-2.7 5.3-2.6 1.3-.1 2.5.3 3.5 1 .9.5 1.5 1.5 1.5 2.6 0 .5-.2 1-.6 1.3-.4.4-.8.6-1.3.5-.4 0-.8-.2-1.1-.5s-.5-.7-.5-1.1c0-.2 0-.4.1-.6s.2-.3.4-.4c-.4-.4-1.2-.7-2.1-.6zm-.3 5.6c-1-.1-1.9.3-2.7 1-.7.7-1 1.6-1 2.5 0 1 .3 1.9 1 2.6 1.5 1.3 3.7 1.3 5.2 0 .7-.7 1-1.7 1-2.6s-.3-1.9-1-2.5c-.6-.7-1.6-1.1-2.5-1z"/><path d="m323 318.5c-1.9.1-3.8-.8-4.9-2.3-2.3-3.8-2.3-8.6.1-12.4 1.2-1.6 3.1-2.4 5.1-2.4 1.9-.1 3.7.8 4.9 2.3.6.8 1.1 1.6 1.3 2.6.3 1.1.4 2.2.4 3.4.1 2.3-.5 4.6-1.8 6.4-1.3 1.6-3.1 2.5-5.1 2.4zm.2-14.7c-2.6 0-3.9 2-4 6v.4c-.1 1.5.3 3.1 1 4.4 1 1.5 3 2 4.5 1.1.5-.3 1-.8 1.3-1.3.4-.6.6-1.3.8-2 .2-.9.3-1.8.3-2.7.1-1.5-.2-3.1-1-4.4-.7-.9-1.8-1.5-2.9-1.5z"/><path d="m531.7 426c.4-.2.7-.5 1-.8.2-.2.2-.4.1-.6-.1-.1-.1-.1-.2-.2s-.2-.2-.2-.3l-.2-.3-.2-.3c-.4-.8-.3-1.3.3-1.7.7-.4 1.2-.2 1.6.5l.2.3c.1.2.1.3.2.5v.1.1c0 .1.1.2.2.3l.2.3c.1.2.2.4.3.6l.3.4c.3.4.5.7.5.8.1.2.2.4.2.6s-.1.4-.2.5c-.2.2-.4.4-.7.5l-.2.1-.3.2-2.1 1.1c-.7.4-1.3.7-1.9 1l-2.3 1.3-.7.4-.9.5-.5.3-.4.2-.5.3-.3.2c-.7.4-1 .9-.8 1.2l.2.3.2.4.2.4c.1.1.1.2.2.3.5.9.4 1.5-.2 1.9-.7.4-1.2.1-1.7-.7-.1-.1-.1-.2-.2-.4l-.2-.4c-.2-.6-.5-1.1-.7-1.6s-.4-.8-.5-1.1c-.4-.7-.9-1.4-1.4-2l-.4-.6c-.1-.1-.2-.3-.3-.4-.5-.8-.4-1.4.3-1.8s1.3-.1 1.7.8l.2.4c.1.1.1.2.1.4l.1.2c0 .1 0 .1.1.1 0 0 0 .1.1.1v.1c.1.2.4.4.7.3s.7-.3 1-.4c.5-.2 1.1-.6 1.8-1z"/><path d="m527.8 445.1c-1-1.6-1.2-3.6-.5-5.4 2.2-3.9 6.4-6.2 10.8-6 2 .3 3.6 1.5 4.5 3.2 1 1.6 1.2 3.6.4 5.3-.4.9-.9 1.7-1.6 2.4-.8.8-1.7 1.5-2.7 2-1.9 1.2-4.2 1.8-6.5 1.6-1.9-.2-3.6-1.4-4.4-3.1zm12.8-7.1c-1.3-2.2-3.7-2.4-7.2-.5l-.3.2c-1.4.7-2.6 1.7-3.4 3.1-.8 1.6-.3 3.6 1.3 4.5.5.3 1.1.5 1.7.5.7 0 1.5-.1 2.2-.3.9-.3 1.7-.6 2.5-1.1 1.4-.7 2.5-1.7 3.3-3 .6-1.1.5-2.4-.1-3.4z"/><path d="m571.5 552.8c.4 0 .8-.1 1.2-.2.2-.1.4-.3.4-.5 0-.1 0-.2 0-.3 0-.2 0-.3 0-.4s0-.3 0-.4 0-.2 0-.3c0-.9.4-1.3 1.1-1.3s1.1.4 1.1 1.2 0 1 0 .4c0 .2 0 .3-.1.5v.1.1.4.3.7s0 .4 0 .5c0 .5.1.8.1.9 0 .2 0 .4-.1.6s-.2.3-.4.4c-.3.1-.5.1-.8.1h-.2-.4l-2.3-.1c-.8 0-1.5 0-2.1 0h-3.4-1.1-1-.5-.4c-.8 0-1.3.2-1.3.7v.3s0 .3 0 .4v.4.3c0 1-.4 1.5-1.1 1.5-.8 0-1.1-.5-1.1-1.4 0-.1 0-.3 0-.4s0-.3 0-.4c.1-.7.1-1.2.2-1.7 0-.5.1-.9.1-1.2 0-.8-.1-1.6-.2-2.5l-.2-.5c0-.2 0-.3 0-.5 0-.9.4-1.4 1.2-1.4s1.1.5 1.1 1.5v.4c0 .1 0 .2-.1.4v.2.2.2.1c0 .3.2.5.4.6.4.1.7.1 1.1.1h2.1z"/><path d="m569.3 565.1c.3.5.5 1.1.7 1.7s.2 1.2.2 1.8c0 .8-.1 1.7-.4 2.5-.2.7-.6 1.3-1.1 1.9-.5.5-1.1.9-1.7 1.2-.7.3-1.5.4-2.3.4-1.7 0-3.3-.7-4.4-1.9-1.2-1.4-1.8-3.1-1.7-4.9 0-1.5.4-3 1.2-4.2.7-1.1 1.8-1.8 3.1-1.8.3 0 .6.1.9.2s.5.3.7.5.4.4.5.7.2.6.2.9c0 .5-.1.9-.4 1.3-.3.3-.7.5-1.2.5-.3 0-.6-.1-.9-.3-.2-.2-.4-.5-.4-.8-.4.2-.8.6-.9 1-.2.4-.3.8-.4 1.2s-.2.9-.2 1.3c-.1 1 .3 2 1 2.7s1.7 1.1 2.7 1.1c.9.1 1.8-.3 2.5-.9.6-.7.9-1.6.9-2.5 0-1.2-.4-2.3-1.2-3.1l-.4-.4c-.1-.1-.2-.2-.3-.3s-.1-.2-.2-.3c0-.1-.1-.2-.1-.4v-.2c0-.9.4-1.3 1.3-1.3h.1.1l2.2.2 2.2.2h.3 1c.6 0 1.2.1 1.7.2.4.3.5.7.5 1.2v.3.2.5s0 .3 0 .5v4.7.4.2.2.3.2c0 .9-.6 1.3-1.7 1.3h-.2c-.2 0-.4 0-.6 0l-.7.1c-.1 0-.2.1-.3.1h-.3c-.7 0-1.1-.4-1.1-1.2s.5-1.1 1.4-1.2c.7 0 1-.2 1-.7v-4.8c0-.2-.2-.2-.5-.3z"/><path d="m535.1 677.8c0-.3-.1-.6-.1-.8-.1-.3-.2-.5-.3-.8 0 .6-.1 1.2-.4 1.7-.5 1-1.4 1.8-2.5 2.3-.8.3-1.6.8-2.1 1.5-.1.3-.1.5 0 .8s.3.5.6.6c0-.2.1-.4.1-.5.2-.6.8-1 1.5-.8.1 0 .2.1.3.1.4.2.7.5.8.9.1.5 0 1-.2 1.4-.2.6-.7 1-1.3 1.2-.7.2-1.4.1-2-.2-.9-.4-1.6-1.1-2-2s-.4-1.9.1-2.7c.6-1 1.5-1.8 2.6-2.3 1-.4 1.8-1.1 2.3-2 .2-.3.2-.7.1-1-.3.4-.8.5-1.2.2-.8-.4-1-1.1-.6-2 .2-.5.7-.9 1.3-1.1.7-.1 1.4 0 2.1.3 2.6 1.2 3.6 3.9 3 7.9l-.2 1.8c-.1.7 0 1.5.2 2.1s.6 1 1.2 1.3c.7.4 1.5.4 2.2.1.8-.4 1.4-1.1 1.7-1.9.3-.7.5-1.4.5-2.2 0-.6-.2-1.2-.7-1.6-.4.6-1.1.8-1.7.5-.4-.2-.8-.6-.9-1-.2-.5-.1-1 .1-1.5s.7-.9 1.2-1.1c.6-.2 1.2-.1 1.8.2 1.2.6 2.1 1.8 2.3 3.2.3 1.6 0 3.2-.7 4.6-.6 1.4-1.7 2.5-3 3.2-1.2.6-2.7.6-3.9 0-.9-.4-1.6-1-2-1.9s-.6-1.8-.6-2.8c0-.1 0-.5.1-1l.2-2c.1-.6.1-1.1.1-1.6 0-.3 0-.7 0-1.1z"/><path d="m522.2 691.4c.7-1.8 2.3-3.1 4.2-3.5 4.4-.5 8.8 1.6 11.2 5.4.9 1.8.9 3.8-.1 5.6-.7 1.7-2.3 3-4.1 3.4-1 .2-2 .3-2.9.1-1.1-.2-2.2-.6-3.2-1.1-2.1-.9-3.9-2.4-5-4.4-1-1.7-1-3.7-.1-5.5zm13.2 6.5c1.1-2.3-.1-4.4-3.7-6.2l-.3-.2c-1.4-.7-2.9-1.1-4.4-1-1.8.2-3.1 1.8-3 3.6.1.6.3 1.2.6 1.7.4.6.9 1.2 1.5 1.6.7.6 1.5 1 2.3 1.4 1.3.8 2.9 1.1 4.4 1 1.1-.1 2.1-.8 2.6-1.9z"/><path d="m319.7 821.6h4.5.7c.1 0 .3 0 .4-.1.2 0 .3-.2.3-.6 0-.1 0-.2 0-.3s0-.2 0-.4 0-.3 0-.4 0-.2 0-.3c0-1 .4-1.5 1.2-1.5s1.2.4 1.2 1.3v.4.5.5s0 .3 0 .3v.6.4.3s0 .2 0 .3c0 .2 0 .4-.1.7 0 .1-.1.3-.2.4-.2.1-.3.2-.5.2s-.5 0-1 0h-6-.5-.7-.6-.7c-1.2 0-1.8-.4-1.8-1.2.1-.5.3-1 .7-1.3l3.6-3.5c-2.6 0-4.6-2-4.7-4.6 0-.1 0-.1 0-.2 0-1.6.7-3.2 1.9-4.2.6-.6 1.3-1 2.1-1.2.9-.3 1.8-.4 2.7-.4 1.6-.1 3.2.4 4.5 1.3 1.2.7 1.9 2 1.9 3.4 0 .4-.1.8-.2 1.1s-.3.7-.5.9c-.2.3-.5.5-.8.6-.3.2-.7.2-1 .2-.5 0-.9-.1-1.3-.5-.3-.3-.5-.7-.5-1.2 0-.9.5-1.4 1.6-1.5-.1-.6-.5-1.2-1.1-1.5-.4-.3-.8-.5-1.3-.6s-1-.2-1.5-.2-1.1.1-1.6.2c-.5.2-.9.4-1.3.7-.3.3-.6.7-.8 1.2s-.3.9-.3 1.4c0 1.8 1 2.7 3 2.7.6 0 1.2-.1 1.8-.2h.2.2c.4-.1.9.2.9.7v.2c0 .3-.2.7-.5.9z"/><path d="m306.6 807.4c1.9-.1 3.8.8 4.9 2.3 2.3 3.8 2.3 8.6-.1 12.4-1.2 1.6-3.1 2.4-5.1 2.3-1.9.1-3.7-.8-4.9-2.3-.6-.8-1.1-1.6-1.3-2.6-.3-1.1-.4-2.2-.4-3.4-.1-2.3.5-4.6 1.8-6.4 1.3-1.5 3.2-2.4 5.1-2.3zm-.1 14.7c2.6 0 3.9-2 4-6v-.4c.1-1.5-.3-3.1-1-4.4-1-1.5-3-2-4.5-1.1-.5.3-1 .8-1.3 1.3-.4.6-.6 1.3-.8 2-.2.9-.3 1.8-.3 2.7-.1 1.5.2 3.1 1 4.4.6.9 1.7 1.5 2.9 1.5z"/><path d="m189.1 789.3 3.8 2.4c.2.2.4.3.6.3.1.1.2.1.4.1.2.1.4-.1.6-.4l.1-.2.2-.3.2-.3.2-.3c.5-.9 1.2-1.1 1.8-.7s.8 1 .3 1.7l-.2.3c-.1.1-.2.3-.3.4l-.3.4-.2.3-.3.5c-.1.1-.1.2-.2.4l-.2.3c-.1.1-.1.2-.2.3-.1.2-.3.4-.4.5s-.2.2-.4.2-.4 0-.5-.1c-.2-.1-.5-.3-.8-.5l-4.8-3-.3-.2-.5-.3-.3-.2-.3-.2c-.2-.1-.3-.2-.5-.3l-.6-.4c-1-.6-1.3-1.3-.9-1.9.3-.4.8-.7 1.3-.8l5-1c-2.2-1.3-2.8-4.2-1.5-6.4 0 0 .1-.1.1-.1.8-1.4 2.3-2.4 3.9-2.6.8-.2 1.7-.1 2.5.1.9.2 1.7.6 2.5 1.1 1.4.8 2.5 2 3.1 3.5.6 1.3.5 2.7-.2 3.9-.2.3-.5.6-.8.9-.3.2-.6.4-.9.5s-.7.1-1 .1c-.4 0-.7-.2-1-.3-.4-.2-.7-.6-.8-1s0-.9.2-1.3c.5-.8 1.2-.9 2.2-.4.2-.6.2-1.3-.1-1.9-.2-.4-.5-.8-.8-1.2s-.7-.7-1.1-1c-.5-.3-.9-.5-1.5-.6-.5-.1-1-.1-1.5-.1-.5.1-.9.3-1.3.6s-.7.6-1 1.1c-.9 1.5-.6 2.8 1.1 3.9.5.3 1.1.6 1.6.8l.2.1.2.1c.4.2.6.7.4 1.1 0 .1-.1.1-.1.2-.2.3-.5.4-.9.5z"/><path d="m182.2 780.9c-.6 0-1.2-.2-1.8-.3-.6-.2-1.2-.4-1.7-.8-.7-.4-1.4-1-1.9-1.6s-.8-1.2-1-1.9-.2-1.4-.1-2.1c.1-.8.4-1.5.9-2.2.9-1.4 2.3-2.4 4-2.7 1.8-.3 3.6.2 5.1 1.2 1.3.8 2.4 1.9 3 3.3.6 1.1.5 2.5-.1 3.6-.2.3-.4.5-.6.7s-.5.3-.8.4-.6.1-.9 0c-.3 0-.6-.1-.8-.3-.4-.2-.7-.6-.8-1s-.1-.9.2-1.2c.2-.3.4-.5.8-.6.3-.1.6-.1.9.1.1-.5-.1-.9-.3-1.3s-.5-.7-.8-1-.7-.6-1.1-.8c-.8-.6-1.9-.8-2.9-.6s-1.9.8-2.4 1.7c-.5.7-.7 1.7-.5 2.5.2.9.8 1.6 1.6 2.1 1 .7 2.1.9 3.3.7l.6-.1h.4.3c.1 0 .2.1.4.1l.1.1c.6.3.8 1 .6 1.6 0 .1-.1.2-.2.3v.1s0 0-.1.1c-.4.6-.9 1.2-1.3 1.8s-.9 1.2-1.3 1.8c-.1.1-.1.1-.2.2l-.2.3-.2.2-.2.3c-.3.5-.7 1-1.1 1.3-.4.1-.9 0-1.3-.2l-.2-.2c-.1 0-.1-.1-.2-.1l-.5-.3-.4-.3-3.5-2.2-.5-.3-.4-.2-.2-.1-.2-.1-.3-.1-.2-.1c-.7-.5-.8-1.2-.2-2.1l.1-.1c.1-.2.2-.3.3-.5s.2-.4.3-.7c0-.1 0-.2.1-.3l.1-.2c.2-.5.8-.7 1.3-.4.1 0 .2.1.2.2.7.4.7 1 .2 1.8-.3.6-.3 1 .1 1.2l4.1 2.6c.1.1.3 0 .5-.3z"/><path d="m98.4 692-1.2-2c-.4-.4-.3-1 .1-1.4.1-.1.1-.1.2-.1.4-.3 1.1-.3 1.4.1.1.1.1.2.2.3l1.2 1.9.9-.6c.9-.6 1.2-1 1-1.4l-.1-.2c-.1-.1-.1-.2-.2-.2l-.1-.1-.1-.1-.1-.2-.1-.1s0-.1-.1-.1c-.5-.8-.4-1.4.2-1.8.4-.4 1.1-.3 1.4.1.1.1.1.2.2.3.2.4.5.8.6 1.3.1.2.2.5.3.7s.3.5.5.8c.3.5.7 1 1.1 1.5s.8 1.1 1.2 1.6c.4.7.4 1.3-.3 1.7-.6.4-1.2.2-1.8-.6l-.2-.3-.2-.3-.2-.3-.1-.2c-.3-.4-.9-.4-1.8.2l-.9.6 3.6 5.7c.5.8.4 1.5-.3 1.9-.3.2-.6.2-.9.2l-9.7-1.2-1.3-.2c-.3 0-.6-.1-.9-.2-.4-.2-.8-.5-1.1-.9-.6-.9-.3-1.7.8-2.4zm4 6.4-2.6-4.1-1.4.8-1.2.7-1.2.7-1.4.8z"/><path d="m98.5 677.9c1.1 1.6 1.3 3.6.7 5.4-.9 2-2.4 3.7-4.3 4.7-1.8 1.3-4.1 1.9-6.3 1.7-2-.2-3.7-1.4-4.7-3.1-1.1-1.6-1.3-3.5-.6-5.3.3-.9.8-1.8 1.5-2.5.8-.8 1.7-1.5 2.6-2.1 1.9-1.3 4.1-2 6.4-1.8 2 .2 3.7 1.3 4.7 3zm-12.6 7.6c1.3 2.2 3.7 2.3 7.2.3l.3-.2c1.4-.7 2.5-1.8 3.2-3.2.8-1.6.1-3.6-1.4-4.4-.5-.3-1.1-.4-1.8-.4s-1.5.1-2.1.4c-.9.3-1.7.7-2.4 1.2-1.4.7-2.5 1.8-3.2 3.2-.5.9-.4 2.1.2 3.1z"/><path d="m63.5 567.5v-2.3c0-.8.4-1.2 1.1-1.2s1.1.4 1.1 1.2v2.3h1.1c1.1 0 1.6-.2 1.6-.7v-.2c0-.1 0-.2 0-.3v-.1s0-.1 0-.1c0-.1 0-.1 0-.2v-.1-.1c0-.9.4-1.4 1.1-1.4s1.1.4 1.1 1.2c0 .5-.1 1-.1 1.4 0 .2 0 .5-.1.8v1c0 .6.1 1.2.1 1.9.1.7.1 1.3.1 2 0 .8-.4 1.3-1.1 1.3s-1.1-.5-1.2-1.5c0-.1 0-.2 0-.3s0-.2 0-.4 0-.3 0-.4 0-.2 0-.3c0-.5-.5-.8-1.6-.8h-1.1v6.7c0 1-.4 1.5-1.2 1.5-.3 0-.6-.1-.9-.3l-7.6-6.1-1-.8c-.2-.2-.4-.4-.6-.6-.3-.4-.4-.8-.4-1.3 0-1.1.6-1.6 1.9-1.6zm0 7.6v-4.9h-1.6-1.4-1.5-1.7z"/><path d="m60.3 558.3c-.3-.5-.5-1.1-.7-1.7s-.2-1.2-.2-1.8c0-.8.1-1.7.4-2.5.2-.7.6-1.3 1.1-1.9.5-.5 1.1-.9 1.7-1.2.7-.3 1.5-.4 2.3-.4 1.7 0 3.3.7 4.4 1.9 1.2 1.4 1.8 3.1 1.7 4.9 0 1.5-.4 3-1.2 4.2-.7 1.1-1.8 1.8-3.1 1.8-.3 0-.6-.1-.9-.2s-.5-.3-.7-.5-.4-.4-.5-.7-.2-.6-.2-.9c0-.5.1-.9.4-1.3.3-.3.7-.5 1.2-.5.3 0 .6.1.9.3.2.2.4.5.4.8.4-.2.8-.6.9-1 .2-.4.3-.8.4-1.2s.2-.9.2-1.3c.1-1-.3-2-1-2.7s-1.7-1.1-2.7-1.1c-.9-.1-1.8.3-2.5.9-.7.7-1 1.6-1 2.5 0 1.2.4 2.3 1.2 3.1l.4.4c.1.1.2.2.3.3s.1.2.2.3c0 .1.1.2.1.4v.2c0 .9-.4 1.3-1.3 1.3h-.1-.1l-2.1-.2-2.2-.2h-.3-1c-.6 0-1.2-.1-1.7-.2-.4-.3-.5-.7-.5-1.2v-.3c0-.1 0-.1 0-.2 0-.2 0-.3 0-.5s0-.3 0-.5v-4.4c0-.1 0-.3 0-.4s0-.1 0-.2 0-.1 0-.2 0-.2 0-.3v-.2c0-.9.6-1.3 1.7-1.3h.2.6l.7-.1c.1 0 .2-.1.3-.1h.3c.7 0 1.1.4 1.1 1.2s-.5 1.2-1.4 1.2c-.7 0-1 .2-1 .7v4.8c0 .2.2.2.5.3z"/><path d="m88.9 444.5c.1-.6.2-1.2.4-1.7.2-.6.5-1.1.9-1.6.5-.7 1.1-1.3 1.7-1.8.6-.4 1.3-.8 2-.9.7-.2 1.4-.2 2.1 0 .8.2 1.5.5 2.1 1 1.4.9 2.3 2.4 2.5 4.1.2 1.8-.4 3.6-1.4 5-.8 1.3-2 2.2-3.4 2.8-1.2.5-2.5.4-3.6-.3-.3-.2-.5-.4-.6-.6-.2-.2-.3-.5-.3-.8-.1-.3-.1-.6 0-.9s.2-.6.3-.8c.2-.4.6-.7 1.1-.8.4-.1.9 0 1.2.3.3.2.5.5.5.8.1.3 0 .6-.1.9.5.1.9 0 1.3-.3.4-.2.7-.5 1-.8s.6-.6.9-1c.6-.8.9-1.8.7-2.8s-.7-1.9-1.6-2.4c-.7-.6-1.7-.9-2.6-.7s-1.7.7-2.1 1.5c-.7.9-1 2.1-.9 3.2 0 .2.1.4.1.6v.4.3c0 .1-.1.2-.1.4l-.1.1c-.3.6-1 .8-1.6.5-.1-.1-.2-.1-.3-.2h-.1s0 0-.1-.1l-1.7-1.4-1.7-1.4c-.1-.1-.1-.1-.2-.2l-.3-.2-.2-.2-.3-.2c-.5-.3-.9-.7-1.3-1.2-.1-.4 0-.9.3-1.2l.2-.2c0-.1.1-.1.1-.1l.3-.4.3-.4 2.4-3.4.3-.5c.1-.1.2-.2.2-.4l.1-.2.1-.2c0-.1.1-.2.2-.3l.1-.2c.5-.7 1.2-.8 2.1-.1l.1.1c.2.1.3.2.5.3l.7.3c.1 0 .2.1.3.1l.2.1c.5.3.6.9.4 1.4 0 .1-.1.2-.2.2-.4.6-1 .7-1.8.1-.5-.4-.9-.4-1.2 0l-2.8 4c-.1.1 0 .3.3.5z"/><path d="m108.1 435.6c-1 1.6-2.8 2.7-4.7 2.8-4.5-.3-8.4-3.1-10.1-7.2-.6-1.9-.2-3.9 1-5.5 1-1.6 2.7-2.6 4.6-2.7 1-.1 2 .1 2.9.4 1.1.4 2.1.9 3 1.6 1.9 1.2 3.4 3 4.2 5.2.6 1.8.3 3.9-.9 5.4zm-11.9-8.5c-1.5 2.1-.6 4.3 2.6 6.7l.3.2c1.2 1 2.7 1.6 4.2 1.7 1.8.1 3.3-1.3 3.5-3.1 0-.6-.1-1.2-.3-1.8-.3-.7-.7-1.3-1.2-1.8-.6-.7-1.3-1.3-2.1-1.8-1.2-1-2.7-1.5-4.2-1.7-1.1 0-2.2.6-2.8 1.6z"/><path d="m177.6 347.5c.3-.5.7-1 1.1-1.4s.9-.8 1.4-1.1c.7-.4 1.5-.8 2.3-1 .7-.1 1.4-.1 2.2 0 .7.1 1.3.4 1.9.9s1.1 1.1 1.5 1.7c.9 1.4 1.1 3.2.6 4.8-.6 1.7-1.8 3.1-3.4 4-1.3.8-2.8 1.2-4.3 1.2-1.3 0-2.5-.7-3.1-1.7-.2-.3-.3-.6-.3-.9-.1-.3-.1-.6 0-.9s.2-.5.4-.8c.2-.2.4-.4.6-.6.4-.3.8-.4 1.3-.3.4.1.8.4 1 .7s.2.6.1.9-.2.6-.5.8c.4.3.9.4 1.3.3.4 0 .9-.1 1.3-.3.4-.1.8-.3 1.2-.6.9-.5 1.5-1.3 1.8-2.3s.1-2-.5-2.9c-.4-.8-1.1-1.4-2-1.6s-1.8 0-2.6.5c-1 .6-1.8 1.5-2.1 2.6-.1.2-.1.4-.2.6 0 .1-.1.3-.1.4s-.1.2-.2.3-.2.2-.3.3l-.1.1c-.5.4-1.2.3-1.6-.2-.1-.1-.1-.2-.2-.3l-.1-.1s0 0 0-.1c-.3-.7-.7-1.3-1-2s-.7-1.3-1-2c0-.1-.1-.2-.1-.2l.1-.3-.1-.2-.2-.3c-.3-.5-.6-1-.7-1.6 0-.4.3-.7.8-1l.3-.1c.1 0 .1-.1.2-.1l.4-.3.4-.3 3.6-2.1.5-.3c.1-.1.2-.2.4-.2l.2-.1.2-.1c.1-.1.2-.1.2-.2l.2-.1c.8-.5 1.4-.2 2 .8l.1.2c.1.2.2.3.4.5l.5.5c.1.1.2.1.2.2l.1.2c.3.4.2 1.1-.2 1.4-.1.1-.2.1-.2.1-.7.4-1.2.2-1.7-.6-.3-.5-.7-.7-1.1-.5l-4.1 2.5c-.1.1-.1.3 0 .6z"/><path d="m190.9 339.5c.3-.5.7-1 1.1-1.4s.9-.8 1.4-1.1c.7-.4 1.5-.8 2.3-1 .7-.1 1.4-.1 2.2 0 .7.1 1.3.4 1.9.9s1.1 1.1 1.5 1.7c.9 1.4 1.1 3.2.6 4.8-.6 1.7-1.8 3.1-3.4 4-1.3.8-2.8 1.2-4.3 1.2-1.3 0-2.5-.7-3.1-1.7-.2-.3-.3-.6-.3-.9-.1-.3-.1-.6 0-.9s.2-.5.4-.8l.6-.6c.4-.3.8-.4 1.3-.3.4.1.8.4 1 .7s.2.6.1.9-.2.6-.5.8c.4.3.9.4 1.3.3.4 0 .9-.1 1.3-.3.4-.1.8-.3 1.2-.6.9-.5 1.5-1.3 1.8-2.3s.1-2.1-.5-3c-.4-.8-1.1-1.4-2-1.6s-1.8 0-2.6.5c-1 .6-1.8 1.5-2.1 2.6-.1.2-.1.4-.2.6 0 .1-.1.3-.1.4s-.1.2-.2.3-.2.2-.3.3l-.1.1c-.5.4-1.2.3-1.6-.2-.1-.1-.1-.2-.2-.3l-.1-.1s0 0 0-.1c-.3-.7-.7-1.3-1-2s-.7-1.3-1-2c0-.1-.1-.2-.1-.2l-.2-.3-.1-.2c0-.1-.1-.2-.2-.3-.3-.5-.6-1-.7-1.6 0-.4.3-.7.8-1l.3-.1c.1 0 .1-.1.2-.1l.4-.3.4-.3 3.6-2 .5-.3c.1-.1.2-.2.4-.2l.2-.1.2-.1c.1-.1.2-.1.2-.2l.2-.1c.8-.5 1.4-.2 2 .8l.1.2c.1.2.2.3.4.5l.5.5c.1.1.2.1.2.2l.1.2c.3.4.2 1.1-.2 1.4-.1.1-.2.1-.2.1-.7.4-1.2.2-1.7-.6-.3-.5-.7-.7-1.1-.5l-4.1 2.5c-.1.1-.1.3 0 .6z"/><path d="m448.2 773.6c.2-.2.3-.5.4-.8s.2-.5.2-.8c-.4.5-.8.8-1.3 1.1-1 .5-2.2.6-3.4.3-.9-.3-1.8-.3-2.6 0-.2.1-.4.3-.5.6s0 .6.1.9c.1-.1.3-.3.4-.3.5-.4 1.3-.3 1.7.2.1.1.1.2.2.3.2.4.2.8.1 1.2-.2.4-.6.8-1 1-.5.3-1.2.4-1.8.2-.6-.3-1.1-.7-1.4-1.4-.5-.8-.6-1.8-.4-2.8.2-.9.8-1.7 1.7-2.2 1.1-.5 2.3-.5 3.4-.3 1 .3 2 .2 3-.2.3-.1.6-.4.7-.7-.4.2-.9-.1-1.1-.5-.4-.8-.2-1.5.7-1.9.5-.3 1.1-.3 1.7-.1.6.3 1.2.8 1.5 1.5 1.3 2.5.6 5.2-2.3 8.1l-1.2 1.3c-.5.5-.8 1.2-1 1.8s-.1 1.2.2 1.7c.3.7 1 1.2 1.7 1.4.9.1 1.8 0 2.5-.5.7-.3 1.3-.8 1.7-1.4.4-.5.5-1.1.4-1.7-.6.3-1.4 0-1.7-.7-.2-.4-.3-.9-.1-1.4s.5-.9 1-1.1c.5-.3 1.1-.4 1.7-.2s1 .6 1.3 1.2c.6 1.2.6 2.7-.1 3.9-.7 1.4-1.9 2.6-3.3 3.2-1.3.8-2.9 1-4.4.8-1.4-.2-2.5-1.1-3.2-2.3-.5-.8-.6-1.8-.5-2.7.2-1 .6-1.9 1.2-2.6l.6-.7 1.4-1.5c.4-.4.7-.8 1-1.2.4-.1.7-.4.8-.7z"/><path d="m437.2 785c-.3.5-.7.9-1.2 1.3s-1 .8-1.5 1.1c-.7.4-1.5.7-2.4.8-.7.1-1.5.1-2.2-.1s-1.3-.5-1.9-1-1.1-1.1-1.4-1.8c-.8-1.5-1-3.2-.4-4.8.7-1.7 1.9-3 3.6-3.8 1.3-.7 2.8-1.1 4.3-.9 1.3.1 2.4.8 3 1.9.1.3.2.6.3.9 0 .3 0 .6-.1.8-.1.3-.2.5-.4.8-.2.2-.4.4-.7.6-.4.2-.9.3-1.3.2s-.8-.4-1-.8c-.2-.3-.2-.6-.1-.9s.3-.6.5-.8c-.4-.3-.8-.4-1.3-.4-.4 0-.9.1-1.3.2s-.9.3-1.3.5c-.9.4-1.6 1.2-1.9 2.2s-.2 2 .3 2.9c.4.8 1.1 1.5 1.9 1.7.9.2 1.8.1 2.6-.4 1-.5 1.9-1.4 2.2-2.5.1-.2.1-.4.2-.6 0-.1.1-.3.2-.4s.1-.2.2-.3.2-.2.3-.2l.1-.1c.5-.4 1.3-.2 1.6.3.1.1.1.2.1.3v.1.1c.3.7.6 1.3.9 2s.6 1.3.9 2c0 .1.1.2.1.2l.2.3c0 .1.1.2.1.3l.1.3c.3.5.5 1 .6 1.6 0 .4-.3.7-.9 1l-.3.1c-.1 0-.1.1-.2.1l-.5.3-.5.3-3.7 1.9-.5.3c-.1.1-.2.1-.4.2l-.2.1-.2.1c-.1.1-.2.1-.2.2l-.2.1c-.8.4-1.4.1-2-.9l-.1-.2c-.1-.2-.2-.3-.3-.5l-.4-.6c-.1-.1-.2-.1-.2-.2l-.1-.2c-.3-.5-.2-1.1.3-1.4.1 0 .2-.1.2-.1.7-.4 1.2-.1 1.7.7.3.6.7.7 1.1.5l4.3-2.2c.1-.1.1-.3 0-.6z"/><path d="m439.4 340.2c.6 0 1.2.1 1.8.3s1.2.4 1.7.8c.7.4 1.4 1 1.9 1.6s.8 1.2 1 1.9.2 1.4.1 2.1c-.1.8-.4 1.5-.8 2.2-.8 1.5-2.3 2.5-3.9 2.8-1.8.3-3.6-.1-5.1-1.1-1.3-.7-2.4-1.9-3-3.2-.6-1.1-.6-2.5.1-3.6.2-.3.4-.5.6-.7s.5-.3.8-.4.6-.1.9 0c.3 0 .6.1.8.3.4.2.7.6.9 1 .1.4.1.9-.2 1.2-.2.3-.4.5-.8.6-.3.1-.6.1-.9-.1 0 .5.1.9.4 1.3.2.4.5.7.8 1s.7.6 1.1.8c.8.6 1.9.8 2.9.5 1-.2 1.8-.9 2.3-1.8.5-.7.7-1.7.5-2.6-.3-.9-.8-1.6-1.6-2-1-.6-2.2-.9-3.3-.6l-.6.1c-.1 0-.3.1-.4.1s-.2 0-.3 0-.2-.1-.4-.1l-.1-.1c-.6-.3-.8-1-.6-1.5 0-.1.1-.2.2-.3v-.1s0 0 .1-.1c.4-.6.8-1.2 1.3-1.8.4-.6.9-1.2 1.3-1.8.1-.1.1-.1.2-.2l.2-.3.2-.2.2-.3c.3-.5.6-1 1.1-1.3.4-.1.9-.1 1.3.2l.3.2c.1 0 .1.1.2.1l.5.3.5.3 3.5 2.1.5.3c.1.1.2.1.4.2l.2.1.2.1.3.1.2.1c.8.5.8 1.2.3 2.1l-.1.1c-.1.2-.2.4-.3.5-.1.2-.2.4-.3.7 0 .1 0 .2-.1.3 0 .1-.1.2-.1.2-.2.5-.8.7-1.3.5-.1 0-.2-.1-.2-.2-.7-.4-.8-1-.3-1.8.3-.6.3-.9-.1-1.2l-4.1-2.5c-.1-.1-.3 0-.5.3z"/><path d="m239.3 527.2c8 5.7 52.6 27.2 54.7 28.2l5.4-8.4c-.1-.1-10.2-9.8-19.1-18-8-7.4-24.4-20.2-36.7-24.9-5.2-2-16.4-7.6-27.2-13-24.8-12.3-25.7-12.5-26.6-11.4l-.3.4.1.4c.4 3.4 42.8 41.8 49.7 46.7zm-23.9-34.3c10.9 5.4 22.2 11 27.4 13.1 10.7 4.1 26.2 15.4 36 24.5 7.7 7.1 16.1 15.1 19.3 18.1l-3.2 5.1c-5.5-2.7-47-22.8-54.4-28.1s-40-35.3-47.5-43.6c4.4 1.9 14.2 6.8 22.4 10.9z"/><path d="m313.9 584.5c-12 0-21.8-9.7-21.8-21.8s9.7-21.8 21.8-21.8 21.8 9.7 21.8 21.8c-.1 12.1-9.8 21.8-21.8 21.8zm0-41.5c-10.9 0-19.8 8.8-19.8 19.8s8.8 19.8 19.8 19.8 19.8-8.8 19.8-19.8c-.1-10.9-8.9-19.8-19.8-19.8z"/><path d="m315.4 839.4c-154.3 0-279.4-125.1-279.4-279.4s125.1-279.4 279.4-279.4 279.4 125.1 279.4 279.4c0 74.1-29.4 145.2-81.8 197.6-52.3 52.6-123.4 82-197.6 81.8zm0-556.8c-153.2 0-277.4 124.2-277.4 277.4s124.2 277.4 277.4 277.4 277.5-124.2 277.4-277.4c0-73.6-29.2-144.1-81.3-196.2-51.8-52.1-122.5-81.4-196.1-81.2z"/><path d="m315.4 798.1c-131.5 0-238.1-106.6-238.1-238.1s106.6-238.1 238.1-238.1 238.1 106.6 238.1 238.1c0 63.1-25.1 123.7-69.7 168.4-44.6 44.8-105.2 69.9-168.4 69.7zm0-474.2c-130.4 0-236.1 105.7-236.1 236.1s105.7 236.1 236.1 236.1 236.1-105.7 236.1-236.1c0-62.6-24.9-122.7-69.1-166.9-44.2-44.4-104.3-69.3-167-69.2z"/><path d="m312.1 882.1c-83.4 0-161.8-32.9-220.7-92.6s-91.4-139-91.4-223.5 32.5-163.7 91.4-223.4 137.3-92.6 220.7-92.6 161.8 32.9 220.7 92.6 91.4 139 91.4 223.4-32.5 163.8-91.4 223.5-137.3 92.6-220.7 92.6zm0-630.1c-82.8 0-160.7 32.7-219.3 92s-90.8 138.1-90.8 222 32.3 162.8 90.8 222.1 136.4 92 219.3 92 160.7-32.7 219.3-92 90.8-138.2 90.8-222.1-32.2-162.7-90.8-222-136.5-92-219.3-92z"/><path d="m589.6 425.8c-.5-.9-46.2-93.4-57.4-144.2-4.3-19.4-6.9-32.6-8.6-41.4-2.8-14.1-3.5-17.9-5.7-19.3-3.5-2.3-32.7-17.5-39.7-21.2.3 11.8 1.5 78.2-4.1 98.6l-1.9-.5c5.9-21.6 4-98.9 4-99.7v-1.7l1.5.8c1.5.8 37.4 19.4 41.4 22.1 2.8 1.9 3.5 5.1 6.5 20.6 1.7 8.8 4.3 22 8.6 41.4 11.1 50.6 56.7 142.9 57.2 143.8z"/><path d="m34.8 425.5-1.8-.9c.5-.9 46.1-93.1 57.2-143.8 4.3-19.3 6.9-32.6 8.6-41.4 3-15.5 3.7-18.7 6.5-20.6 4-2.7 39.9-21.3 41.4-22.1l1.5-.8v1.7c0 .8-1.9 78.1 4 99.7l-1.9.5c-5.6-20.4-4.3-86.8-4.1-98.6-7 3.6-36.3 18.9-39.7 21.2-2.2 1.4-2.9 5.2-5.7 19.3-1.7 8.8-4.3 22.1-8.6 41.4-5.9 26.6-21.2 64.4-33 91.4-12.7 29.5-24.3 52.8-24.4 53z"/><path d="m148.1 206.5-2-.1c.5-6.2 11.7-151.7 14.4-162.1l.2-.6c1.7-6.6 3.2-12.3 7.4-14.4 2.5-1.2 5.7-1 9.9.8 8.1 3.5 15.2-1.2 21.5-5.3 2-1.4 4-2.6 6.2-3.7.3-.2 47.1-21.1 90.8-21.1 38.2 0 99.1 10.8 118.4 19.1 19 8.2 36 10.8 40.8 9.4.9-.3 1.7-.6 2.5-1 2.3-1 4.9-2.2 7.4-.8 3.4 2 5.5 8.3 6.9 20.6 3 27.9 6.5 128.9 5.5 156.6l-2-.1c1-27.7-2.5-128.6-5.5-156.4-1.2-11.1-3.2-17.5-5.9-19.1-1.6-.9-3.5-.1-5.6.9-.9.4-1.8.8-2.8 1.1-5.9 1.6-23.7-1.6-42.2-9.5-19-8.1-79.5-18.8-117.5-18.8-43.3 0-89.6 20.7-90.1 20.9-2.1 1-4 2.2-5.9 3.6-6.4 4.2-14.3 9.4-23.4 5.4-3.5-1.5-6.2-1.8-8.2-.9-3.4 1.6-4.7 6.9-6.3 13.1l-.2.6c-2.6 10.3-14.2 160.3-14.3 161.8z"/><path d="m182.5 229.4h2v71.3h-2z" transform="matrix(.00942466 -1 1 .00942466 -83.2159 446.0475)"/><path d="m439.2 229.3h2v71.3h-2z" transform="matrix(.00942466 -1 1 .00942466 171.0626 702.7166)"/><path d="m662 610.5h-19.5c-7.2 0-13-5.8-13-13v-55.5c0-7.2 5.8-13 13-13h19.5c7.2 0 13 5.8 13 13v55.5c0 7.2-5.8 13-13 13zm-19.5-79.5c-6.1 0-11 4.9-11 11v55.5c0 6.1 4.9 11 11 11h19.5c6.1 0 11-4.9 11-11v-55.5c0-6.1-4.9-11-11-11z"/><path d="m673.7 604.4-1.7-1.1c4-6 8.2-12.9 8.5-14 .3-1.9.2-34.2-.3-37.1-.6-3.4-6.2-14-7.7-14.7l.8-1.8c2.6 1.1 8.3 13 8.9 16.2s.6 35.8.3 37.8c-.3 1.8-6.8 11.7-8.8 14.7z"/><path d="m622.9 540.7-1.4-1.4c2.9-2.9 6.7-4.8 10.8-5.5l.2 2c-3.6.7-7 2.4-9.6 4.9z"/><path d="m632.2 605.7c-4.1-.7-7.8-2.6-10.8-5.5l1.4-1.4c2.6 2.6 6 4.3 9.6 4.9z"/><path d="m630.7 537h42.5v2h-42.5z"/><path d="m630.7 548.3h42.5v2h-42.5z"/><path d="m630.7 558.5h42.5v2h-42.5z"/><path d="m630.7 571.3h42.5v2h-42.5z"/><path d="m630.7 585.2h42.5v2h-42.5z"/><path d="m630.7 593.8h42.5v2h-42.5z"/><path d="m630.7 602.5h42.5v2h-42.5z"/><path d="m476.2 935.7v-1.7c0-.8 1.9-78.1-4-99.7l1.9-.5c5.5 20.3 4.3 86.8 4.1 98.6 7-3.6 36.3-18.9 39.7-21.2 2.2-1.4 2.9-5.2 5.7-19.3 1.7-8.8 4.3-22.1 8.6-41.4 5.9-26.6 21.2-64.4 33-91.4 12.8-29.3 24.3-52.6 24.4-52.8l1.8.9c-.5.9-46.1 93.2-57.2 143.8-4.3 19.3-6.9 32.6-8.6 41.4-3 15.5-3.7 18.7-6.5 20.6-4 2.7-39.9 21.3-41.4 22.1z"/><path d="m148.3 936-1.5-.8c-1.5-.8-37.4-19.4-41.4-22.1-2.8-1.9-3.5-5.1-6.5-20.6-1.7-8.8-4.3-22-8.6-41.4-11.2-50.5-56.8-142.7-57.3-143.7l1.8-.9c.5.9 46.2 93.4 57.4 144.2 4.3 19.4 6.9 32.6 8.6 41.4 2.8 14.1 3.5 17.9 5.7 19.3 3.5 2.3 32.7 17.5 39.7 21.2-.3-11.8-1.5-78.2 4.1-98.6l1.9.5c-5.9 21.6-4 98.9-4 99.7z"/><path d="m305.2 1215.7c-28.7 0-102.2-11.8-115.7-16.7-7.1-2.6-8.9-4.6-10.2-6-.9-1-1.2-1.3-3.5-1.3-2.2.1-4.3.6-6.2 1.5-2.2.8-4.2 1.5-5.7.8-.9-.5-1.5-1.3-1.7-2.3-1.4-4.9-10.7-67.3-14.7-125.5-4-58-1.3-131-1.3-131.8l2 .1c0 .7-2.7 73.6 1.3 131.6 4 58.1 13.2 120.3 14.6 125.1.2.8.6 1 .7 1.1.8.4 2.4-.2 4.1-.8 2.2-.9 4.5-1.5 6.9-1.6 3 0 3.8.7 5 1.9s2.8 3 9.4 5.5c12.1 4.4 84.7 16.6 115 16.6 23.9 0 84.4-13.7 110.2-19.6 5.8-1.3 9.6-2.2 10.9-2.4 7.4-1.3 26.2 1.9 27 2 .2-.1 3.4-1.2 6.2-17.2 2.8-16.3 24.1-220.6 16.7-242.1l1.9-.7c4 11.6-.1 73-4.3 122.5-4.6 54.5-10.7 110.8-12.4 120.6-1.8 10.5-4.2 16.8-6.9 18.4-.5.3-1.1.5-1.7.4-.9-.2-19.4-3.3-26.3-2-1.3.2-5.3 1.2-10.8 2.4-25.7 5.7-86.4 19.5-110.5 19.5z"/></g><path d="m383.4 435.8c-1 0-1.8.8-1.8 1.8s.8 1.8 1.8 1.8 1.8-.8 1.8-1.8c.1-.9-.7-1.8-1.8-1.8.1 0 .1 0 0 0zm0 .3c.9 0 1.6.7 1.6 1.5 0 .9-.7 1.6-1.5 1.6-.9 0-1.6-.7-1.6-1.5 0-.9.6-1.6 1.5-1.6zm-.4 1.7h.4l.6 1h.3l-.6-1c.3 0 .6-.3.5-.6 0-.4-.2-.6-.7-.6h-.8v2.1h.2zm0-.2v-.7h.5c.3 0 .5.1.5.4s-.3.4-.6.4h-.4z" fill="#002e54"/><g fill="#fff"><path d="m268.3 508.8h-5.2l-1.4 3.2h-1.9l5.5-12.1h1l5.5 12.1h-2zm-4.6-1.4h4.1l-1.5-3.4-.5-1.8-.5 1.9z"/><path d="m282 500h1.8v7.8c0 .7-.1 1.3-.4 1.9-.2.5-.6 1-1 1.3-.4.4-1 .6-1.5.8-.7.2-1.3.3-2 .3-1.4.1-2.7-.3-3.9-1-.9-.7-1.4-1.8-1.4-3v-8.1h1.9v7.5c-.1.9.2 1.8.9 2.4.7.5 1.6.7 2.5.7.8.1 1.7-.2 2.3-.8.6-.7.8-1.5.7-2.4z"/><path d="m296.6 501.5h-4.5v10.5h-1.9v-10.5h-4.5v-1.5h10.9z"/><path d="m297.2 506c0-.9.1-1.8.4-2.6.2-.7.6-1.4 1.2-2 .5-.5 1.2-1 1.9-1.2 1.7-.6 3.5-.6 5.1 0 .7.3 1.4.7 1.9 1.3s.9 1.3 1.1 2c.3.8.4 1.7.4 2.5 0 .9-.1 1.8-.4 2.6-.2.7-.7 1.4-1.2 2-.5.5-1.2 1-1.9 1.2-.8.3-1.7.4-2.5.4-.9 0-1.8-.1-2.6-.5-.7-.3-1.3-.7-1.9-1.3-.5-.6-.9-1.3-1.1-2-.3-.7-.4-1.6-.4-2.4zm2 0c0 .6.1 1.2.2 1.8.1.5.4 1 .7 1.5.3.4.8.8 1.2 1 .6.3 1.2.4 1.8.4 1.1.1 2.2-.4 2.9-1.1.8-1 1.2-2.3 1.1-3.6 0-.6-.1-1.2-.2-1.8-.1-.5-.4-1-.7-1.5-.3-.4-.7-.8-1.2-1-.6-.3-1.2-.4-1.8-.4-1.1-.1-2.1.4-2.9 1.1-.8 1.1-1.2 2.3-1.1 3.6z"/><path d="m323.2 504.3.2-1.9h-.1l-.8 1.7-3.7 5.3h-.6l-3.9-5.3-.8-1.6h-.1l.3 1.9v7.7h-1.7v-12h1.4l4.5 6.1.7 1.3.7-1.3 4.3-6.1h1.5v12h-1.9z"/><path d="m335.5 508.8h-5.2l-1.4 3.2h-1.9l5.5-12.1h1l5.5 12.1h-2zm-4.7-1.4h4.1l-1.5-3.4-.5-1.8-.5 1.9z"/><path d="m349 501.5h-4.5v10.5h-1.9v-10.5h-4.5v-1.5h10.9z"/><path d="m352.2 501.2h-1.5v-1.2h4.9v1.1h-1.5v9.7h1.5v1.2h-4.9v-1.1h1.5z"/><path d="m368 511.5c-.5.3-1 .5-1.6.6-.7.1-1.4.2-2 .2-.8 0-1.6-.1-2.4-.4-.7-.2-1.4-.6-2-1.1s-1.1-1.2-1.4-1.9c-.4-.9-.6-1.8-.5-2.8 0-1 .2-2 .6-2.9.3-.7.9-1.4 1.5-1.9s1.3-.9 2-1.1 1.5-.3 2.3-.3c.7 0 1.4 0 2 .1.5.1.9.2 1.4.3l-.4 1.5c-.9-.3-1.9-.4-2.8-.4-.6 0-1.1.1-1.7.2-1.1.3-2 1.2-2.5 2.3-.3.7-.4 1.4-.4 2.2 0 .7.1 1.4.4 2 .2.6.6 1.1 1 1.5s.9.7 1.5.9 1.2.3 1.9.3c.5 0 1.1 0 1.6-.1.4-.1.8-.2 1.2-.4z"/><path d="m252.7 450.2c-.9 1.8-3 1.4-7 1.5v-7.4-3.3-2.1l.1-.5c.1-.8 2.8-.5 2.8-.5v-1.9h-9.4v1.9s2.3-.2 2.4.5c.1.2.1.4.2.6v11.5c0 .2-.1.3-.1.5-.3.9-2.5.8-2.5.8v1.9h16v-7.6h-1.9c0 1.4-.2 2.8-.6 4.1z"/><path d="m276.3 444.3c0-1.1-.3-2.2-.7-3.3-.1-.4-.3-.7-.5-1-1.4-2.3-3.6-3.8-6.2-4.3-3.4-.8-7 .2-9.7 2.5-.9.8-1.5 1.8-2 2.9-.4 1-.7 2.1-.7 3.3-.1 1.2.1 2.4.5 3.6 1.1 3.3 4 5.7 7.4 6.2 4 .6 7.9-.5 10.3-3.8 1.2-1.9 1.7-4 1.6-6.1zm-6.4 6.7c-1.7 1.2-3.9 1.5-5.8.7-2.7-1.2-3.2-4.1-3.3-6.8 0-.2 0-.4 0-.6.1-1.1.3-2.2.6-3.3.3-1 1-1.9 1.8-2.6 1.2-1 3.1-.9 4.8-.7 1.3.3 2.4 1.2 3 2.4.1.3.2.6.4.9.3 1.1.6 2.2.6 3.3.2 2.4-.5 4.8-2.1 6.7z"/><path d="m277.8 439.6v10.8c-.2.7.6 1.3-2.6 1.2v2.1h8.8v-2.1c-3.2 0-3.1-.2-3.2-1.2v-9.9l.3.5 2.2 3.3c2 2.9 4.7 6.9 6.3 9.4h3.5v-14.2c0-1.2-.3-1.4 2.7-1.4v-2.2h-8.5v2.2c3.1 0 2.8.2 2.8 1.4v4.8 2.8l-2-2.9-2.2-3.1-3.6-5.2h-7.1v2.2c2.7-.1 2.6.4 2.6 1.5z"/><path d="m388.5 446.3c-.5-.8-1.2-1.5-2.1-2-2.7-1.5-6.4-1.2-8.9-3-.1-.1-.2-.2-.2-.2-.3-.6-.3-1.3 0-1.9.9-1.6 3.1-1.5 4.7-1.2 1.6.4 3 1.6 3.6 3.2.2.6.4 1.2.6 1.8h1.9v-7h-1.6l-.9 1.3c-2.7-2-6.3-2.3-9.3-.7-1.5 1-2.4 2.7-2.3 4.5v.5c.1 1 .5 2 1.2 2.7 2 2.1 5.9 2.1 8.6 3 1 .2 1.8 1 2.1 1.9.1.8-.2 1.5-.8 2-1.5 1.1-3.7.8-5.4.3-2.2-.7-3.4-3-3.7-5.1h-2v7.2h1.4l1-1.4s.9 1.2 4.4 1.9c1.8.3 5.8.1 7.4-2.5 1-1.5 1.1-3.5.3-5.3z"/><path d="m353.8 438.1c2.2 0 2.9-.2 2.9 1v11.1c.1 1.4-.5 1.1-2.9 1.2v2.2h17v-7.6h-2v2.1c0 2.5-1.8 3.2-3.5 3.2h-4.8v-5.9s1.9-.2 2.6.4c.8.8.7 3.2.7 3.2h1.9v-8-.8h-1.9s0 .3-.1.8c-.1.8-.3 1.9-.7 2.1-.7.6-2.6.4-2.6.4v-5.4h5.1c.6 0 1.1.1 1.6.3.9.2 1.3 1.4 1.5 2.6.1.8.1 1.5.1 2.3h1.9v-2.3-5.1h-17z"/><path d="m345 438.1h1.6c1.2 0 1.2.5 1.2 1.1s0 1.1 0 1.8v3.1 3l-1.9-2.7-2.4-3.4-3.5-5.1h-7.2v2.2h2c.9.1.7.5.7 1.4v1.4 9c0 1.8-.4 1.5-2.7 1.5v2.1h8.7v-2.1c-2.5 0-3.2.4-3.1-1.3v-9.6l.2.4 2.2 3.3 6.4 9.4h3.4v-14.5c.1-.3-.1-1 .8-1h1.9v-2.1h-8.4z"/><path d="m328.5 451.5c-1.6-.1-2.6.3-2.5-1v-11.7c-.1-.9.9-.7 2.5-.7v-2.2h-9v2.2c1.5 0 2.5-.3 2.5.7v11.7c0 1.4-1.3 1-2.5 1v2.1h9z"/><path d="m318.7 444.3h-9.1v1.9s2.6-.2 2.8.8.2 2-.2 2.9c-.7 1.4-2.1 2.2-3.6 2.1-1.9.2-3.7-.9-4.5-2.6-.7-1.6-1-3.4-.9-5.1 0-1.1.3-2.2.7-3.3.3-.7.7-1.4 1.2-2 1.3-1.3 3.2-1.7 4.9-1 1.4.5 2.5 1.6 3.1 3 .3.6.5 1.2.7 1.8h2.1v-6.8h-2.1l-.7 1.4c-2.5-2-6-2.5-8.9-1.2-2.2.9-3.8 2.7-4.6 4.9-.4 1-.6 2-.6 3.1v.3c-.1 3.6 1.1 7 4.4 8.9 3.2 1.6 7.1 1.3 10.1-.8.4.4.7.9 1 1.3h2.1v-6.2c0-1.6.6-1.3 2.4-1.3z"/><path d="m328.7 461.1-1.6 2-1.8 2.3-1.4-2.3-1.2-2h-17.7l-1.4 2-1.5 2.2-1.3-2.2-1.2-2h-47.4l2.4 2 3.4 2.9h10l3.7 3.5h9.5l4.4 3.5h9.5l1.9 1.9 1.6 1.6h7.3v10.1h15.5v-10.1h7.2l1.5-1.6 1.8-1.9h9.9l3.2-3.5h10.3l3.1-3.5h10.4l3.1-2.9 2.2-2zm-20.9 13.8v-6.6l4.3 6.6.5.8-4.8 7.3zm2.6-5.6-1.9-2.9h10.3l-2 2.9zm5.6 1.4-2.1 3.2-2.3-3.2zm-2.3 6.4 2.1 3.4h-4.2zm-5.1 7.9 1.9-2.9h6.5l2 2.9zm11.2-1.8-4.9-7.5.5-.8 4.4-6.5zm50.2-20-1.5 1.3h-26.8l-1.5 1.6h16.2l-1.9 1.9h-21l-1.4 1.5h10.9l-1.9 1.9h-15.8l-1.5 1.5h6l-1.6 1.7h-6.6v-9.9h-15.6v9.9h-6.6l-1.6-1.7h5.9l-1.7-1.5h-15.6l-2.2-1.9h11.1l-1.6-1.5h-20.7l-2.1-1.9h16.6l-1.7-1.6h-27l-1.6-1.3-.6-.5h42l.3.5 3.2 5.4 3.5-5.4.3-.4h15.7l.3.5 3.4 5.5 4-5.5.3-.4h40.9z"/><path d="m166.9 460.4c.4.3.3.8-.2 1.6l-.4.6-.6.9-4.7 7.1-2.2 3.3-1.4 2.1c-.1.3-.5.5-.8.4-.1 0-.1-.1-.2-.1-.3-.1-.4-.5-.3-.8.6-1 1.2-2 1.9-3 .5-.8.5-1.4-.1-1.8s-2.6-.9-6-1.5l-12.7-2.6-1.7-.3c1.4 2.4 3.6 5.8 6.3 10.3s4.4 6.8 5 7.2c.4.4 1 .4 1.4 0 .1-.1.1-.1.1-.2.3-.3.9-1.2 1.9-2.6.3-.5.6-.6 1-.3.5.3.5.8 0 1.6l-3.2 4.8-.3.4-.5.8-1.7 2.5c-.4.6-.7.7-1.1.5-.3-.2-.3-.6 0-1.2.8-1.3 1.1-2.8.9-4.4-.7-2.1-1.7-4.1-3.1-5.9-.5-.8-1.4-2.1-2.4-3.8-3.1-5-5.2-8.5-6.4-10.3-1.5-.4-4.7-1.1-9.7-2.2l-8.1-1.8c-3.2-.7-5.3-1.1-6.1-1.2-.7-.1-1.5.1-2.1.4-.1.1-.8.9-2 2.4-.3.4-.6.5-.9.3s-.4-.7.1-1.4c.1-.1.2-.3.6-.7s.6-.7.8-1l4.4-6.6c.7-1.1 1.5-2.3 2.3-3.7.3-.6.6-1.1.9-1.5l.3-.4c.3-.5.6-.6 1-.3.3.1.4.4.4.7-.2.6-.5 1.1-.9 1.6-.9 1.4-.9 2.4 0 3 .6.4 3.2 1.1 7.9 2.1 1.5.3 4 .8 7.4 1.5-4.7-8.6-7.7-13.3-8.9-14.1-.8-.5-1.5-.2-2.2.9l-.7 1.1c-.2.4-.5.5-.9.2-.2-.1-.3-.3-.4-.5 0-.4.2-.7.4-1 .3-.4.7-1.1 1.4-1.9s1.1-1.4 1.4-1.9c.6-.9 1.1-1.8 1.6-2.7.2-.4.4-.7.6-1.1.4-.5.8-.7 1.1-.4s.1.7-.4 1.7c-.7.9-1.1 2-1 3.1.7 1.8 1.6 3.4 2.7 5 1.5 2.3 2.7 4.3 3.7 6l3.5 6.1c6.7 1.4 15.2 3.2 25.5 5.6 2 .5 3.4.6 4 .4s1.4-1.2 2.4-2.7c.6-.3 1-.6 1.4-.3z"/><path d="m232.2 402.3c.2.4-.1.9-.9 1.3l-.6.4-.9.5-7.4 4.2-3.4 2-2.2 1.3c-.3.2-.6.2-.9 0-.1-.1-.1-.1-.1-.2-.2-.3-.1-.6.1-.8 1-.7 2-1.4 3.1-1.9.8-.5 1-1 .7-1.6-.4-.6-1.9-2-4.6-4.1l-10.1-8.1-1.4-1c.2 2.8.5 6.8 1 12s.9 8.1 1.2 8.7c.4.7.9.9 1.5.6.4-.2 1.4-.7 2.9-1.5.5-.3.8-.2 1 .1.3.5 0 1-.8 1.4l-5 2.9-.4.3-.9.5-2.7 1.5c-.6.3-1 .3-1.2 0s0-.7.6-1c1.3-.8 2.3-2 2.7-3.5.3-2.2.3-4.5-.1-6.7-.1-1-.3-2.5-.4-4.5-.5-5.9-.9-9.9-1.1-12.1-1.2-1-3.7-3.1-7.7-6.3l-6.5-5.3c-2.6-2.1-4.2-3.4-4.9-3.8-.6-.4-1.3-.6-2.1-.6-.1 0-1.1.4-2.9 1.3-.4.3-.8.2-1-.1s0-.8.7-1.2l.8-.4c.4-.2.8-.4 1.2-.6l6.9-3.9c1.1-.6 2.3-1.4 3.7-2.3.5-.4 1-.7 1.4-.9l.4-.2c.5-.3.8-.2 1.1.2.2.2.2.5 0 .8-.4.4-1 .7-1.5 1-1.5.8-1.9 1.7-1.4 2.7.4.6 2.4 2.5 6.1 5.5 1.2 1 3.2 2.5 5.9 4.7-.4-9.8-.9-15.3-1.6-16.6-.4-.8-1.2-.9-2.3-.2l-1.1.6c-.4.2-.7.2-.9-.2-.1-.2-.2-.4-.1-.6s.3-.4.8-.7 1.2-.6 2.1-1.1 1.6-.8 2.1-1.1c.9-.5 1.8-1.1 2.7-1.7.3-.2.7-.5 1-.7.6-.3 1-.3 1.2.1.2.3-.2.7-1.1 1.3-1.3.8-2.1 1.6-2.3 2.3-.2 1.9-.1 3.8.2 5.6.3 2.8.5 5.1.6 7l.4 7.1c5.3 4.2 12.1 9.7 20.2 16.5 1.6 1.3 2.8 2 3.4 2.1s1.8-.4 3.4-1.3c.7-.2 1.2-.2 1.4.3z"/><path d="m320.4 384.7c0 .5-.5.7-1.5.7h-16.8c-.5 0-.7-.2-.7-.7 0-.3.2-.6.5-.6 1.2-.1 2.4-.1 3.6-.1.9 0 1.4-.4 1.4-1.1s-.7-2.7-2-5.8c-1.1-2.7-2.7-6.7-4.8-12-.1-.3-.4-.9-.7-1.6-1.2 2.5-2.9 6.2-5 11-2.2 4.8-3.2 7.5-3.2 8.1 0 .8.3 1.2 1 1.2.4 0 1.5.1 3.3.1.6 0 .8.2.8.6 0 .6-.5.9-1.4.9h-10.4c-.7 0-1-.2-1-.6s.3-.6 1-.6c1.5 0 3-.6 4.1-1.7 1.4-1.8 2.5-3.7 3.2-5.9.4-.9 1-2.3 1.8-4.1 2.5-5.3 4.2-9 5-11-.5-1.4-1.7-4.5-3.5-9.3l-3-7.8c-1.2-3.1-2-5-2.3-5.7s-.9-1.2-1.5-1.5c-.1 0-1.2-.1-3.1-.3-.5 0-.8-.2-.8-.6s.4-.7 1.2-.7l.9.1c.5 0 .9.1 1.3.1l7.9.1c1.3 0 2.7 0 4.3-.1.7 0 1.2-.1 1.7-.1h.5c.6 0 .8.2.8.7 0 .3-.1.6-.4.7-.6.1-1.2.2-1.8.1-1.7 0-2.5.6-2.5 1.7 0 .7.9 3.3 2.6 7.8.6 1.4 1.5 3.8 2.8 7 4.5-8.7 6.8-13.7 6.8-15.2 0-.9-.6-1.4-1.9-1.4h-1.3c-.4 0-.7-.2-.7-.6 0-.2.1-.4.2-.6.3-.2.7-.2 1-.2.5 0 1.3 0 2.3.1s1.8.1 2.3.1c1.1 0 2.1 0 3.2-.1.4 0 .8-.1 1.2-.1.7 0 1 .2 1 .7s-.5.5-1.6.6c-1.1-.1-2.2.2-3.1.9-1.1 1.5-2 3.2-2.6 5-1.1 2.5-2.1 4.7-3 6.4l-3.2 6.3c2.5 6.3 5.6 14.4 9.4 24.3.7 2 1.4 3.2 1.9 3.6.6.4 1.8.6 3.6.5.8 0 1.2.2 1.2.7z"/><path d="m243.4 395.8c.2.4.1.6-.3.9-.2.1-.4.2-.6.3-1.9.9-3.5 1.7-4.8 2.5s-3.2 1.9-5.8 3.6c-.8.5-1.5.9-1.9 1.2-.4.2-.8.2-1-.2-.1-.1-.1-.4 0-.5.5-.4 1.1-.8 1.7-1.1.8-.8 1.1-1.5 1-2.1-.7-1.8-1.6-3.5-2.6-5.2l-17.2-30.2-1.3-2.3-.6-1c-.6-1-1.6-1.1-3.1-.3-.8.5-1.3.6-1.5.3s-.2-.5-.1-.6c.4-.3.7-.5 1.1-.7l1.6-.9 3.6-2 2.3-1.3 2-1.2 1.9-1.1.4-.3c.4-.2.7-.2.9.1s.2.5.1.6c-.4.4-.8.7-1.3.9-.9.6-1.3 1.2-1.2 1.8l.5 1.3 20.1 35.3c1 1.8 1.8 2.8 2.2 2.9.5.2 1.6-.2 3.3-1 .1-.1.4 0 .6.3z"/><path d="m410.2 412.1c-.1.3-.5.4-.8.2 0 0-.1-.1-.1-.1-.2-.1-.4-.3-.5-.4-1.7-1.2-3.1-2.3-4.4-3.1-1.2-.8-3.2-2-5.9-3.5-.9-.5-1.5-.9-1.9-1.1s-.5-.6-.3-1c.1-.2.3-.3.5-.2.6.3 1.2.6 1.8 1 .7.4 1.6.3 2.3-.1 1.3-1.5 2.4-3.1 3.4-4.7l18.8-29.1 1.4-2.2.6-1.1c.7-1 .3-2-1.2-2.9-.8-.5-1.1-.9-1-1.2.2-.3.3-.4.5-.4.4.2.8.4 1.2.7l1.6 1 3.4 2.2 2.2 1.4 2 1.3 1.8 1.2.4.3c.4.2.5.5.3.8s-.4.4-.5.3c-.5-.2-1-.4-1.4-.7-1-.5-1.7-.6-2.2-.3l-.9 1.1-22 34.1c-1.1 1.7-1.6 2.9-1.6 3.4s.9 1.3 2.4 2.5c.3 0 .3.3.1.6 0-.1 0 0 0 0z"/><path d="m326.7 384.8c0 .4-.2.6-.7.6-.2 0-.5 0-.7-.1-2.1-.1-3.9-.2-5.3-.2-1.5 0-3.8.1-6.8.2-1 0-1.7.1-2.2.1s-.7-.2-.8-.6c0-.2.1-.4.3-.4.7-.1 1.3-.1 2-.1 1.1-.3 1.7-.7 1.9-1.3.3-1.9.3-3.9.3-5.8v-37.3c0-.9 0-1.3 0-1.2 0-1.2-.9-1.8-2.6-1.8-1 0-1.5-.2-1.5-.5s.1-.5.2-.6c.4-.1.9-.1 1.4-.1h13.6c.4 0 .7.2.7.5s-.1.5-.2.5c-.5.1-1 .2-1.6.2-1.1.1-1.7.4-2 .9l-.2 1.4v40.6c0 2.1.2 3.3.5 3.7s1.4.7 3.3.8c.2 0 .5.2.4.5zm17.5 0c0 .4-.2.6-.7.6-.2 0-.5 0-.7-.1-2.1-.1-3.9-.2-5.3-.2-1.5 0-3.8.1-6.8.2-1 0-1.7.1-2.2.1s-.7-.2-.8-.6c0-.2.1-.4.3-.4.7-.1 1.3-.1 2-.1 1.1-.3 1.7-.7 1.9-1.3.3-1.9.3-3.9.3-5.8v-37.3c0-.9 0-1.3 0-1.2 0-1.2-.9-1.8-2.6-1.8-1 0-1.5-.2-1.5-.5s.1-.5.2-.6c.4-.1.9-.1 1.4-.1h13.6c.4 0 .7.2.7.5 0 .4-.1.5-.2.5-.5.1-1 .2-1.6.2-1.1.1-1.7.4-2 .9l-.2 1.4v40.6c0 2.1.2 3.3.5 3.7s1.4.7 3.3.8c.2 0 .4.2.4.5z"/><path d="m469.8 475.2c-.4.2-.6.1-.9-.3-.1-.2-.2-.4-.3-.6-.9-1.9-1.7-3.5-2.5-4.8s-1.9-3.2-3.6-5.8c-.5-.8-.9-1.5-1.2-1.9s-.2-.8.2-1c.1-.1.4-.1.5 0 .4.5.8 1.1 1.1 1.7.8.8 1.5 1.1 2.1 1 1.8-.7 3.5-1.6 5.2-2.6l30.1-17.1 2.3-1.3 1-.6c1-.6 1.1-1.6.3-3.1-.5-.8-.6-1.3-.3-1.5s.5-.2.6-.1c.3.4.5.7.7 1.1l.9 1.6 2 3.6 1.3 2.3 1.2 2 1.1 1.9.3.5c.2.4.2.7-.1.9s-.5.2-.6 0c-.4-.4-.7-.8-.9-1.3-.6-.9-1.2-1.3-1.8-1.2l-1.3.5-35.3 20.1c-1.8 1-2.8 1.8-2.9 2.2-.2.5.2 1.6 1 3.3.3 0 .2.3-.2.5.1 0 .1 0 0 0zm8.6 15.1c-.4.2-.6.1-.9-.3-.1-.2-.2-.4-.3-.6-.9-1.9-1.7-3.5-2.5-4.8s-1.9-3.2-3.6-5.8c-.5-.8-.9-1.5-1.2-1.9s-.2-.8.2-1c.1-.1.4-.1.5 0 .4.5.8 1.1 1.1 1.7.8.8 1.5 1.1 2.1 1 1.8-.7 3.5-1.6 5.2-2.6l30.1-17.1 2.3-1.3 1-.6c1-.6 1.1-1.6.3-3.1-.5-.8-.6-1.3-.3-1.5s.5-.2.6-.1c.3.4.5.7.7 1.1l.9 1.6 2 3.6 1.3 2.3 1.2 2 1.1 1.9.3.5c.2.4.2.7-.1.9s-.5.2-.6 0c-.4-.4-.7-.8-.9-1.3-.6-.9-1.2-1.3-1.8-1.2l-1.1.3-35.3 20.1c-1.8 1-2.8 1.8-2.9 2.2s.2 1.6 1 3.3c.1.3-.1.6-.4.7z"/><path d="m496.2 555.5c-.4 0-.6-.2-.6-.7 0-.2 0-.5.1-.7.1-2.1.2-3.9.2-5.3s-.1-3.8-.2-6.8c0-1-.1-1.7-.1-2.2s.2-.7.6-.8c.2 0 .4.1.4.3.1.7.1 1.3.1 2 .3 1.1.7 1.7 1.3 1.9 1.9.3 3.9.3 5.8.3h37.3 1.2c1.2 0 1.8-.9 1.8-2.6 0-1 .2-1.5.5-1.5s.5.1.6.2c.1.4.1.9.1 1.3v13.6c0 .5-.2.7-.5.7s-.4-.1-.5-.2c-.1-.5-.2-1-.2-1.6-.1-1.1-.4-1.7-.9-2l-1.4-.2h-40.6c-2.1 0-3.3.2-3.7.5s-.7 1.4-.8 3.3c.1.3-.2.5-.5.5zm0 17.4c-.4 0-.6-.2-.6-.7 0-.2 0-.5.1-.7.1-2.1.2-3.9.2-5.3s-.1-3.8-.2-6.8c0-1-.1-1.7-.1-2.2s.2-.7.6-.8c.2 0 .4.1.4.3.1.7.1 1.3.1 2 .3 1.1.7 1.7 1.3 1.9 1.9.3 3.9.3 5.8.3h37.3 1.2c1.2 0 1.8-.9 1.8-2.6 0-1 .2-1.5.5-1.5s.5.1.6.2c.1.4.1.9.1 1.3v13.6c0 .5-.2.7-.5.7s-.4-.1-.5-.2c-.1-.5-.2-1-.2-1.6-.1-1.1-.4-1.7-.9-2l-1.4-.2h-40.6c-2.1 0-3.3.2-3.7.5s-.7 1.4-.8 3.3c.1.3-.1.6-.5.5zm0 17.5c-.4 0-.6-.2-.6-.7 0-.2 0-.5.1-.7.1-2.1.2-3.9.2-5.3s-.1-3.8-.2-6.8c0-1-.1-1.7-.1-2.2s.2-.7.6-.8c.2 0 .4.1.4.3.1.7.1 1.3.1 2 .3 1.1.7 1.7 1.3 1.9 1.9.3 3.9.3 5.8.3h37.3 1.2c1.2 0 1.8-.9 1.8-2.6 0-1 .2-1.5.5-1.5s.5.1.6.2c.1.4.1.9.1 1.3v13.6c0 .5-.2.7-.5.7s-.4-.1-.5-.2c-.1-.5-.2-1-.2-1.6-.1-1.1-.4-1.7-.9-2l-1.4-.2h-40.6c-2.1 0-3.3.2-3.7.5s-.7 1.4-.8 3.3c.1.3-.2.5-.5.5z"/><path d="m457.2 677c.9-1.2 1.6-1.9 2-1.9s1.6.5 3.4 1.5l35.2 20.3 1.1.8c.4.6.4 1.3 0 1.8-.2.4-.4.8-.5 1.2 0 .1.1.3.4.4.2.2.5.1.7-.1 0 0 0-.1.1-.1l.2-.4.9-1.5 1-1.6 1.1-1.8 1.6-2.8.8-1.3c.2-.3.4-.6.5-1 0-.1-.1-.3-.4-.4s-.6.1-1 .8c-.7 1.2-1.5 1.5-2.6.9l-1.1-.6-2.3-1.3-30-17.3c-1.7-.9-3.3-1.9-4.9-3.1-.5-.5-.6-1.3-.4-2 .3-.5.5-1 .7-1.5 0-.2-.1-.3-.3-.4-.2-.2-.6-.2-.8.1 0 0-.1.1-.1.1-.2.3-.5.9-.8 1.6-1.1 2.2-1.9 3.8-2.6 4.9-.6 1.1-1.4 2.3-2.3 3.6-.1.1-.2.3-.3.4-.2.3-.1.6.3.8s.3.1.4-.1z"/><path d="m478.1 640.8c.9-1.2 1.6-1.9 2-1.9s1.6.5 3.4 1.5l35.2 20.3 1.1.8c.4.6.4 1.3 0 1.8-.2.4-.4.8-.5 1.2 0 .1.1.3.3.4.2.2.5.1.7-.1 0 0 0-.1.1-.1l.2-.4.9-1.5 1-1.6 1.1-1.8 1.6-2.8.8-1.3c.2-.3.4-.6.5-1 0-.1-.1-.3-.4-.4-.3-.2-.6.1-1 .8-.7 1.2-1.5 1.5-2.6.9l-1.1-.6-2.2-1.3-30-17.3c-1.7-.9-3.3-1.9-4.9-3.1-.5-.5-.6-1.3-.4-2 .3-.5.5-1 .7-1.5 0-.2-.1-.3-.3-.4-.2-.2-.6-.2-.8.1 0 0-.1.1-.1.1-.2.3-.5.9-.8 1.6-1.1 2.2-1.9 3.8-2.6 4.9-.6 1.1-1.4 2.3-2.3 3.6-.1.1-.2.3-.3.4-.2.3-.1.6.3.8s.3.1.4-.1z"/><path d="m471.1 652.9c.9-1.2 1.6-1.9 2-1.9s1.6.5 3.4 1.5l35.2 20.3 1.1.8c.4.6.4 1.3 0 1.8-.2.4-.4.8-.5 1.2 0 .1.1.3.3.4.2.2.5.1.7-.1 0 0 0-.1.1-.1l.2-.4.9-1.5 1-1.6 1.1-1.8 1.6-2.8.8-1.3c.2-.3.4-.6.5-1 0-.1-.1-.3-.4-.4s-.6.1-1 .8c-.7 1.2-1.5 1.5-2.6.9l-1.1-.6-2.2-1.3-30-17.3c-1.7-.9-3.3-1.9-4.9-3.1-.5-.5-.6-1.3-.4-2 .3-.5.5-1 .7-1.5 0-.2-.1-.3-.3-.4-.2-.2-.6-.2-.8.1 0 0-.1.1-.1.1-.2.3-.5.9-.8 1.6-1.1 2.2-1.9 3.8-2.6 4.9-.6 1.1-1.4 2.3-2.3 3.6-.1.1-.2.3-.3.4-.2.3-.1.6.3.8s.3.1.4-.1z"/><path d="m464.1 665c.9-1.2 1.6-1.9 2-1.9s1.6.5 3.4 1.5l35.2 20.3 1.1.8c.4.6.4 1.3 0 1.8-.2.4-.4.8-.5 1.2 0 .1.1.3.4.4.2.2.5.1.7-.1 0 0 0-.1.1-.1l.2-.4.9-1.5 1-1.6 1.1-1.8 1.6-2.8.8-1.3c.2-.3.4-.6.5-1 0-.1-.1-.3-.4-.4-.3-.2-.6.1-1 .8-.7 1.2-1.5 1.5-2.6.9l-1.1-.6-2.3-1.2-30-17.3c-1.7-.9-3.3-1.9-4.9-3.1-.5-.5-.6-1.3-.4-2 .3-.5.5-1 .7-1.5 0-.2-.1-.3-.3-.4-.2-.2-.6-.2-.8.1 0 0-.1.1-.1.1-.2.3-.5.9-.8 1.6-1.1 2.2-1.9 3.8-2.6 4.9s-1.4 2.3-2.3 3.6c-.1.1-.2.3-.3.4-.2.3-.1.6.3.8.1 0 .3 0 .4-.2z"/><path d="m413.2 771.7c-.2-.2-.1-.6.2-.7 1.6-1 2.4-1.7 2.6-2.4.2-.6 0-2.1-.6-4.3-.3-1-.6-2.6-1.2-4.8-1.7-7.1-4.8-19-9.1-35.7-.7-2.4-.9-3.6-.7-3.7s.7.1 1.3.8c1.3 1.5 2.9 3.2 4.7 5.1 2.8 2.9 6.4 6.8 11 11.6 2 2.1 5 5.3 9.1 9.4 2.2 2.3 4.5 4.8 7.1 7.7 1.3 1.6 2.6 2 3.9 1.3l1.5-.8c.2-.2.6-.1.8.1 0 0 .1.1.1.1.2.4-.3.8-1.4 1.4l-7.7 4.1-1.2.7-1.7.9-2.6 1.4c-.6.3-1 .3-1.2-.1s.2-.9 1.3-1.4c1.7-1 2.4-1.8 2-2.5 0-.1-.9-1.1-2.6-2.9-7.5-8.4-13.8-15.2-18.9-20.4.3 1.6 1.1 4.8 2.4 9.6.3 1.3 1.1 4.2 2.2 8.8 1.7 6.5 2.9 10.4 3.5 11.6.4.8.9 1.1 1.4 1 .7-.3 1.5-.6 2.2-1 .6-.3 1-.3 1.2.1s.1.7-.3.9l-2.1 1.2-1.6.9-1.2.6-1 .6-1.5.8-.8.4c-.3.2-.7.2-1-.1 0-.1-.1-.2-.1-.3z"/><path d="m305.9 794.3c0-.3.2-.5.5-.6 1.8-.1 3-.4 3.5-.8.5-.5 1-1.8 1.5-4 .3-1 .7-2.6 1.2-4.8 1.8-7.1 4.8-19 8.9-35.7.6-2.4.9-3.6 1.2-3.6s.5.4.8 1.3c.4 2 1 4.2 1.7 6.7 1 3.9 2.4 9 4.2 15.5.8 2.8 1.9 7 3.5 12.6.9 3 1.7 6.4 2.6 10.1.4 2 1.4 3 2.8 3h1.7c.3 0 .6.2.6.5v.1c0 .4-.6.6-1.9.6h-15c-.7 0-1-.2-1-.7s.6-.7 1.8-.7c2 0 3-.5 3-1.3 0-.1-.3-1.4-.9-3.8-2.7-11-5-19.9-7-26.9-.4 1.5-1.3 4.7-2.5 9.6-.3 1.3-1 4.2-2.2 8.8-1.6 6.5-2.4 10.5-2.4 11.9 0 .9.3 1.4.8 1.5.8.1 1.6.1 2.4.1.7 0 1 .2 1 .7 0 .4-.2.6-.7.6h-9.4c-.4.1-.7-.2-.8-.6.1.1.1 0 .1-.1zm-14.4-48.5c0-.4.2-.6.7-.6.2 0 .5 0 .7.1 2.1.1 3.9.2 5.3.2s3.8-.1 6.8-.2c1 0 1.8-.1 2.2-.1.5 0 .7.2.8.7 0 .2-.1.4-.3.4-.7.1-1.3.1-2 .1-1.1.3-1.7.7-1.9 1.3-.3 1.9-.3 3.9-.3 5.8v37.3c0 .9 0 1.3 0 1.2 0 1.2.9 1.8 2.6 1.8 1 0 1.5.2 1.5.5s-.1.5-.2.6c-.4.1-.9.1-1.4.1h-13.6c-.4 0-.7-.2-.7-.5s.1-.5.2-.5c.5-.1 1-.2 1.6-.2 1.1-.1 1.7-.4 2-.9l.2-1.4v-40.6c0-2.1-.2-3.3-.5-3.7s-1.4-.6-3.3-.8c-.2 0-.4-.3-.4-.6z"/><path d="m201.9 761.6c.1-.3.4-.4.7-.3 1.6.8 2.8 1.1 3.4.9s1.7-1.1 3.3-2.8l3.4-3.5c5.1-5.3 13.5-14.2 25.2-26.8 1.7-1.8 2.6-2.7 2.8-2.6s.2.6 0 1.5c-.5 1.9-1.1 4.1-1.8 6.7-1 3.9-2.3 9.1-3.9 15.5-.7 2.8-1.8 7.1-3.1 12.7-.7 3.1-1.6 6.4-2.7 10.1-.6 2-.3 3.3 1 3.9l1.5.8c.3.1.4.4.3.7 0 0 0 .1-.1.1-.2.4-.8.2-1.9-.4l-7.6-4.3-1.2-.7-1.7-1-2.5-1.1c-.6-.3-.8-.7-.5-1 .2-.3.8-.2 1.9.3 1.7.9 2.8 1 3.2.3 0-.1.4-1.3 1.1-3.8 3.1-10.8 5.4-19.8 7.1-26.8-1.1 1.1-3.4 3.5-6.9 7.1-.9 1-3 3.2-6.2 6.6-4.6 4.9-7.2 8-7.9 9.2-.4.7-.4 1.3-.1 1.7.6.5 1.3.9 2 1.3.6.3.8.7.6 1.1s-.5.4-.9.2l-2.1-1.2-1.6-.9-1.2-.7-1-.6-1.4-.8-.8-.5c-.4-.1-.5-.5-.4-.9-.1.1-.1.1 0 0zm11.2-49.3c.1-.3.5-.4.8-.3 0 0 .1.1.1.1.2.1.4.2.6.4 1.7 1.1 3.3 2.1 4.6 2.8s3.3 1.8 6.1 3.2c.9.4 1.6.8 2 1s.6.5.4 1c-.1.2-.3.3-.5.2-.6-.2-1.2-.5-1.8-.8-.8-.3-1.6-.2-2.3.2-1.2 1.6-2.2 3.2-3.1 4.9l-16.9 30.2-1.3 2.3-.6 1.1c-.6 1-.1 2 1.4 2.8.8.5 1.2.9 1 1.2s-.3.4-.5.4c-.4-.2-.8-.4-1.2-.6l-1.6-.9-3.6-2-2.3-1.3-2-1.2-1.9-1-.4-.2c-.4-.2-.5-.5-.3-.8s.3-.4.4-.3l1.5.6c1 .4 1.7.5 2.2.2l.8-1.1 19.9-35.4c1-1.8 1.5-2.9 1.4-3.4s-.9-1.3-2.5-2.4c-.5-.4-.6-.7-.4-.9zm-15.2-8.5c.1-.3.5-.4.8-.3 0 0 .1.1.1.1.2.1.4.2.6.4 1.7 1.1 3.3 2.1 4.6 2.8s3.3 1.8 6.1 3.2c.9.4 1.6.8 2 1s.6.5.4 1c-.1.2-.3.3-.5.2-.6-.2-1.2-.5-1.8-.8-.8-.3-1.6-.2-2.3.2-1.2 1.6-2.2 3.2-3.1 4.9l-16.9 30.2-1.3 2.3-.6 1.1c-.6 1-.1 2 1.4 2.8.8.5 1.2.9 1 1.2s-.3.4-.5.4c-.4-.2-.8-.4-1.2-.6l-1.6-.9-3.6-2-2.3-1.3-2.1-1.2-1.9-1-.4-.2c-.4-.2-.5-.5-.3-.8s.3-.4.4-.3l1.5.6c1 .4 1.7.5 2.2.2l.8-1.1 19.9-35.4c1-1.8 1.5-2.9 1.4-3.4s-.9-1.3-2.5-2.4c-.4-.4-.5-.7-.3-.9z"/><path d="m123 686.4c.2-.2.6-.1.7.1 1 1.5 1.9 2.3 2.5 2.5s2.1-.1 4.3-.8l4.7-1.4c7-2.1 18.7-5.8 35.1-11.1 2.3-.8 3.6-1.1 3.7-.9s-.1.7-.7 1.3c-1.4 1.4-3 3.1-4.8 5-2.8 2.9-6.4 6.8-11 11.7-2 2.1-5 5.3-8.9 9.6-2.1 2.3-4.5 4.8-7.2 7.5-1.5 1.4-1.8 2.7-1.1 3.9l.9 1.5c.2.2.2.6-.1.8 0 0-.1.1-.1.1-.3.2-.8-.2-1.5-1.3l-4.5-7.5-.7-1.2-1-1.7-1.6-2.5c-.3-.6-.3-1 0-1.2s.8.2 1.5 1.2c1.1 1.7 2 2.3 2.6 1.8l2.8-2.8c7.9-8 14.4-14.7 19.2-20-1.5.4-4.7 1.4-9.5 2.9-1.3.4-4.1 1.3-8.6 2.7-6.4 2.1-10.2 3.5-11.4 4.2-.7.4-1 .9-.9 1.5.3.7.7 1.4 1.1 2.1.4.6.3 1-.1 1.3-.4.2-.7.1-.9-.3l-1.3-2.1-.9-1.5-.7-1.2-.6-1-.9-1.4-.5-.8c-.3-.3-.2-.7 0-1 .2.1.3 0 .4 0zm33.8-37.6c.3-.2.6-.1.9.2l.3.6c1 1.8 1.8 3.4 2.6 4.7s2 3.2 3.8 5.7c.6.8 1 1.4 1.2 1.9s.2.7-.1 1c-.1.1-.4.1-.5 0-.4-.5-.8-1.1-1.2-1.6-.8-.8-1.5-1.1-2.1-.9-1.8.8-3.5 1.7-5.1 2.8l-29.5 18.1-2.3 1.4-1 .7c-1 .6-1.1 1.7-.2 3.2.5.8.6 1.3.3 1.5s-.5.2-.6.1c-.3-.3-.6-.7-.8-1.1l-1-1.6-2.1-3.5-1.4-2.2-1.2-2-1.1-1.8-.3-.4c-.2-.4-.2-.7.1-.9s.5-.2.6-.1c.4.4.7.8 1 1.3.7.9 1.3 1.3 1.8 1.2l1.2-.6 34.6-21.3c1.8-1.1 2.7-1.9 2.9-2.3s-.2-1.6-1.1-3.3c-.1-.4 0-.7.3-.8zm-9.1-14.9c.3-.2.6-.1.8.1 0 0 .1.1.1.1.1.2.2.4.3.6 1 1.8 1.8 3.4 2.6 4.7s2 3.2 3.8 5.7c.6.8 1 1.4 1.2 1.9s.2.7-.1 1c-.1.1-.4.1-.5 0-.4-.5-.8-1.1-1.2-1.6-.8-.8-1.5-1.1-2.1-.9-1.8.8-3.5 1.7-5.1 2.8l-29.5 18.1-2.3 1.4-1 .7c-1 .6-1.1 1.7-.2 3.2.5.8.6 1.3.3 1.5s-.5.2-.6.1c-.3-.3-.6-.7-.8-1.1l-1-1.6-2.1-3.5-1.4-2.2-1.2-2-1.2-1.8-.3-.4c-.2-.4-.2-.7.1-.9s.5-.2.6-.1c.4.4.7.8 1 1.3.7.9 1.3 1.3 1.8 1.2l1.2-.6 34.6-21.3c1.8-1.1 2.7-1.9 2.9-2.3.2-.5-.2-1.6-1.1-3.3 0-.3.1-.6.4-.8zm-9.1-14.8c.3-.2.6-.1.8.1 0 0 .1.1.1.1.1.2.2.4.3.6 1 1.8 1.8 3.4 2.6 4.7s2 3.2 3.8 5.7c.6.8 1 1.4 1.2 1.9s.2.7-.1 1c-.1.1-.4.1-.5 0-.4-.5-.8-1.1-1.2-1.6-.8-.8-1.5-1.1-2.1-.9-1.8.8-3.5 1.7-5.1 2.8l-29.5 18.1-2.2 1.4-1 .7c-1 .6-1.1 1.7-.2 3.2.5.8.6 1.3.3 1.5s-.5.2-.6.1c-.3-.3-.6-.7-.8-1.1l-1-1.6-2.1-3.5-1.4-2.3-1.2-2-1.1-1.8-.3-.4c-.2-.4-.2-.7.1-.9s.4-.2.6-.1c.4.4.7.8 1 1.3.7.9 1.3 1.3 1.8 1.2l1.2-.6 34.6-21.3c1.8-1.1 2.7-1.9 2.9-2.3s-.2-1.6-1.1-3.3c-.2-.3-.1-.6.2-.7z"/><path d="m133.9 574.4c.4 0 .6.2.6.7 0 .2 0 .5-.1.7-.1 2.1-.2 3.9-.2 5.3s.1 3.8.2 6.8c0 1 .1 1.7.1 2.2s-.2.7-.6.8c-.2 0-.4-.1-.4-.3-.1-.7-.1-1.3-.1-2-.3-1.1-.7-1.7-1.3-1.9-1.9-.3-3.9-.3-5.8-.3h-37.5-1.2c-1.2 0-1.8.9-1.8 2.6 0 1-.2 1.5-.5 1.5s-.5-.1-.6-.2c-.1-.4-.1-.9-.1-1.3v-13.6c0-.5.2-.7.5-.7s.4.1.5.2c.1.5.2 1 .2 1.6.1 1.1.4 1.7.9 2l1.4.2h40.6c2.1 0 3.3-.2 3.7-.5s.6-1.4.8-3.3c.1-.3.3-.5.7-.5-.1 0 0 0 0 0zm-.2-37.3c.5 0 .7.5.7 1.5v16.8c0 .5-.2.7-.7.7-.3 0-.6-.2-.6-.5-.1-1.2-.1-2.4-.1-3.6 0-.9-.4-1.4-1.1-1.4s-2.7.7-5.8 2l-12 4.8-1.6.7c2.5 1.2 6.2 2.9 10.9 5 4.8 2.2 7.5 3.2 8.1 3.2.8 0 1.2-.3 1.2-1 0-.4.1-1.5.1-3.3 0-.6.2-.8.6-.8.6 0 .9.5.9 1.3v10.5c0 .7-.2 1-.6 1s-.6-.3-.6-1c-.1-1.5-.7-2.9-1.7-4-1.8-1.4-3.7-2.5-5.8-3.2-.9-.4-2.3-1-4.1-1.8-5.3-2.5-9-4.2-11-5-1.4.5-4.5 1.7-9.3 3.5l-7.8 3c-3.1 1.2-5 2-5.7 2.3s-1.2.9-1.6 1.5c0 .1-.1 1.2-.3 3.1 0 .5-.2.8-.6.8s-.7-.4-.7-1.2c0-.1 0-.4.1-.9s.1-.9.1-1.3l.1-7.9c0-1.3 0-2.7-.1-4.3 0-.7-.1-1.2-.1-1.7v-.5c0-.5.2-.8.7-.8.3 0 .6.1.7.4.1.6.2 1.2.2 1.8 0 1.7.6 2.5 1.7 2.5.7 0 3.3-.9 7.8-2.6 1.4-.6 3.8-1.5 7-2.8-8.7-4.5-13.7-6.8-15.2-6.8-.9 0-1.4.6-1.4 1.9v1.3c0 .4-.2.7-.6.7-.2 0-.4-.1-.6-.2-.2-.3-.2-.7-.2-1 0-.5 0-1.3.1-2.3s.1-1.8.1-2.3c0-1.1 0-2.1-.1-3.2 0-.4-.1-.8-.1-1.2 0-.7.2-1 .7-1s.5.5.6 1.6c-.1 1.1.2 2.2.9 3.1 1.5 1.1 3.2 2 5 2.6 2.5 1.1 4.7 2.1 6.4 3l6.3 3.2c6.3-2.5 14.4-5.6 24.3-9.4 2-.7 3.2-1.4 3.6-1.9.4-.6.6-1.8.5-3.6 0-.9.2-1.3.7-1.3z"/><path d="m295.3 569.9-191.5 62.7c-.6.2-1.2.2-1.8.1 0-.2.1-.3.2-.5l192.2-65.2c-.1-.7-.2-1.3-.3-2l-192.9 65.5-.3.1-.2.3c-.8 1.3-.9 2.3-.3 3 .5.6 1.3.9 2.2.8.6 0 1.2-.1 1.8-.2l191.8-62.7c-.4-.7-.7-1.3-.9-1.9z"/><path d="m491.6 422.7c-.8-1-1.2-1.6-22.6 12-10.6 6.8-24.1 15.7-32.8 21.8-11.2 7.8-41.7 31.6-56.3 43l-6.4 5c-6 4.6-35.4 32.5-46.7 43.2.5.4 1 .9 1.4 1.4 11.3-10.7 40.7-38.5 46.5-43l6.4-5c13.5-10.5 45.1-35.2 56.2-43 15.1-10.5 40.3-26.9 49.8-32.2-13.9 13.8-76.4 69.7-89.3 79.6-10.1 7.8-48.4 34.3-64.6 45.6l-2.7 1.1c.5.8.9 1.5 1.3 2.3l2.4-1.6 27.6-10.9 8.2 1.8-6.3 6.5-30.7 7.4c.2.7.3 1.3.4 2l31.3-7.6 9.2-9.5-12.3-2.7-20.3 8c18.4-12.7 48.9-34 57.7-40.8 6.8-5.2 31-26.5 51.5-44.8 11.4-10.2 21.6-19.5 28.8-26.1 13.2-12.3 13.1-12.5 12.3-13.5z"/></g></svg>